<?xml version="1.0" encoding="utf-8" standalone="no"?>
<!DOCTYPE svg PUBLIC "-//W3C//DTD SVG 1.1//EN"
  "http://www.w3.org/Graphics/SVG/1.1/DTD/svg11.dtd">
<svg xmlns:xlink="http://www.w3.org/1999/xlink" width="1440pt" height="360pt" viewBox="0 0 1440 360" xmlns="http://www.w3.org/2000/svg" version="1.1">
 <metadata>
  <rdf:RDF xmlns:dc="http://purl.org/dc/elements/1.1/" xmlns:cc="http://creativecommons.org/ns#" xmlns:rdf="http://www.w3.org/1999/02/22-rdf-syntax-ns#">
   <cc:Work>
    <dc:type rdf:resource="http://purl.org/dc/dcmitype/StillImage"/>
    <dc:date>2025-03-18T10:11:57.353580</dc:date>
    <dc:format>image/svg+xml</dc:format>
    <dc:creator>
     <cc:Agent>
      <dc:title>Matplotlib v3.10.0, https://matplotlib.org/</dc:title>
     </cc:Agent>
    </dc:creator>
   </cc:Work>
  </rdf:RDF>
 </metadata>
 <defs>
  <style type="text/css">*{stroke-linejoin: round; stroke-linecap: butt}</style>
 </defs>
 <g id="figure_1">
  <g id="patch_1">
   <path d="M 0 360 
L 1440 360 
L 1440 0 
L 0 0 
z
" style="fill: #ffffff"/>
  </g>
  <g id="axes_1">
   <g id="patch_2">
    <path d="M 180 320.4 
L 1296 320.4 
L 1296 43.2 
L 180 43.2 
z
" style="fill: #ffffff"/>
   </g>
   <g id="matplotlib.axis_1">
    <g id="xtick_1">
     <g id="line2d_1">
      <path d="M 230.727273 320.4 
L 230.727273 43.2 
" clip-path="url(#p9427bb85b1)" style="fill: none; stroke: #b0b0b0; stroke-width: 0.8; stroke-linecap: square"/>
     </g>
     <g id="line2d_2">
      <defs>
       <path id="m990cc4a797" d="M 0 0 
L 0 3.5 
" style="stroke: #000000; stroke-width: 0.8"/>
      </defs>
      <g>
       <use xlink:href="#m990cc4a797" x="230.727273" y="320.4" style="stroke: #000000; stroke-width: 0.8"/>
      </g>
     </g>
     <g id="text_1">
      <!-- 0 -->
      <g transform="translate(224.727273 344.065) scale(0.24 -0.24)">
       <defs>
        <path id="TimesNewRomanPSMT-30" d="M 231 2094 
Q 231 2819 450 3342 
Q 669 3866 1031 4122 
Q 1313 4325 1613 4325 
Q 2100 4325 2488 3828 
Q 2972 3213 2972 2159 
Q 2972 1422 2759 906 
Q 2547 391 2217 158 
Q 1888 -75 1581 -75 
Q 975 -75 572 641 
Q 231 1244 231 2094 
z
M 844 2016 
Q 844 1141 1059 588 
Q 1238 122 1591 122 
Q 1759 122 1940 273 
Q 2122 425 2216 781 
Q 2359 1319 2359 2297 
Q 2359 3022 2209 3506 
Q 2097 3866 1919 4016 
Q 1791 4119 1609 4119 
Q 1397 4119 1231 3928 
Q 1006 3669 925 3112 
Q 844 2556 844 2016 
z
" transform="scale(0.015625)"/>
       </defs>
       <use xlink:href="#TimesNewRomanPSMT-30"/>
      </g>
     </g>
    </g>
    <g id="xtick_2">
     <g id="line2d_3">
      <path d="M 357.561309 320.4 
L 357.561309 43.2 
" clip-path="url(#p9427bb85b1)" style="fill: none; stroke: #b0b0b0; stroke-width: 0.8; stroke-linecap: square"/>
     </g>
     <g id="line2d_4">
      <g>
       <use xlink:href="#m990cc4a797" x="357.561309" y="320.4" style="stroke: #000000; stroke-width: 0.8"/>
      </g>
     </g>
     <g id="text_2">
      <!-- 1000 -->
      <g transform="translate(333.561309 344.065) scale(0.24 -0.24)">
       <defs>
        <path id="TimesNewRomanPSMT-31" d="M 750 3822 
L 1781 4325 
L 1884 4325 
L 1884 747 
Q 1884 391 1914 303 
Q 1944 216 2037 169 
Q 2131 122 2419 116 
L 2419 0 
L 825 0 
L 825 116 
Q 1125 122 1212 167 
Q 1300 213 1334 289 
Q 1369 366 1369 747 
L 1369 3034 
Q 1369 3497 1338 3628 
Q 1316 3728 1258 3775 
Q 1200 3822 1119 3822 
Q 1003 3822 797 3725 
L 750 3822 
z
" transform="scale(0.015625)"/>
       </defs>
       <use xlink:href="#TimesNewRomanPSMT-31"/>
       <use xlink:href="#TimesNewRomanPSMT-30" transform="translate(50 0)"/>
       <use xlink:href="#TimesNewRomanPSMT-30" transform="translate(100 0)"/>
       <use xlink:href="#TimesNewRomanPSMT-30" transform="translate(150 0)"/>
      </g>
     </g>
    </g>
    <g id="xtick_3">
     <g id="line2d_5">
      <path d="M 484.395345 320.4 
L 484.395345 43.2 
" clip-path="url(#p9427bb85b1)" style="fill: none; stroke: #b0b0b0; stroke-width: 0.8; stroke-linecap: square"/>
     </g>
     <g id="line2d_6">
      <g>
       <use xlink:href="#m990cc4a797" x="484.395345" y="320.4" style="stroke: #000000; stroke-width: 0.8"/>
      </g>
     </g>
     <g id="text_3">
      <!-- 2000 -->
      <g transform="translate(460.395345 344.065) scale(0.24 -0.24)">
       <defs>
        <path id="TimesNewRomanPSMT-32" d="M 2934 816 
L 2638 0 
L 138 0 
L 138 116 
Q 1241 1122 1691 1759 
Q 2141 2397 2141 2925 
Q 2141 3328 1894 3587 
Q 1647 3847 1303 3847 
Q 991 3847 742 3664 
Q 494 3481 375 3128 
L 259 3128 
Q 338 3706 661 4015 
Q 984 4325 1469 4325 
Q 1984 4325 2329 3994 
Q 2675 3663 2675 3213 
Q 2675 2891 2525 2569 
Q 2294 2063 1775 1497 
Q 997 647 803 472 
L 1909 472 
Q 2247 472 2383 497 
Q 2519 522 2628 598 
Q 2738 675 2819 816 
L 2934 816 
z
" transform="scale(0.015625)"/>
       </defs>
       <use xlink:href="#TimesNewRomanPSMT-32"/>
       <use xlink:href="#TimesNewRomanPSMT-30" transform="translate(50 0)"/>
       <use xlink:href="#TimesNewRomanPSMT-30" transform="translate(100 0)"/>
       <use xlink:href="#TimesNewRomanPSMT-30" transform="translate(150 0)"/>
      </g>
     </g>
    </g>
    <g id="xtick_4">
     <g id="line2d_7">
      <path d="M 611.229381 320.4 
L 611.229381 43.2 
" clip-path="url(#p9427bb85b1)" style="fill: none; stroke: #b0b0b0; stroke-width: 0.8; stroke-linecap: square"/>
     </g>
     <g id="line2d_8">
      <g>
       <use xlink:href="#m990cc4a797" x="611.229381" y="320.4" style="stroke: #000000; stroke-width: 0.8"/>
      </g>
     </g>
     <g id="text_4">
      <!-- 3000 -->
      <g transform="translate(587.229381 344.065) scale(0.24 -0.24)">
       <defs>
        <path id="TimesNewRomanPSMT-33" d="M 325 3431 
Q 506 3859 782 4092 
Q 1059 4325 1472 4325 
Q 1981 4325 2253 3994 
Q 2459 3747 2459 3466 
Q 2459 3003 1878 2509 
Q 2269 2356 2469 2072 
Q 2669 1788 2669 1403 
Q 2669 853 2319 450 
Q 1863 -75 997 -75 
Q 569 -75 414 31 
Q 259 138 259 259 
Q 259 350 332 419 
Q 406 488 509 488 
Q 588 488 669 463 
Q 722 447 909 348 
Q 1097 250 1169 231 
Q 1284 197 1416 197 
Q 1734 197 1970 444 
Q 2206 691 2206 1028 
Q 2206 1275 2097 1509 
Q 2016 1684 1919 1775 
Q 1784 1900 1550 2001 
Q 1316 2103 1072 2103 
L 972 2103 
L 972 2197 
Q 1219 2228 1467 2375 
Q 1716 2522 1828 2728 
Q 1941 2934 1941 3181 
Q 1941 3503 1739 3701 
Q 1538 3900 1238 3900 
Q 753 3900 428 3381 
L 325 3431 
z
" transform="scale(0.015625)"/>
       </defs>
       <use xlink:href="#TimesNewRomanPSMT-33"/>
       <use xlink:href="#TimesNewRomanPSMT-30" transform="translate(50 0)"/>
       <use xlink:href="#TimesNewRomanPSMT-30" transform="translate(100 0)"/>
       <use xlink:href="#TimesNewRomanPSMT-30" transform="translate(150 0)"/>
      </g>
     </g>
    </g>
    <g id="xtick_5">
     <g id="line2d_9">
      <path d="M 738.063417 320.4 
L 738.063417 43.2 
" clip-path="url(#p9427bb85b1)" style="fill: none; stroke: #b0b0b0; stroke-width: 0.8; stroke-linecap: square"/>
     </g>
     <g id="line2d_10">
      <g>
       <use xlink:href="#m990cc4a797" x="738.063417" y="320.4" style="stroke: #000000; stroke-width: 0.8"/>
      </g>
     </g>
     <g id="text_5">
      <!-- 4000 -->
      <g transform="translate(714.063417 344.065) scale(0.24 -0.24)">
       <defs>
        <path id="TimesNewRomanPSMT-34" d="M 2978 1563 
L 2978 1119 
L 2409 1119 
L 2409 0 
L 1894 0 
L 1894 1119 
L 100 1119 
L 100 1519 
L 2066 4325 
L 2409 4325 
L 2409 1563 
L 2978 1563 
z
M 1894 1563 
L 1894 3666 
L 406 1563 
L 1894 1563 
z
" transform="scale(0.015625)"/>
       </defs>
       <use xlink:href="#TimesNewRomanPSMT-34"/>
       <use xlink:href="#TimesNewRomanPSMT-30" transform="translate(50 0)"/>
       <use xlink:href="#TimesNewRomanPSMT-30" transform="translate(100 0)"/>
       <use xlink:href="#TimesNewRomanPSMT-30" transform="translate(150 0)"/>
      </g>
     </g>
    </g>
    <g id="xtick_6">
     <g id="line2d_11">
      <path d="M 864.897453 320.4 
L 864.897453 43.2 
" clip-path="url(#p9427bb85b1)" style="fill: none; stroke: #b0b0b0; stroke-width: 0.8; stroke-linecap: square"/>
     </g>
     <g id="line2d_12">
      <g>
       <use xlink:href="#m990cc4a797" x="864.897453" y="320.4" style="stroke: #000000; stroke-width: 0.8"/>
      </g>
     </g>
     <g id="text_6">
      <!-- 5000 -->
      <g transform="translate(840.897453 344.065) scale(0.24 -0.24)">
       <defs>
        <path id="TimesNewRomanPSMT-35" d="M 2778 4238 
L 2534 3706 
L 1259 3706 
L 981 3138 
Q 1809 3016 2294 2522 
Q 2709 2097 2709 1522 
Q 2709 1188 2573 903 
Q 2438 619 2231 419 
Q 2025 219 1772 97 
Q 1413 -75 1034 -75 
Q 653 -75 479 54 
Q 306 184 306 341 
Q 306 428 378 495 
Q 450 563 559 563 
Q 641 563 702 538 
Q 763 513 909 409 
Q 1144 247 1384 247 
Q 1750 247 2026 523 
Q 2303 800 2303 1197 
Q 2303 1581 2056 1914 
Q 1809 2247 1375 2428 
Q 1034 2569 447 2591 
L 1259 4238 
L 2778 4238 
z
" transform="scale(0.015625)"/>
       </defs>
       <use xlink:href="#TimesNewRomanPSMT-35"/>
       <use xlink:href="#TimesNewRomanPSMT-30" transform="translate(50 0)"/>
       <use xlink:href="#TimesNewRomanPSMT-30" transform="translate(100 0)"/>
       <use xlink:href="#TimesNewRomanPSMT-30" transform="translate(150 0)"/>
      </g>
     </g>
    </g>
    <g id="xtick_7">
     <g id="line2d_13">
      <path d="M 991.731489 320.4 
L 991.731489 43.2 
" clip-path="url(#p9427bb85b1)" style="fill: none; stroke: #b0b0b0; stroke-width: 0.8; stroke-linecap: square"/>
     </g>
     <g id="line2d_14">
      <g>
       <use xlink:href="#m990cc4a797" x="991.731489" y="320.4" style="stroke: #000000; stroke-width: 0.8"/>
      </g>
     </g>
     <g id="text_7">
      <!-- 6000 -->
      <g transform="translate(967.731489 344.065) scale(0.24 -0.24)">
       <defs>
        <path id="TimesNewRomanPSMT-36" d="M 2869 4325 
L 2869 4209 
Q 2456 4169 2195 4045 
Q 1934 3922 1679 3669 
Q 1425 3416 1258 3105 
Q 1091 2794 978 2366 
Q 1428 2675 1881 2675 
Q 2316 2675 2634 2325 
Q 2953 1975 2953 1425 
Q 2953 894 2631 456 
Q 2244 -75 1606 -75 
Q 1172 -75 869 213 
Q 275 772 275 1663 
Q 275 2231 503 2743 
Q 731 3256 1154 3653 
Q 1578 4050 1965 4187 
Q 2353 4325 2688 4325 
L 2869 4325 
z
M 925 2138 
Q 869 1716 869 1456 
Q 869 1156 980 804 
Q 1091 453 1309 247 
Q 1469 100 1697 100 
Q 1969 100 2183 356 
Q 2397 613 2397 1088 
Q 2397 1622 2184 2012 
Q 1972 2403 1581 2403 
Q 1463 2403 1327 2353 
Q 1191 2303 925 2138 
z
" transform="scale(0.015625)"/>
       </defs>
       <use xlink:href="#TimesNewRomanPSMT-36"/>
       <use xlink:href="#TimesNewRomanPSMT-30" transform="translate(50 0)"/>
       <use xlink:href="#TimesNewRomanPSMT-30" transform="translate(100 0)"/>
       <use xlink:href="#TimesNewRomanPSMT-30" transform="translate(150 0)"/>
      </g>
     </g>
    </g>
    <g id="xtick_8">
     <g id="line2d_15">
      <path d="M 1118.565525 320.4 
L 1118.565525 43.2 
" clip-path="url(#p9427bb85b1)" style="fill: none; stroke: #b0b0b0; stroke-width: 0.8; stroke-linecap: square"/>
     </g>
     <g id="line2d_16">
      <g>
       <use xlink:href="#m990cc4a797" x="1118.565525" y="320.4" style="stroke: #000000; stroke-width: 0.8"/>
      </g>
     </g>
     <g id="text_8">
      <!-- 7000 -->
      <g transform="translate(1094.565525 344.065) scale(0.24 -0.24)">
       <defs>
        <path id="TimesNewRomanPSMT-37" d="M 644 4238 
L 2916 4238 
L 2916 4119 
L 1503 -88 
L 1153 -88 
L 2419 3728 
L 1253 3728 
Q 900 3728 750 3644 
Q 488 3500 328 3200 
L 238 3234 
L 644 4238 
z
" transform="scale(0.015625)"/>
       </defs>
       <use xlink:href="#TimesNewRomanPSMT-37"/>
       <use xlink:href="#TimesNewRomanPSMT-30" transform="translate(50 0)"/>
       <use xlink:href="#TimesNewRomanPSMT-30" transform="translate(100 0)"/>
       <use xlink:href="#TimesNewRomanPSMT-30" transform="translate(150 0)"/>
      </g>
     </g>
    </g>
    <g id="xtick_9">
     <g id="line2d_17">
      <path d="M 1245.399561 320.4 
L 1245.399561 43.2 
" clip-path="url(#p9427bb85b1)" style="fill: none; stroke: #b0b0b0; stroke-width: 0.8; stroke-linecap: square"/>
     </g>
     <g id="line2d_18">
      <g>
       <use xlink:href="#m990cc4a797" x="1245.399561" y="320.4" style="stroke: #000000; stroke-width: 0.8"/>
      </g>
     </g>
     <g id="text_9">
      <!-- 8000 -->
      <g transform="translate(1221.399561 344.065) scale(0.24 -0.24)">
       <defs>
        <path id="TimesNewRomanPSMT-38" d="M 1228 2134 
Q 725 2547 579 2797 
Q 434 3047 434 3316 
Q 434 3728 753 4026 
Q 1072 4325 1600 4325 
Q 2113 4325 2425 4047 
Q 2738 3769 2738 3413 
Q 2738 3175 2569 2928 
Q 2400 2681 1866 2347 
Q 2416 1922 2594 1678 
Q 2831 1359 2831 1006 
Q 2831 559 2490 242 
Q 2150 -75 1597 -75 
Q 994 -75 656 303 
Q 388 606 388 966 
Q 388 1247 577 1523 
Q 766 1800 1228 2134 
z
M 1719 2469 
Q 2094 2806 2194 3001 
Q 2294 3197 2294 3444 
Q 2294 3772 2109 3958 
Q 1925 4144 1606 4144 
Q 1288 4144 1088 3959 
Q 888 3775 888 3528 
Q 888 3366 970 3203 
Q 1053 3041 1206 2894 
L 1719 2469 
z
M 1375 2016 
Q 1116 1797 991 1539 
Q 866 1281 866 981 
Q 866 578 1086 336 
Q 1306 94 1647 94 
Q 1984 94 2187 284 
Q 2391 475 2391 747 
Q 2391 972 2272 1150 
Q 2050 1481 1375 2016 
z
" transform="scale(0.015625)"/>
       </defs>
       <use xlink:href="#TimesNewRomanPSMT-38"/>
       <use xlink:href="#TimesNewRomanPSMT-30" transform="translate(50 0)"/>
       <use xlink:href="#TimesNewRomanPSMT-30" transform="translate(100 0)"/>
       <use xlink:href="#TimesNewRomanPSMT-30" transform="translate(150 0)"/>
      </g>
     </g>
    </g>
    <g id="text_10">
     <!-- Time -->
     <g transform="translate(713.09625 369.86375) scale(0.24 -0.24)">
      <defs>
       <path id="TimesNewRomanPSMT-54" d="M 3703 4238 
L 3750 3244 
L 3631 3244 
Q 3597 3506 3538 3619 
Q 3441 3800 3280 3886 
Q 3119 3972 2856 3972 
L 2259 3972 
L 2259 734 
Q 2259 344 2344 247 
Q 2463 116 2709 116 
L 2856 116 
L 2856 0 
L 1059 0 
L 1059 116 
L 1209 116 
Q 1478 116 1591 278 
Q 1659 378 1659 734 
L 1659 3972 
L 1150 3972 
Q 853 3972 728 3928 
Q 566 3869 450 3700 
Q 334 3531 313 3244 
L 194 3244 
L 244 4238 
L 3703 4238 
z
" transform="scale(0.015625)"/>
       <path id="TimesNewRomanPSMT-69" d="M 928 4444 
Q 1059 4444 1151 4351 
Q 1244 4259 1244 4128 
Q 1244 3997 1151 3903 
Q 1059 3809 928 3809 
Q 797 3809 703 3903 
Q 609 3997 609 4128 
Q 609 4259 701 4351 
Q 794 4444 928 4444 
z
M 1188 2947 
L 1188 647 
Q 1188 378 1227 289 
Q 1266 200 1342 156 
Q 1419 113 1622 113 
L 1622 0 
L 231 0 
L 231 113 
Q 441 113 512 153 
Q 584 194 626 287 
Q 669 381 669 647 
L 669 1750 
Q 669 2216 641 2353 
Q 619 2453 572 2492 
Q 525 2531 444 2531 
Q 356 2531 231 2484 
L 188 2597 
L 1050 2947 
L 1188 2947 
z
" transform="scale(0.015625)"/>
       <path id="TimesNewRomanPSMT-6d" d="M 1050 2338 
Q 1363 2650 1419 2697 
Q 1559 2816 1721 2881 
Q 1884 2947 2044 2947 
Q 2313 2947 2506 2790 
Q 2700 2634 2766 2338 
Q 3088 2713 3309 2830 
Q 3531 2947 3766 2947 
Q 3994 2947 4170 2830 
Q 4347 2713 4450 2447 
Q 4519 2266 4519 1878 
L 4519 647 
Q 4519 378 4559 278 
Q 4591 209 4675 161 
Q 4759 113 4950 113 
L 4950 0 
L 3538 0 
L 3538 113 
L 3597 113 
Q 3781 113 3884 184 
Q 3956 234 3988 344 
Q 4000 397 4000 647 
L 4000 1878 
Q 4000 2228 3916 2372 
Q 3794 2572 3525 2572 
Q 3359 2572 3192 2489 
Q 3025 2406 2788 2181 
L 2781 2147 
L 2788 2013 
L 2788 647 
Q 2788 353 2820 281 
Q 2853 209 2943 161 
Q 3034 113 3253 113 
L 3253 0 
L 1806 0 
L 1806 113 
Q 2044 113 2133 169 
Q 2222 225 2256 338 
Q 2272 391 2272 647 
L 2272 1878 
Q 2272 2228 2169 2381 
Q 2031 2581 1784 2581 
Q 1616 2581 1450 2491 
Q 1191 2353 1050 2181 
L 1050 647 
Q 1050 366 1089 281 
Q 1128 197 1204 155 
Q 1281 113 1516 113 
L 1516 0 
L 100 0 
L 100 113 
Q 297 113 375 155 
Q 453 197 493 289 
Q 534 381 534 647 
L 534 1741 
Q 534 2213 506 2350 
Q 484 2453 437 2492 
Q 391 2531 309 2531 
Q 222 2531 100 2484 
L 53 2597 
L 916 2947 
L 1050 2947 
L 1050 2338 
z
" transform="scale(0.015625)"/>
       <path id="TimesNewRomanPSMT-65" d="M 681 1784 
Q 678 1147 991 784 
Q 1303 422 1725 422 
Q 2006 422 2214 576 
Q 2422 731 2563 1106 
L 2659 1044 
Q 2594 616 2278 264 
Q 1963 -88 1488 -88 
Q 972 -88 605 314 
Q 238 716 238 1394 
Q 238 2128 614 2539 
Q 991 2950 1559 2950 
Q 2041 2950 2350 2633 
Q 2659 2316 2659 1784 
L 681 1784 
z
M 681 1966 
L 2006 1966 
Q 1991 2241 1941 2353 
Q 1863 2528 1708 2628 
Q 1553 2728 1384 2728 
Q 1125 2728 920 2526 
Q 716 2325 681 1966 
z
" transform="scale(0.015625)"/>
      </defs>
      <use xlink:href="#TimesNewRomanPSMT-54"/>
      <use xlink:href="#TimesNewRomanPSMT-69" transform="translate(57.583984 0)"/>
      <use xlink:href="#TimesNewRomanPSMT-6d" transform="translate(85.367188 0)"/>
      <use xlink:href="#TimesNewRomanPSMT-65" transform="translate(163.150391 0)"/>
     </g>
    </g>
   </g>
   <g id="matplotlib.axis_2">
    <g id="ytick_1">
     <g id="line2d_19">
      <path d="M 180 301.687392 
L 1296 301.687392 
" clip-path="url(#p9427bb85b1)" style="fill: none; stroke: #b0b0b0; stroke-width: 0.8; stroke-linecap: square"/>
     </g>
     <g id="line2d_20">
      <defs>
       <path id="m49b91b19b7" d="M 0 0 
L -3.5 0 
" style="stroke: #000000; stroke-width: 0.8"/>
      </defs>
      <g>
       <use xlink:href="#m49b91b19b7" x="180" y="301.687392" style="stroke: #000000; stroke-width: 0.8"/>
      </g>
     </g>
     <g id="text_11">
      <!-- −4 -->
      <g transform="translate(147.46625 310.019892) scale(0.24 -0.24)">
       <defs>
        <path id="TimesNewRomanPSMT-2212" d="M 3484 2000 
L 116 2000 
L 116 2256 
L 3484 2256 
L 3484 2000 
z
" transform="scale(0.015625)"/>
       </defs>
       <use xlink:href="#TimesNewRomanPSMT-2212"/>
       <use xlink:href="#TimesNewRomanPSMT-34" transform="translate(56.396484 0)"/>
      </g>
     </g>
    </g>
    <g id="ytick_2">
     <g id="line2d_21">
      <path d="M 180 239.64977 
L 1296 239.64977 
" clip-path="url(#p9427bb85b1)" style="fill: none; stroke: #b0b0b0; stroke-width: 0.8; stroke-linecap: square"/>
     </g>
     <g id="line2d_22">
      <g>
       <use xlink:href="#m49b91b19b7" x="180" y="239.64977" style="stroke: #000000; stroke-width: 0.8"/>
      </g>
     </g>
     <g id="text_12">
      <!-- −2 -->
      <g transform="translate(147.46625 247.98227) scale(0.24 -0.24)">
       <use xlink:href="#TimesNewRomanPSMT-2212"/>
       <use xlink:href="#TimesNewRomanPSMT-32" transform="translate(56.396484 0)"/>
      </g>
     </g>
    </g>
    <g id="ytick_3">
     <g id="line2d_23">
      <path d="M 180 177.612149 
L 1296 177.612149 
" clip-path="url(#p9427bb85b1)" style="fill: none; stroke: #b0b0b0; stroke-width: 0.8; stroke-linecap: square"/>
     </g>
     <g id="line2d_24">
      <g>
       <use xlink:href="#m49b91b19b7" x="180" y="177.612149" style="stroke: #000000; stroke-width: 0.8"/>
      </g>
     </g>
     <g id="text_13">
      <!-- 0 -->
      <g transform="translate(161 185.944649) scale(0.24 -0.24)">
       <use xlink:href="#TimesNewRomanPSMT-30"/>
      </g>
     </g>
    </g>
    <g id="ytick_4">
     <g id="line2d_25">
      <path d="M 180 115.574527 
L 1296 115.574527 
" clip-path="url(#p9427bb85b1)" style="fill: none; stroke: #b0b0b0; stroke-width: 0.8; stroke-linecap: square"/>
     </g>
     <g id="line2d_26">
      <g>
       <use xlink:href="#m49b91b19b7" x="180" y="115.574527" style="stroke: #000000; stroke-width: 0.8"/>
      </g>
     </g>
     <g id="text_14">
      <!-- 2 -->
      <g transform="translate(161 123.907027) scale(0.24 -0.24)">
       <use xlink:href="#TimesNewRomanPSMT-32"/>
      </g>
     </g>
    </g>
    <g id="ytick_5">
     <g id="line2d_27">
      <path d="M 180 53.536905 
L 1296 53.536905 
" clip-path="url(#p9427bb85b1)" style="fill: none; stroke: #b0b0b0; stroke-width: 0.8; stroke-linecap: square"/>
     </g>
     <g id="line2d_28">
      <g>
       <use xlink:href="#m49b91b19b7" x="180" y="53.536905" style="stroke: #000000; stroke-width: 0.8"/>
      </g>
     </g>
     <g id="text_15">
      <!-- 4 -->
      <g transform="translate(161 61.869405) scale(0.24 -0.24)">
       <use xlink:href="#TimesNewRomanPSMT-34"/>
      </g>
     </g>
    </g>
    <g id="text_16">
     <!-- $X_{rel}$ -->
     <g transform="translate(138.3325 201.36) rotate(-90) scale(0.24 -0.24)">
      <defs>
       <path id="DejaVuSans-Oblique-58" d="M 878 4666 
L 1516 4666 
L 2316 2981 
L 3763 4666 
L 4500 4666 
L 2578 2438 
L 3738 0 
L 3103 0 
L 2163 1966 
L 459 0 
L -275 0 
L 1906 2509 
L 878 4666 
z
" transform="scale(0.015625)"/>
       <path id="DejaVuSans-Oblique-72" d="M 2853 2969 
Q 2766 3016 2653 3041 
Q 2541 3066 2413 3066 
Q 1953 3066 1609 2717 
Q 1266 2369 1153 1784 
L 800 0 
L 225 0 
L 909 3500 
L 1484 3500 
L 1375 2956 
Q 1603 3259 1920 3421 
Q 2238 3584 2597 3584 
Q 2691 3584 2781 3573 
Q 2872 3563 2963 3538 
L 2853 2969 
z
" transform="scale(0.015625)"/>
       <path id="DejaVuSans-Oblique-65" d="M 3078 2063 
Q 3088 2113 3092 2166 
Q 3097 2219 3097 2272 
Q 3097 2653 2873 2875 
Q 2650 3097 2266 3097 
Q 1838 3097 1509 2826 
Q 1181 2556 1013 2059 
L 3078 2063 
z
M 3578 1613 
L 903 1613 
Q 884 1494 878 1425 
Q 872 1356 872 1306 
Q 872 872 1139 634 
Q 1406 397 1894 397 
Q 2269 397 2603 481 
Q 2938 566 3225 728 
L 3116 159 
Q 2806 34 2476 -28 
Q 2147 -91 1806 -91 
Q 1078 -91 686 257 
Q 294 606 294 1247 
Q 294 1794 489 2264 
Q 684 2734 1063 3103 
Q 1306 3334 1642 3459 
Q 1978 3584 2356 3584 
Q 2950 3584 3301 3228 
Q 3653 2872 3653 2272 
Q 3653 2128 3634 1964 
Q 3616 1800 3578 1613 
z
" transform="scale(0.015625)"/>
       <path id="DejaVuSans-Oblique-6c" d="M 1172 4863 
L 1747 4863 
L 800 0 
L 225 0 
L 1172 4863 
z
" transform="scale(0.015625)"/>
      </defs>
      <use xlink:href="#DejaVuSans-Oblique-58" transform="translate(0 0.09375)"/>
      <use xlink:href="#DejaVuSans-Oblique-72" transform="translate(68.505859 -16.3125) scale(0.7)"/>
      <use xlink:href="#DejaVuSans-Oblique-65" transform="translate(97.285156 -16.3125) scale(0.7)"/>
      <use xlink:href="#DejaVuSans-Oblique-6c" transform="translate(140.351562 -16.3125) scale(0.7)"/>
     </g>
    </g>
   </g>
   <g id="line2d_29">
    <path d="M 230.727273 175.080207 
L 231.868779 183.964491 
L 232.376115 186.539672 
L 232.756617 187.601778 
L 233.010285 187.862683 
L 233.263953 187.767648 
L 233.517622 187.333506 
L 233.898124 186.113138 
L 234.40546 183.653598 
L 236.434804 172.506598 
L 236.94214 171.156172 
L 237.322643 170.748761 
L 237.576311 170.76408 
L 237.829979 170.9968 
L 238.210481 171.714026 
L 238.717817 173.228049 
L 239.732489 177.260736 
L 240.747162 181.057403 
L 241.381332 182.706833 
L 241.888668 183.497508 
L 242.26917 183.765002 
L 242.649672 183.749253 
L 243.030174 183.446576 
L 243.410676 182.851722 
L 243.918012 181.597364 
L 244.552183 179.31537 
L 245.566855 174.536994 
L 246.454693 170.682231 
L 246.962029 169.399012 
L 247.215697 169.129176 
L 247.469365 169.131017 
L 247.723034 169.404792 
L 248.103536 170.290268 
L 248.610872 172.183394 
L 250.76705 181.422679 
L 251.401221 182.85279 
L 251.908557 183.494681 
L 252.415893 183.748447 
L 252.796395 183.712344 
L 253.303731 183.392166 
L 253.811067 182.793034 
L 254.445237 181.712557 
L 255.333076 179.734898 
L 256.72825 175.967213 
L 257.869756 172.997367 
L 258.377093 172.108401 
L 258.757595 171.759789 
L 259.011263 171.711112 
L 259.264931 171.82243 
L 259.645433 172.297044 
L 260.152769 173.470334 
L 260.913773 176.05895 
L 262.05528 179.944277 
L 262.562616 180.898301 
L 262.943118 181.119023 
L 263.196786 181.015935 
L 263.577288 180.503509 
L 264.084624 179.264457 
L 265.860301 174.117735 
L 266.240803 173.711946 
L 266.494471 173.671203 
L 266.748139 173.816114 
L 267.128641 174.362152 
L 267.635977 175.607036 
L 268.523815 178.585162 
L 269.411654 181.410426 
L 269.91899 182.506147 
L 270.299492 182.985738 
L 270.679994 183.161643 
L 271.060496 183.054288 
L 271.440998 182.703381 
L 272.075168 181.710857 
L 272.963007 179.811912 
L 275.753356 173.442984 
L 276.387526 172.626638 
L 276.894862 172.35081 
L 277.275364 172.389494 
L 277.655866 172.638633 
L 278.163202 173.269204 
L 278.924206 174.695772 
L 281.460887 179.917038 
L 282.221891 180.922874 
L 282.856062 181.430845 
L 283.363398 181.570399 
L 283.7439 181.4936 
L 284.251236 181.116851 
L 284.758572 180.394842 
L 285.392742 178.99549 
L 286.280581 176.351667 
L 287.168419 173.796871 
L 287.675755 172.889407 
L 288.056257 172.635273 
L 288.309925 172.696272 
L 288.690427 173.138998 
L 289.070929 173.974625 
L 289.7051 176.041675 
L 291.480776 182.339948 
L 291.988112 183.273377 
L 292.368614 183.574518 
L 292.622282 183.581487 
L 293.002784 183.311714 
L 293.383287 182.732836 
L 293.890623 181.558721 
L 294.778461 178.802406 
L 296.046801 174.834506 
L 296.680971 173.452832 
L 297.188308 172.785404 
L 297.56881 172.547602 
L 297.949312 172.517454 
L 298.456648 172.748927 
L 299.090818 173.355171 
L 300.10549 174.721883 
L 301.373831 176.797488 
L 303.783678 180.990526 
L 304.291014 181.314953 
L 304.671516 181.304914 
L 305.052018 181.072274 
L 305.559354 180.44847 
L 306.320358 179.056393 
L 307.335031 177.2441 
L 307.842367 176.793387 
L 308.222869 176.771502 
L 308.603371 177.034225 
L 309.110707 177.764608 
L 310.759549 180.674649 
L 311.140052 180.908385 
L 311.520554 180.874086 
L 311.901056 180.584937 
L 312.408392 179.87594 
L 313.29623 178.144918 
L 314.564571 175.749215 
L 315.579243 174.357148 
L 318.369592 171.162423 
L 318.750094 171.124416 
L 319.130596 171.368034 
L 319.511098 171.938585 
L 320.018434 173.239121 
L 320.652604 175.677224 
L 321.540443 180.146317 
L 322.935617 187.136819 
L 323.442953 188.82438 
L 323.823455 189.548846 
L 324.077123 189.724006 
L 324.330791 189.628633 
L 324.584459 189.249322 
L 324.964962 188.139996 
L 325.472298 185.708014 
L 326.233302 180.524593 
L 327.628476 170.632758 
L 328.135812 168.375302 
L 328.516315 167.441008 
L 328.769983 167.200004 
L 329.023651 167.25984 
L 329.277319 167.605499 
L 329.657821 168.606595 
L 330.165157 170.667726 
L 331.306663 176.718925 
L 332.067668 180.278882 
L 332.575004 181.842747 
L 332.955506 182.454791 
L 333.209174 182.577419 
L 333.462842 182.474067 
L 333.843344 181.923337 
L 334.35068 180.574567 
L 335.365352 176.840049 
L 336.126357 174.405503 
L 336.633693 173.456625 
L 337.014195 173.199854 
L 337.267863 173.253472 
L 337.648365 173.657308 
L 338.155701 174.727891 
L 338.789871 176.689056 
L 340.565548 182.500013 
L 341.072884 183.42433 
L 341.453386 183.76853 
L 341.833888 183.795614 
L 342.21439 183.501565 
L 342.594893 182.891045 
L 343.102229 181.611989 
L 343.863233 178.878874 
L 345.512075 172.559534 
L 346.019412 171.542405 
L 346.399914 171.266051 
L 346.653582 171.320411 
L 347.034084 171.738348 
L 347.54142 172.823616 
L 348.302424 175.138907 
L 349.44393 178.588475 
L 350.078101 179.852639 
L 350.585437 180.411051 
L 351.092773 180.60993 
L 351.600109 180.557314 
L 353.122118 180.203461 
L 354.13679 180.37696 
L 354.644126 180.370064 
L 355.024628 180.171975 
L 355.40513 179.712877 
L 355.785632 178.924299 
L 356.292968 177.311103 
L 357.053973 173.902322 
L 357.434475 172.023517 
L 357.434475 172.023517 
" clip-path="url(#p9427bb85b1)" style="fill: none; stroke: #000000; stroke-width: 1.5; stroke-linecap: square"/>
   </g>
   <g id="line2d_30">
    <path d="M 357.561309 137.768486 
L 358.195479 126.49625 
L 358.575981 122.932189 
L 358.829649 122.193941 
L 358.956483 122.355239 
L 359.210151 123.779002 
L 359.590653 128.716144 
L 360.09799 140.27486 
L 360.73216 161.159916 
L 362.63467 228.550795 
L 363.142006 237.431679 
L 363.395674 239.458518 
L 363.522508 239.843674 
L 363.649343 239.809412 
L 363.903011 238.501369 
L 364.156679 235.601787 
L 364.537181 228.526016 
L 365.171351 210.892251 
L 367.581198 135.008249 
L 368.088534 128.138975 
L 368.342202 126.641287 
L 368.469036 126.383746 
L 368.59587 126.450732 
L 368.849538 127.536383 
L 369.23004 131.408255 
L 369.737376 140.176107 
L 370.49838 158.457058 
L 371.766721 189.556819 
L 372.400891 199.75847 
L 372.781393 203.298659 
L 373.161895 204.860262 
L 373.288729 204.96232 
L 373.415563 204.86852 
L 373.669231 204.135389 
L 374.049733 201.862447 
L 374.683904 195.945039 
L 376.079078 182.011437 
L 376.713248 178.079159 
L 377.220584 176.204883 
L 377.727921 175.102328 
L 379.376763 172.21762 
L 380.264601 169.637464 
L 381.532942 165.891308 
L 382.167112 164.664739 
L 382.674448 164.159481 
L 383.05495 164.062333 
L 383.435452 164.173261 
L 384.069622 164.648192 
L 384.957461 165.284441 
L 385.464797 165.363414 
L 386.225801 165.156223 
L 386.733137 165.145986 
L 386.986805 165.323283 
L 387.240473 165.701074 
L 387.620975 166.778046 
L 388.001477 168.632406 
L 388.508814 172.515181 
L 389.142984 179.504596 
L 390.538158 196.00453 
L 390.91866 198.346585 
L 391.172328 199.009163 
L 391.299162 199.057309 
L 391.425996 198.91777 
L 391.679665 198.097805 
L 392.060167 195.668727 
L 392.694337 189.46439 
L 393.962677 176.670547 
L 394.596847 172.493925 
L 395.357852 169.013432 
L 397.640864 160.001563 
L 398.021366 159.39097 
L 398.275034 159.343094 
L 398.528702 159.62378 
L 398.782371 160.259932 
L 399.162873 161.92149 
L 399.670209 165.503072 
L 400.304379 172.108726 
L 401.192217 184.39329 
L 402.333724 200.313273 
L 402.84106 204.797493 
L 403.094728 205.947912 
L 403.348396 206.226208 
L 403.47523 206.01295 
L 403.728898 204.848443 
L 404.1094 201.224421 
L 404.616736 193.058712 
L 405.250906 178.619584 
L 406.899749 138.307925 
L 407.407085 131.15429 
L 407.787587 128.652827 
L 407.914421 128.401368 
L 408.041255 128.442973 
L 408.294923 129.390632 
L 408.675425 132.854404 
L 409.182761 140.726517 
L 409.943766 157.109215 
L 411.592608 194.02488 
L 412.353612 206.045069 
L 412.987783 212.600661 
L 413.495119 215.560385 
L 413.875621 216.492431 
L 414.129289 216.518178 
L 414.382957 216.074392 
L 414.763459 214.530722 
L 415.143961 211.922308 
L 415.651297 206.750107 
L 416.285468 197.539637 
L 417.046472 182.841472 
L 419.329484 135.191412 
L 419.836821 129.485241 
L 420.217323 127.300696 
L 420.470991 126.898953 
L 420.597825 127.017276 
L 420.851493 127.885815 
L 421.231995 130.717841 
L 421.739331 137.106624 
L 422.373501 148.524882 
L 423.388174 171.549642 
L 424.910182 205.866625 
L 425.544352 216.078584 
L 426.051688 221.059528 
L 426.305356 222.280452 
L 426.559024 222.589605 
L 426.685858 222.394095 
L 426.939527 221.299114 
L 427.320029 217.927711 
L 427.827365 210.436632 
L 428.461535 197.149338 
L 430.744548 144.539358 
L 431.251884 139.296208 
L 431.505552 138.187149 
L 431.632386 138.017527 
L 431.75922 138.100825 
L 432.012888 139.001655 
L 432.39339 142.04034 
L 432.900726 148.644221 
L 433.915399 166.235618 
L 434.930071 182.546742 
L 435.564241 189.869599 
L 436.071577 193.877829 
L 436.578913 196.282861 
L 436.959415 197.07562 
L 437.213083 197.135774 
L 437.466752 196.827336 
L 437.847254 195.683924 
L 438.227756 193.742433 
L 438.735092 189.977073 
L 439.496096 182.174037 
L 442.159611 151.878006 
L 442.666947 149.076383 
L 443.047449 148.161376 
L 443.174283 148.105395 
L 443.301117 148.179719 
L 443.554785 148.730155 
L 443.935287 150.584549 
L 444.315789 153.675139 
L 444.823126 159.615756 
L 445.58413 171.722749 
L 447.48664 204.446114 
L 447.993977 209.150809 
L 448.247645 210.326912 
L 448.501313 210.657499 
L 448.628147 210.501791 
L 448.881815 209.556439 
L 449.262317 206.630586 
L 449.769653 200.281423 
L 450.530657 187.1214 
L 452.306334 155.107774 
L 452.940504 147.806212 
L 453.44784 144.353858 
L 453.828342 143.137735 
L 454.08201 142.931581 
L 454.335678 143.167794 
L 454.589346 143.810969 
L 454.969849 145.475922 
L 455.477185 148.931382 
L 455.984521 153.851971 
L 456.618691 162.348118 
L 457.379695 176.182268 
L 459.40904 216.691868 
L 459.789542 220.511143 
L 460.04321 221.786634 
L 460.170044 222.012567 
L 460.296878 221.954773 
L 460.550546 220.973008 
L 460.804214 218.83271 
L 461.184716 213.517053 
L 461.692052 202.916501 
L 462.579891 177.923851 
L 463.721397 145.704579 
L 464.355567 133.78298 
L 464.736069 129.819576 
L 464.989737 128.620915 
L 465.116571 128.456348 
L 465.243405 128.577143 
L 465.497073 129.648829 
L 465.877576 133.185142 
L 466.384912 140.92915 
L 467.145916 156.792913 
L 468.667924 189.33323 
L 469.302095 198.039678 
L 469.682597 200.984077 
L 469.936265 201.913144 
L 470.063099 202.066138 
L 470.189933 202.015335 
L 470.443601 201.325672 
L 470.824103 198.96145 
L 471.331439 193.910294 
L 472.853448 177.279858 
L 473.23395 175.252022 
L 473.487618 174.639853 
L 473.614452 174.55378 
L 473.741286 174.608197 
L 473.994954 175.107667 
L 474.375456 176.673846 
L 475.13646 181.392331 
L 475.897464 185.66877 
L 476.277967 186.869552 
L 476.531635 187.188934 
L 476.785303 187.085393 
L 477.038971 186.542082 
L 477.419473 184.896672 
L 477.926809 181.220684 
L 478.560979 174.597595 
L 479.956154 156.39087 
L 480.717158 148.153509 
L 481.224494 144.849103 
L 481.478162 144.054562 
L 481.73183 143.881758 
L 481.985498 144.340609 
L 482.239166 145.417542 
L 482.619668 148.108575 
L 483.127005 153.378349 
L 484.014843 165.446714 
L 484.268511 169.172167 
L 484.268511 169.172167 
" clip-path="url(#p9427bb85b1)" style="fill: none; stroke: #000000; stroke-width: 1.5; stroke-linecap: square"/>
   </g>
   <g id="line2d_31">
    <path d="M 484.395345 184.133543 
L 485.410017 177.012927 
L 486.171021 172.432882 
L 486.678358 170.603103 
L 487.05886 169.913913 
L 487.312528 169.789286 
L 487.566196 169.915407 
L 487.946698 170.520137 
L 488.454034 171.879193 
L 489.59554 175.154885 
L 489.976042 175.72344 
L 490.229711 175.868169 
L 490.483379 175.81796 
L 490.863881 175.397271 
L 491.371217 174.317414 
L 492.893225 170.530028 
L 493.273727 170.19448 
L 493.527395 170.215222 
L 493.781064 170.444704 
L 494.161566 171.175292 
L 494.668902 172.778625 
L 496.82508 180.693287 
L 497.205583 181.148098 
L 497.459251 181.206757 
L 497.712919 181.073405 
L 498.093421 180.538258 
L 498.600757 179.302684 
L 500.630101 173.511016 
L 501.010604 173.251521 
L 501.264272 173.321022 
L 501.644774 173.780214 
L 502.15211 174.962788 
L 503.039948 177.909012 
L 503.927786 180.691645 
L 504.561957 182.025275 
L 505.069293 182.651193 
L 505.576629 182.955615 
L 506.083965 183.012109 
L 506.591301 182.844285 
L 507.098637 182.401832 
L 507.605973 181.580045 
L 508.11331 180.28022 
L 508.74748 177.977547 
L 510.269488 172.022293 
L 510.64999 171.404954 
L 510.903658 171.367874 
L 511.157326 171.663525 
L 511.537829 172.745384 
L 512.045165 175.269964 
L 513.059837 182.211018 
L 513.694007 185.802158 
L 514.074509 187.009836 
L 514.328177 187.312995 
L 514.581845 187.193729 
L 514.835514 186.661028 
L 515.216016 185.160424 
L 515.850186 181.278398 
L 517.372194 171.163949 
L 517.87953 169.215254 
L 518.260033 168.477118 
L 518.513701 168.338152 
L 518.767369 168.473678 
L 519.021037 168.868617 
L 519.401539 169.89859 
L 520.035709 172.527596 
L 522.065054 181.992826 
L 522.57239 183.094728 
L 522.952892 183.363052 
L 523.20656 183.267815 
L 523.587062 182.72733 
L 524.094398 181.345067 
L 524.855402 178.285354 
L 526.123743 172.972749 
L 526.757913 171.29777 
L 527.138415 170.76196 
L 527.518917 170.579765 
L 527.899419 170.731006 
L 528.279921 171.194332 
L 528.787257 172.28176 
L 529.294594 173.92041 
L 529.928764 176.771484 
L 530.816602 181.965606 
L 531.831274 187.736209 
L 532.338611 189.477463 
L 532.592279 189.877895 
L 532.845947 189.922339 
L 533.099615 189.598974 
L 533.480117 188.443107 
L 533.987453 185.824386 
L 535.002125 178.740672 
L 535.763129 174.050875 
L 536.270466 171.987849 
L 536.650968 171.088403 
L 537.03147 170.707111 
L 537.285138 170.702592 
L 537.66564 170.997715 
L 538.172976 171.795358 
L 539.441317 174.514464 
L 540.202321 175.838681 
L 540.709657 176.350113 
L 541.216993 176.521177 
L 541.724329 176.427417 
L 542.612167 176.226164 
L 542.99267 176.404715 
L 543.373172 176.872529 
L 543.880508 178.005365 
L 544.514678 180.132952 
L 546.036686 185.623468 
L 546.544023 186.547425 
L 546.797691 186.718567 
L 547.051359 186.679599 
L 547.305027 186.426484 
L 547.685529 185.652107 
L 548.192865 183.942172 
L 548.953869 180.261207 
L 550.983214 169.499064 
L 551.49055 167.89709 
L 551.871052 167.247954 
L 552.12472 167.11205 
L 552.378388 167.224526 
L 552.632056 167.585 
L 553.012558 168.564877 
L 553.519895 170.553636 
L 555.549239 179.621175 
L 556.056575 180.7542 
L 556.563911 181.342493 
L 557.071248 181.563374 
L 558.593256 181.943408 
L 559.100592 182.39212 
L 559.734762 183.268009 
L 561.510439 186.058353 
L 561.890941 186.139847 
L 562.144609 185.965731 
L 562.525111 185.292784 
L 562.905613 184.07301 
L 563.412949 181.585898 
L 564.173954 176.385127 
L 565.569128 166.440566 
L 566.076464 164.175402 
L 566.456966 163.26314 
L 566.710634 163.063085 
L 566.964302 163.196827 
L 567.21797 163.661804 
L 567.598473 164.956876 
L 568.105809 167.69293 
L 568.866813 173.432096 
L 570.642489 187.882553 
L 571.27666 191.036608 
L 571.657162 192.055213 
L 571.91083 192.346416 
L 572.164498 192.328611 
L 572.418166 192.011612 
L 572.798668 191.013045 
L 573.306004 188.83336 
L 574.067008 184.236143 
L 576.223187 169.985899 
L 576.730523 168.095319 
L 577.111025 167.415286 
L 577.364693 167.353058 
L 577.618361 167.612385 
L 577.998863 168.587247 
L 578.5062 170.846744 
L 579.394038 176.360134 
L 580.281876 181.523848 
L 580.789212 183.359492 
L 581.169714 183.995839 
L 581.423382 184.052679 
L 581.677051 183.827747 
L 582.057553 183.017123 
L 582.564889 181.252262 
L 584.340565 174.304123 
L 584.721067 173.644341 
L 584.974735 173.475484 
L 585.228404 173.529255 
L 585.482072 173.800057 
L 585.862574 174.579052 
L 586.36991 176.175921 
L 588.145586 182.51296 
L 588.526088 183.132692 
L 588.779757 183.286196 
L 589.033425 183.220285 
L 589.287093 182.935078 
L 589.667595 182.118066 
L 590.174931 180.412106 
L 591.189603 175.884857 
L 592.077441 172.383077 
L 592.584778 171.21064 
L 592.96528 170.860257 
L 593.218948 170.889109 
L 593.472616 171.12083 
L 593.853118 171.814973 
L 594.360454 173.266286 
L 595.375126 177.130264 
L 596.516633 181.264518 
L 597.150803 182.755532 
L 597.531305 183.198476 
L 597.784973 183.267848 
L 598.038641 183.141526 
L 598.419143 182.573632 
L 598.799645 181.565756 
L 599.433816 179.085917 
L 601.082658 172.017939 
L 601.46316 171.182498 
L 601.716828 170.914761 
L 601.970496 170.896074 
L 602.224164 171.132203 
L 602.604666 171.955722 
L 603.112003 173.846625 
L 603.873007 177.867239 
L 605.014513 183.939201 
L 605.521849 185.550985 
L 605.902351 186.044489 
L 606.15602 186.006133 
L 606.409688 185.680136 
L 606.79019 184.701887 
L 607.297526 182.688333 
L 609.200036 174.366649 
L 609.707373 173.201157 
L 610.214709 172.597752 
L 610.595211 172.470458 
L 610.975713 172.587983 
L 611.102547 172.677366 
L 611.102547 172.677366 
" clip-path="url(#p9427bb85b1)" style="fill: none; stroke: #000000; stroke-width: 1.5; stroke-linecap: square"/>
   </g>
   <g id="line2d_32">
    <path d="M 611.229381 134.80619 
L 611.483049 134.455677 
L 611.609883 134.697624 
L 611.863551 136.028331 
L 612.244053 140.110406 
L 612.751389 149.158283 
L 613.38556 165.060077 
L 615.668572 228.241052 
L 616.175908 235.660751 
L 616.55641 238.23782 
L 616.683244 238.475992 
L 616.810079 238.394516 
L 617.063747 237.259203 
L 617.317415 234.826163 
L 617.697917 228.807704 
L 618.205253 216.742715 
L 618.966257 192.095526 
L 620.741934 131.465795 
L 621.24927 120.646411 
L 621.629772 115.778188 
L 621.88344 114.1907 
L 622.010274 113.89952 
L 622.137108 113.940448 
L 622.390776 114.99536 
L 622.644444 117.289313 
L 623.024946 122.833639 
L 623.659116 136.573563 
L 624.800623 168.63875 
L 625.942129 199.296024 
L 626.576299 211.880955 
L 627.083635 218.283027 
L 627.464138 220.466497 
L 627.590972 220.64663 
L 627.717806 220.541913 
L 627.971474 219.461038 
L 628.225142 217.207783 
L 628.605644 211.666246 
L 629.11298 200.556921 
L 629.873984 177.81337 
L 631.522827 125.522532 
L 632.030163 115.277448 
L 632.410665 110.762679 
L 632.664333 109.380607 
L 632.791167 109.182021 
L 632.918001 109.307601 
L 633.171669 110.503945 
L 633.552171 114.504609 
L 634.059507 123.333503 
L 634.820512 141.608096 
L 636.596188 186.217527 
L 637.230358 197.019945 
L 637.737694 202.389192 
L 638.118197 204.240863 
L 638.245031 204.420738 
L 638.371865 204.378083 
L 638.625533 203.623889 
L 638.879201 201.989014 
L 639.259703 197.964877 
L 639.767039 190.031707 
L 640.654877 171.619752 
L 641.796384 148.320158 
L 642.30372 141.315921 
L 642.684222 138.287247 
L 642.93789 137.503472 
L 643.064724 137.509025 
L 643.191558 137.788185 
L 643.445226 139.183887 
L 643.825728 143.381258 
L 644.333064 152.698025 
L 644.967235 169.08989 
L 646.616077 213.892755 
L 647.123413 221.066515 
L 647.377081 222.715417 
L 647.503915 223.035107 
L 647.630749 223.019835 
L 647.884417 222.010874 
L 648.264919 218.236684 
L 648.772256 209.809015 
L 650.8016 171.038674 
L 651.182102 167.96308 
L 651.43577 166.990434 
L 651.689438 166.818546 
L 651.943107 167.348769 
L 652.323609 169.169293 
L 654.099285 179.72723 
L 654.352953 180.109404 
L 654.606621 180.103895 
L 654.860289 179.75387 
L 655.240791 178.736064 
L 656.382298 175.110376 
L 656.635966 174.787931 
L 656.889634 174.792072 
L 657.143302 175.154818 
L 657.523804 176.385471 
L 658.03114 179.192363 
L 658.792144 185.081289 
L 659.933651 193.901414 
L 660.440987 196.217973 
L 660.694655 196.720407 
L 660.821489 196.778118 
L 660.948323 196.69706 
L 661.201991 196.095072 
L 661.582493 194.032827 
L 661.962995 190.558873 
L 662.470332 183.920753 
L 663.35817 168.779693 
L 664.372842 152.384559 
L 664.880178 147.131412 
L 665.26068 145.103293 
L 665.514348 144.743511 
L 665.641182 144.86465 
L 665.89485 145.695897 
L 666.275353 148.321513 
L 666.782689 153.951476 
L 668.051029 172.356227 
L 668.812033 181.223678 
L 669.319369 184.853586 
L 669.699872 186.231834 
L 669.95354 186.514159 
L 670.080374 186.470022 
L 670.334042 186.026134 
L 670.714544 184.53318 
L 671.22188 181.239619 
L 672.236552 172.341984 
L 672.870722 167.505125 
L 673.251225 165.72965 
L 673.504893 165.191935 
L 673.631727 165.136593 
L 673.758561 165.227972 
L 674.012229 165.851425 
L 674.392731 167.83463 
L 674.900067 172.077244 
L 676.54891 187.860792 
L 676.929412 189.729228 
L 677.18308 190.359972 
L 677.436748 190.48783 
L 677.690416 190.12708 
L 678.070918 188.746614 
L 678.578254 185.635188 
L 680.480765 172.181402 
L 680.734433 171.552799 
L 680.988101 171.411243 
L 681.241769 171.76388 
L 681.622271 173.15253 
L 682.129607 176.212086 
L 683.144279 182.807846 
L 683.524782 184.104772 
L 683.77845 184.356402 
L 683.905284 184.283512 
L 684.158952 183.740361 
L 684.539454 182.008153 
L 685.173624 177.438451 
L 685.934628 171.958968 
L 686.31513 170.500423 
L 686.568798 170.317099 
L 686.822466 170.864922 
L 687.076135 172.180206 
L 687.456637 175.551656 
L 688.090807 184.146635 
L 689.359147 202.707036 
L 689.739649 205.768363 
L 689.993317 206.7086 
L 690.120151 206.824075 
L 690.246985 206.699352 
L 690.500653 205.736885 
L 690.881156 202.612571 
L 691.388492 195.852407 
L 692.529998 175.797121 
L 693.291002 164.320851 
L 693.798338 159.280444 
L 694.178841 157.101155 
L 694.432509 156.387798 
L 694.686177 156.210931 
L 694.939845 156.499575 
L 695.320347 157.615815 
L 695.954517 160.510964 
L 697.222857 166.343419 
L 698.23753 170.873247 
L 698.998534 175.665896 
L 700.393708 185.000574 
L 700.77421 186.279895 
L 701.027878 186.61343 
L 701.281547 186.51464 
L 701.535215 186.002675 
L 701.915717 184.572355 
L 702.676721 180.397708 
L 703.437725 176.738598 
L 703.818227 175.732429 
L 704.198729 175.335978 
L 704.452397 175.338455 
L 705.340236 175.695182 
L 705.593904 175.50476 
L 705.847572 175.041247 
L 706.228074 173.751907 
L 706.73541 170.942077 
L 708.637921 158.47805 
L 708.891589 158.007919 
L 709.018423 157.97167 
L 709.145257 158.076854 
L 709.398925 158.730176 
L 709.779427 160.85338 
L 710.286763 165.761386 
L 710.920933 174.572933 
L 712.316108 194.899004 
L 712.69661 198.059205 
L 712.950278 199.199682 
L 713.203946 199.519609 
L 713.33078 199.373096 
L 713.584448 198.493423 
L 713.96495 195.864029 
L 714.59912 189.043477 
L 715.867461 174.842812 
L 716.374797 171.518647 
L 716.755299 170.173067 
L 717.008967 169.755726 
L 717.262635 169.6509 
L 717.516303 169.78881 
L 717.896805 170.303974 
L 718.657809 171.860874 
L 719.29198 173.542465 
L 719.799316 175.491809 
L 720.306652 178.416053 
L 720.940822 183.772947 
L 722.716499 200.723074 
L 722.970167 201.580416 
L 723.097001 201.726474 
L 723.223835 201.671629 
L 723.477503 200.934986 
L 723.731171 199.349737 
L 724.111673 195.440099 
L 724.619009 187.808951 
L 726.648354 153.928261 
L 727.028856 151.128626 
L 727.282524 150.214855 
L 727.536192 150.041509 
L 727.78986 150.56462 
L 728.170362 152.529213 
L 728.677698 157.041799 
L 729.311869 165.214295 
L 730.072873 178.121289 
L 731.848549 210.658308 
L 732.229051 214.355338 
L 732.482719 215.485194 
L 732.609553 215.604471 
L 732.736388 215.413145 
L 732.990056 214.078499 
L 733.370558 209.709121 
L 733.877894 199.861411 
L 734.638898 179.147555 
L 735.907238 144.468642 
L 736.414575 135.772502 
L 736.795077 132.31533 
L 737.048745 131.598826 
L 737.175579 131.726223 
L 737.429247 132.94477 
L 737.809749 137.093918 
L 737.936583 139.05696 
L 737.936583 139.05696 
" clip-path="url(#p9427bb85b1)" style="fill: none; stroke: #000000; stroke-width: 1.5; stroke-linecap: square"/>
   </g>
   <g id="line2d_33">
    <path d="M 738.063417 171.116189 
L 739.204923 189.903042 
L 739.712259 195.422219 
L 740.092762 197.74832 
L 740.34643 198.364353 
L 740.473264 198.39165 
L 740.600098 198.235625 
L 740.853766 197.396256 
L 741.234268 194.941428 
L 741.741604 189.903662 
L 743.897783 165.527581 
L 744.278285 163.749009 
L 744.531953 163.251656 
L 744.658787 163.236476 
L 744.912455 163.612562 
L 745.292957 165.079163 
L 745.927127 169.041323 
L 746.9418 175.649355 
L 747.57597 178.38824 
L 748.083306 179.644166 
L 748.463808 180.109842 
L 748.84431 180.238256 
L 749.224812 180.066853 
L 749.605314 179.623677 
L 750.11265 178.583767 
L 750.619987 177.016678 
L 751.254157 174.24034 
L 752.015161 169.744939 
L 753.917672 157.694095 
L 754.298174 156.69203 
L 754.551842 156.541927 
L 754.80551 156.834708 
L 755.059178 157.577993 
L 755.43968 159.473553 
L 756.07385 164.237335 
L 757.722693 177.797026 
L 758.356863 181.139732 
L 758.991033 183.321989 
L 759.498369 184.428423 
L 760.005705 185.073847 
L 760.386207 185.265357 
L 760.766709 185.185765 
L 761.147212 184.810884 
L 761.527714 184.116844 
L 762.03505 182.676088 
L 762.66922 180.059134 
L 763.430224 175.845535 
L 765.966905 160.562379 
L 766.347407 159.839867 
L 766.601075 159.82339 
L 766.854743 160.202807 
L 767.235245 161.515462 
L 767.742581 164.53136 
L 768.503586 170.879567 
L 769.518258 179.264005 
L 770.025594 181.892009 
L 770.406096 182.796908 
L 770.659764 182.855731 
L 770.913432 182.490358 
L 771.293934 181.225423 
L 771.801271 178.515504 
L 773.196445 170.178408 
L 773.576947 168.930128 
L 773.830615 168.517314 
L 774.084283 168.459494 
L 774.337951 168.754915 
L 774.718453 169.820065 
L 775.22579 172.218144 
L 776.113628 177.973716 
L 777.1283 184.297355 
L 777.76247 186.863366 
L 778.142972 187.701745 
L 778.523475 188.004032 
L 778.777143 187.922131 
L 779.157645 187.408174 
L 779.538147 186.470312 
L 780.045483 184.641476 
L 780.806487 180.846468 
L 781.821159 174.37542 
L 783.216334 165.542499 
L 783.850504 162.979716 
L 784.231006 162.193593 
L 784.484674 162.023477 
L 784.738342 162.145182 
L 784.99201 162.556016 
L 785.372512 163.686579 
L 785.879849 166.028899 
L 786.640853 170.765111 
L 788.416529 182.162161 
L 789.0507 184.95286 
L 789.558036 186.423375 
L 789.938538 187.032858 
L 790.192206 187.191698 
L 790.445874 187.147566 
L 790.699542 186.898349 
L 791.080044 186.140234 
L 791.58738 184.426899 
L 792.22155 181.236226 
L 793.109389 175.293126 
L 794.250895 167.618641 
L 794.758231 165.501038 
L 795.011899 164.969682 
L 795.265567 164.846333 
L 795.519235 165.153628 
L 795.772903 165.895829 
L 796.153406 167.786928 
L 796.660742 171.540077 
L 798.943754 190.730764 
L 799.324256 192.038769 
L 799.577925 192.427938 
L 799.831593 192.428987 
L 800.085261 192.051815 
L 800.465763 190.820574 
L 800.973099 188.094253 
L 801.734103 182.339278 
L 803.50978 168.07511 
L 804.14395 164.956881 
L 804.524452 163.894774 
L 804.904954 163.453204 
L 805.158622 163.486298 
L 805.41229 163.758911 
L 805.792792 164.559582 
L 806.300128 166.199848 
L 807.187967 169.972385 
L 809.851481 181.760576 
L 810.612486 184.203581 
L 811.119822 185.161693 
L 811.500324 185.413954 
L 811.753992 185.33929 
L 812.134494 184.862644 
L 812.514996 183.981007 
L 813.149166 181.824522 
L 814.544341 176.765883 
L 814.924843 176.071377 
L 815.178511 175.902997 
L 815.432179 175.993363 
L 815.685847 176.34612 
L 816.066349 177.335235 
L 816.700519 179.890531 
L 817.715192 184.191554 
L 818.095694 185.157853 
L 818.349362 185.480449 
L 818.60303 185.523456 
L 818.856698 185.28578 
L 819.2372 184.436192 
L 819.744536 182.542793 
L 820.632375 178.061498 
L 821.900715 171.802876 
L 822.788553 168.554762 
L 823.803225 165.748817 
L 824.817898 163.534404 
L 825.325234 162.896745 
L 825.578902 162.804875 
L 825.83257 162.915059 
L 826.086238 163.263069 
L 826.46674 164.296524 
L 826.847242 166.001776 
L 827.354578 169.343415 
L 827.988749 175.050251 
L 829.257089 189.144235 
L 830.144927 198.069298 
L 830.652263 201.651522 
L 831.032765 203.253317 
L 831.286434 203.706019 
L 831.413268 203.730975 
L 831.666936 203.356909 
L 831.920604 202.397969 
L 832.301106 199.849286 
L 832.808442 194.489013 
L 833.569446 183.248581 
L 834.964621 161.633952 
L 835.471957 156.535157 
L 835.852459 154.319229 
L 836.106127 153.662649 
L 836.232961 153.580812 
L 836.359795 153.660474 
L 836.613463 154.287826 
L 836.993965 156.310276 
L 837.501301 160.684422 
L 838.38914 171.066199 
L 839.403812 182.711381 
L 840.037982 187.52811 
L 840.418484 189.026321 
L 840.672152 189.389713 
L 840.798986 189.380153 
L 841.052654 188.989446 
L 841.433156 187.541374 
L 841.940493 184.296887 
L 844.096671 168.425311 
L 844.477173 167.497537 
L 844.730841 167.373668 
L 844.984509 167.643413 
L 845.238177 168.290835 
L 845.61868 169.908302 
L 846.25285 173.981758 
L 848.409028 189.788443 
L 848.916365 191.526204 
L 849.170033 191.903755 
L 849.423701 191.931439 
L 849.677369 191.599672 
L 850.057871 190.422147 
L 850.565207 187.622764 
L 851.199377 182.42576 
L 853.228722 164.000043 
L 853.609224 162.438486 
L 853.862892 161.96713 
L 854.11656 161.959952 
L 854.370228 162.402918 
L 854.75073 163.838936 
L 855.258066 166.923984 
L 856.272739 175.12115 
L 857.287411 182.581837 
L 857.921581 185.613389 
L 858.428917 186.954298 
L 858.809419 187.380675 
L 859.063087 187.432229 
L 859.44359 187.233189 
L 859.950926 186.606671 
L 860.838764 185.009109 
L 861.599768 183.263203 
L 862.233938 181.206106 
L 862.741274 178.830756 
L 863.375445 174.636908 
L 864.263283 166.744952 
L 864.770619 162.025169 
L 864.770619 162.025169 
" clip-path="url(#p9427bb85b1)" style="fill: none; stroke: #000000; stroke-width: 1.5; stroke-linecap: square"/>
   </g>
   <g id="line2d_34">
    <path d="M 864.897453 186.788753 
L 865.277955 187.766777 
L 865.404789 187.868828 
L 865.531623 187.820749 
L 865.785291 187.191998 
L 866.038959 185.740628 
L 866.419462 181.811785 
L 866.926798 173.148542 
L 867.560968 157.466051 
L 869.336644 108.948909 
L 869.717146 103.579553 
L 869.970815 101.873518 
L 870.097649 101.625368 
L 870.224483 101.789767 
L 870.478151 103.362421 
L 870.858653 108.713166 
L 871.365989 120.672553 
L 872.126993 145.216021 
L 873.775836 199.263649 
L 874.663674 220.901147 
L 875.424678 234.090074 
L 875.932014 239.256776 
L 876.185682 240.427688 
L 876.312516 240.603929 
L 876.43935 240.486062 
L 876.693018 239.306232 
L 876.946687 236.775983 
L 877.327189 230.268711 
L 877.834525 216.384928 
L 878.468695 191.387339 
L 880.751708 90.480082 
L 881.13221 83.426649 
L 881.385878 81.527338 
L 881.512712 81.453323 
L 881.639546 81.967534 
L 881.893214 84.746734 
L 882.273716 93.114106 
L 882.781052 111.161102 
L 883.542056 148.367467 
L 884.937231 218.418486 
L 885.571401 238.61062 
L 885.951903 245.070127 
L 886.205571 246.838876 
L 886.332405 246.960568 
L 886.459239 246.581437 
L 886.712907 244.366582 
L 887.093409 237.656428 
L 887.600746 223.382885 
L 888.488584 189.327059 
L 889.756924 140.587723 
L 890.391094 124.021284 
L 890.89843 116.590175 
L 891.152099 114.978299 
L 891.278933 114.700789 
L 891.405767 114.770778 
L 891.659435 115.926283 
L 892.039937 120.046765 
L 892.547273 129.393995 
L 893.308277 149.161569 
L 894.95712 193.829124 
L 895.59129 204.456917 
L 895.971792 208.227978 
L 896.352294 210.109038 
L 896.605962 210.416738 
L 896.732796 210.318718 
L 896.986464 209.682056 
L 897.366966 207.824217 
L 898.001137 203.193978 
L 900.284149 185.169847 
L 901.425655 176.014763 
L 902.567162 164.451555 
L 903.581834 154.54475 
L 904.08917 151.155706 
L 904.469672 149.694898 
L 904.72334 149.295002 
L 904.850174 149.27033 
L 905.103843 149.564716 
L 905.357511 150.295004 
L 905.738013 152.115115 
L 906.372183 156.593211 
L 908.528361 173.405008 
L 909.162532 176.274698 
L 909.669868 177.707946 
L 910.304038 178.790431 
L 911.065042 179.956538 
L 911.572378 181.196944 
L 912.079715 183.082714 
L 912.713885 186.438259 
L 914.743229 198.526229 
L 914.996897 198.968793 
L 915.123731 199.012232 
L 915.377399 198.721357 
L 915.631068 197.921586 
L 916.01157 195.82942 
L 916.64574 190.621747 
L 917.660412 182.08654 
L 918.167748 179.576897 
L 918.54825 178.660346 
L 918.928752 178.307588 
L 919.436089 177.93283 
L 919.689757 177.427043 
L 919.943425 176.50436 
L 920.323927 174.08314 
L 920.831263 168.633405 
L 921.465433 158.709537 
L 922.733774 137.944483 
L 923.114276 134.352295 
L 923.367944 133.110538 
L 923.494778 132.865228 
L 923.621612 132.877006 
L 923.87528 133.679214 
L 924.128948 135.505473 
L 924.50945 140.05906 
L 925.016786 149.080021 
L 925.77779 167.101393 
L 927.680301 214.087627 
L 928.187637 221.769827 
L 928.568139 225.060032 
L 928.821807 225.9463 
L 928.948641 225.985015 
L 929.075475 225.75387 
L 929.329143 224.496215 
L 929.709646 220.735116 
L 930.216982 212.78224 
L 931.231654 191.594526 
L 932.246326 172.275341 
L 932.880496 164.179976 
L 933.387833 160.076747 
L 933.895169 157.589154 
L 934.529339 155.65724 
L 935.290343 153.295689 
L 936.051347 149.924828 
L 936.812352 146.625511 
L 937.192854 145.822986 
L 937.319688 145.775042 
L 937.446522 145.858965 
L 937.70019 146.468012 
L 937.953858 147.729074 
L 938.33436 150.956627 
L 938.841696 157.827241 
L 939.475866 170.147669 
L 940.617373 198.273956 
L 941.632045 221.235709 
L 942.139381 229.071752 
L 942.519883 232.611582 
L 942.773551 233.713258 
L 942.900385 233.867702 
L 943.027219 233.75338 
L 943.280887 232.712614 
L 943.661389 229.145785 
L 944.168726 220.874776 
L 944.802896 205.78308 
L 945.817568 174.738903 
L 947.339577 127.791168 
L 947.973747 113.677775 
L 948.481083 106.541288 
L 948.861585 104.085338 
L 948.988419 103.862237 
L 949.115253 103.946139 
L 949.368921 105.05033 
L 949.622589 107.414086 
L 950.003091 113.303009 
L 950.510427 125.310515 
L 951.144598 146.006678 
L 952.539772 202.043903 
L 953.42761 233.134408 
L 954.06178 248.31769 
L 954.569117 255.214816 
L 954.822785 256.844258 
L 955.076453 257.277261 
L 955.203287 257.055709 
L 955.456955 255.767089 
L 955.837457 251.835377 
L 956.344793 243.254342 
L 956.978963 228.140009 
L 957.993636 197.238205 
L 960.65715 112.025249 
L 961.291321 98.303915 
L 961.798657 91.693842 
L 962.052325 90.217971 
L 962.179159 89.989779 
L 962.305993 90.117605 
L 962.559661 91.479906 
L 962.813329 94.359189 
L 963.193831 101.545506 
L 963.701167 116.227474 
L 964.462171 147.124735 
L 966.61835 243.461167 
L 967.125686 257.145261 
L 967.506188 263.491208 
L 967.759856 265.730699 
L 968.013524 266.3432 
L 968.140358 266.038103 
L 968.394027 264.21651 
L 968.774529 258.535406 
L 969.281865 245.845498 
L 969.916035 223.119957 
L 971.184375 165.992365 
L 972.199048 125.219674 
L 972.833218 108.726599 
L 973.21372 103.336507 
L 973.467388 101.779628 
L 973.594222 101.621748 
L 973.721056 101.876602 
L 973.974724 103.606159 
L 974.355226 109.124747 
L 974.862562 121.373432 
L 975.496733 142.825793 
L 977.018741 205.57963 
L 977.906579 237.338425 
L 978.540749 252.745366 
L 978.921252 257.911479 
L 979.17492 259.376461 
L 979.301754 259.474226 
L 979.428588 259.134432 
L 979.682256 257.110733 
L 980.062758 250.654893 
L 980.570094 235.767068 
L 981.204264 208.171054 
L 982.218936 150.803405 
L 983.360443 88.01009 
L 983.994613 64.801087 
L 984.375115 57.474712 
L 984.628783 55.8 
L 984.755617 55.978481 
L 985.009285 58.411893 
L 985.262953 63.615706 
L 985.643455 76.442288 
L 986.150792 101.912586 
L 986.911796 152.844304 
L 988.433804 258.80956 
L 989.067974 288.854579 
L 989.575311 303.04011 
L 989.955813 307.492764 
L 990.082647 307.8 
L 990.209481 307.530977 
L 990.463149 305.310001 
L 990.843651 298.012794 
L 991.350987 281.759776 
L 991.604655 271.291509 
L 991.604655 271.291509 
" clip-path="url(#p9427bb85b1)" style="fill: none; stroke: #000000; stroke-width: 1.5; stroke-linecap: square"/>
   </g>
   <g id="line2d_35">
    <path d="M 991.731489 191.139142 
L 992.746161 176.352195 
L 993.507166 166.652272 
L 994.014502 162.799736 
L 994.26817 161.885301 
L 994.521838 161.670031 
L 994.775506 162.128179 
L 995.156008 163.935955 
L 995.663344 167.893025 
L 997.058519 179.615514 
L 997.439021 181.213213 
L 997.692689 181.696996 
L 997.946357 181.720361 
L 998.200025 181.317271 
L 998.580527 180.041809 
L 999.214697 176.807578 
L 1000.102536 172.408921 
L 1000.483038 171.376634 
L 1000.736706 171.129456 
L 1000.990374 171.273226 
L 1001.244042 171.816765 
L 1001.624544 173.345195 
L 1002.13188 176.469271 
L 1003.780723 187.679257 
L 1004.161225 188.890352 
L 1004.414893 189.225062 
L 1004.668561 189.168252 
L 1004.922229 188.724396 
L 1005.302731 187.374015 
L 1005.810067 184.478497 
L 1006.697905 177.654499 
L 1007.585744 171.344183 
L 1008.09308 169.192717 
L 1008.346748 168.674939 
L 1008.600416 168.551868 
L 1008.854084 168.815628 
L 1009.234586 169.872431 
L 1009.741922 172.246452 
L 1011.517599 181.771856 
L 1012.024935 183.210259 
L 1012.532271 183.955691 
L 1012.912773 184.163006 
L 1013.293275 184.143598 
L 1013.673777 183.926361 
L 1014.05428 183.489388 
L 1014.434782 182.76231 
L 1014.942118 181.167873 
L 1015.449454 178.666658 
L 1016.083624 174.232423 
L 1017.478798 163.529991 
L 1017.859301 162.102941 
L 1018.112969 161.870155 
L 1018.239803 161.997991 
L 1018.493471 162.7707 
L 1018.873973 165.23785 
L 1019.381309 170.740638 
L 1021.28382 195.20188 
L 1021.537488 196.361161 
L 1021.791156 196.667926 
L 1021.91799 196.499571 
L 1022.171658 195.541752 
L 1022.55216 192.700117 
L 1023.059496 186.918983 
L 1024.708339 166.028051 
L 1025.215675 162.494077 
L 1025.596177 161.272281 
L 1025.849845 161.149726 
L 1026.103513 161.561041 
L 1026.484015 163.102362 
L 1026.991351 166.610199 
L 1027.752355 173.8564 
L 1029.020696 185.851698 
L 1029.528032 188.922726 
L 1029.908534 190.204358 
L 1030.162202 190.524966 
L 1030.41587 190.407851 
L 1030.669538 189.857742 
L 1031.05004 188.262521 
L 1031.557376 184.891052 
L 1032.445215 176.895431 
L 1033.459887 168.0238 
L 1034.094057 164.35928 
L 1034.474559 163.108079 
L 1034.855061 162.570687 
L 1035.10873 162.58869 
L 1035.362398 162.891158 
L 1035.7429 163.856608 
L 1036.250236 166.093171 
L 1036.757572 169.467037 
L 1037.391742 175.330525 
L 1038.406414 187.370084 
L 1039.167419 195.692236 
L 1039.674755 199.136729 
L 1039.928423 199.918494 
L 1040.055257 200.045145 
L 1040.182091 199.989746 
L 1040.435759 199.32864 
L 1040.816261 197.007104 
L 1041.323597 191.793812 
L 1043.479776 165.916118 
L 1043.860278 164.047016 
L 1044.24078 163.258705 
L 1044.494448 163.259612 
L 1044.748116 163.612014 
L 1045.128618 164.655445 
L 1045.762789 167.23422 
L 1047.157963 173.111094 
L 1047.665299 174.447701 
L 1048.045801 175.008315 
L 1048.426303 175.188748 
L 1048.806805 175.05596 
L 1049.821478 174.388184 
L 1050.075146 174.494073 
L 1050.328814 174.833414 
L 1050.709316 175.871163 
L 1051.089818 177.5964 
L 1051.723988 181.842397 
L 1053.499665 195.084276 
L 1053.880167 196.480418 
L 1054.133835 196.92473 
L 1054.387503 196.956755 
L 1054.641171 196.571203 
L 1055.021673 195.228815 
L 1055.529009 192.139737 
L 1056.163179 186.645594 
L 1058.573026 163.801354 
L 1059.080362 161.477312 
L 1059.33403 160.92995 
L 1059.587698 160.828913 
L 1059.841367 161.184036 
L 1060.095035 161.986769 
L 1060.475537 163.961001 
L 1061.109707 168.793151 
L 1062.504881 180.069211 
L 1063.012217 182.528872 
L 1063.39272 183.594461 
L 1063.773222 184.086624 
L 1064.153724 184.160417 
L 1064.66106 183.921616 
L 1065.29523 183.63541 
L 1065.675732 183.691561 
L 1066.056234 184.011295 
L 1066.436736 184.628961 
L 1066.944073 185.914754 
L 1067.705077 188.6065 
L 1068.719749 192.142943 
L 1069.100251 192.807515 
L 1069.353919 192.872768 
L 1069.607587 192.563977 
L 1069.861255 191.8304 
L 1070.241757 189.860159 
L 1070.749094 185.582321 
L 1071.383264 177.997639 
L 1073.032106 156.741864 
L 1073.539442 153.041133 
L 1073.919945 151.779986 
L 1074.046779 151.668665 
L 1074.173613 151.714711 
L 1074.427281 152.279466 
L 1074.807783 154.287368 
L 1075.315119 158.982714 
L 1075.949289 167.507508 
L 1078.359136 203.332924 
L 1078.866472 206.714828 
L 1079.12014 207.496146 
L 1079.373808 207.65963 
L 1079.627476 207.217894 
L 1079.881144 206.198915 
L 1080.261646 203.68113 
L 1080.768982 198.770313 
L 1081.656821 187.379204 
L 1083.305663 165.769665 
L 1083.812999 161.414414 
L 1084.193501 159.461103 
L 1084.44717 158.88001 
L 1084.574004 158.817889 
L 1084.700838 158.910479 
L 1084.954506 159.558767 
L 1085.335008 161.644986 
L 1085.842344 166.219369 
L 1086.857016 178.538761 
L 1087.61802 186.595624 
L 1088.125357 189.746282 
L 1088.379025 190.467207 
L 1088.632693 190.596448 
L 1088.886361 190.150969 
L 1089.266863 188.501639 
L 1089.774199 184.844258 
L 1091.67671 168.893681 
L 1092.057212 167.48682 
L 1092.31088 167.111734 
L 1092.437714 167.097444 
L 1092.691382 167.410706 
L 1092.94505 168.159994 
L 1093.325552 170.011911 
L 1093.959722 174.520129 
L 1095.354897 184.984751 
L 1095.862233 186.966509 
L 1096.115901 187.349728 
L 1096.369569 187.299035 
L 1096.623237 186.815515 
L 1097.003739 185.324546 
L 1097.511075 182.130375 
L 1098.525748 173.589847 
L 1099.286752 167.802303 
L 1099.794088 165.346576 
L 1100.17459 164.517372 
L 1100.428258 164.482471 
L 1100.681926 164.85593 
L 1101.062428 166.126106 
L 1101.569764 168.92003 
L 1102.457603 175.589248 
L 1103.725943 185.089534 
L 1104.360113 188.318218 
L 1104.740615 189.404057 
L 1104.994283 189.694313 
L 1105.247951 189.602689 
L 1105.50162 189.110383 
L 1105.882122 187.613926 
L 1106.389458 184.311355 
L 1107.150462 177.433701 
L 1108.165134 168.286508 
L 1108.67247 165.346759 
L 1109.052973 164.299536 
L 1109.306641 164.221581 
L 1109.560309 164.656251 
L 1109.940811 166.253212 
L 1110.448147 169.97914 
L 1111.209151 177.941536 
L 1112.350657 189.885978 
L 1112.857994 192.982684 
L 1113.111662 193.721343 
L 1113.36533 193.876738 
L 1113.618998 193.451665 
L 1113.9995 191.801905 
L 1114.506836 188.075861 
L 1116.536181 170.631053 
L 1117.043517 168.449852 
L 1117.424019 167.554187 
L 1117.804521 167.217702 
L 1118.058189 167.268332 
L 1118.438691 167.712669 
L 1118.438691 167.712669 
" clip-path="url(#p9427bb85b1)" style="fill: none; stroke: #000000; stroke-width: 1.5; stroke-linecap: square"/>
   </g>
   <g id="line2d_36">
    <path d="M 1118.565525 123.847244 
L 1118.692359 123.47812 
L 1118.819193 123.453305 
L 1118.946027 123.769697 
L 1119.199695 125.454018 
L 1119.580198 130.572122 
L 1120.087534 141.859867 
L 1120.721704 161.66848 
L 1123.004716 240.152275 
L 1123.512053 249.336945 
L 1123.892555 252.51054 
L 1124.019389 252.79517 
L 1124.146223 252.680181 
L 1124.399891 251.226943 
L 1124.653559 248.13179 
L 1125.034061 240.452643 
L 1125.541397 224.926346 
L 1126.302401 192.687925 
L 1128.204912 106.043597 
L 1128.712248 92.305942 
L 1129.09275 86.555151 
L 1129.346418 85.046543 
L 1129.473252 84.998301 
L 1129.600086 85.416915 
L 1129.853754 87.626586 
L 1130.234257 94.188824 
L 1130.741593 108.235637 
L 1131.502597 137.480941 
L 1133.78561 231.329677 
L 1134.41978 246.635441 
L 1134.800282 251.683474 
L 1135.05395 253.110046 
L 1135.180784 253.215305 
L 1135.307618 252.908036 
L 1135.561286 251.047452 
L 1135.941788 245.176069 
L 1136.449124 231.96797 
L 1137.083295 208.429647 
L 1139.239473 120.729942 
L 1139.746809 110.59753 
L 1140.000477 108.07681 
L 1140.254145 107.297117 
L 1140.380979 107.551604 
L 1140.634648 109.304745 
L 1141.01515 114.830917 
L 1141.522486 126.775906 
L 1142.28349 151.245443 
L 1143.932332 206.44673 
L 1144.566503 220.946507 
L 1145.073839 228.017162 
L 1145.454341 230.304176 
L 1145.581175 230.459068 
L 1145.708009 230.304054 
L 1145.961677 229.060029 
L 1146.342179 224.88812 
L 1146.849515 215.310417 
L 1147.483685 198.153007 
L 1149.51303 137.538391 
L 1150.020366 129.404197 
L 1150.400868 126.753337 
L 1150.527702 126.588368 
L 1150.654536 126.794372 
L 1150.908204 128.32979 
L 1151.288707 133.409206 
L 1151.796043 144.954676 
L 1152.557047 169.710379 
L 1153.825387 212.27962 
L 1154.332723 222.733642 
L 1154.713226 226.458471 
L 1154.84006 226.852278 
L 1154.966894 226.818821 
L 1155.220562 225.494456 
L 1155.47423 222.579215 
L 1155.854732 215.594306 
L 1156.488902 199.065254 
L 1157.757242 164.546301 
L 1158.264579 155.806695 
L 1158.645081 152.102638 
L 1158.898749 150.974409 
L 1159.025583 150.784146 
L 1159.152417 150.823489 
L 1159.406085 151.518333 
L 1159.786587 153.782184 
L 1160.801259 162.553965 
L 1161.435429 166.672164 
L 1161.815932 167.981705 
L 1162.0696 168.3806 
L 1162.323268 168.467314 
L 1162.70377 168.208803 
L 1163.33794 167.66311 
L 1163.591608 167.73348 
L 1163.845276 168.114954 
L 1164.098944 168.877979 
L 1164.479446 170.829403 
L 1164.986782 174.962966 
L 1165.620953 182.179679 
L 1167.523463 205.490897 
L 1167.903965 207.975686 
L 1168.157633 208.82518 
L 1168.284467 208.976432 
L 1168.411301 208.933319 
L 1168.664969 208.235938 
L 1168.918638 206.691938 
L 1169.29914 202.771125 
L 1169.806476 194.757125 
L 1170.56748 178.503752 
L 1171.708986 153.874994 
L 1172.216322 146.585663 
L 1172.596825 143.534347 
L 1172.850493 142.773074 
L 1172.977327 142.782045 
L 1173.230995 143.567348 
L 1173.484663 145.333527 
L 1173.865165 149.628465 
L 1174.499335 160.045184 
L 1176.021344 187.160446 
L 1176.52868 192.896724 
L 1176.909182 195.510626 
L 1177.16285 196.420647 
L 1177.416518 196.670229 
L 1177.543352 196.552703 
L 1177.79702 195.850151 
L 1178.177522 193.70442 
L 1178.684858 189.124348 
L 1180.714203 168.209432 
L 1180.967871 167.446433 
L 1181.094705 167.331529 
L 1181.221539 167.397288 
L 1181.475207 168.064136 
L 1181.855709 170.310109 
L 1182.363045 175.129686 
L 1183.885054 190.991571 
L 1184.265556 192.808577 
L 1184.519224 193.238855 
L 1184.646058 193.21174 
L 1184.899726 192.678253 
L 1185.280228 190.74418 
L 1185.787564 186.377683 
L 1186.675403 175.987885 
L 1187.563241 166.554295 
L 1188.070577 163.543735 
L 1188.324245 162.94662 
L 1188.451079 162.887017 
L 1188.577913 162.984721 
L 1188.831581 163.63074 
L 1189.212083 165.579645 
L 1189.973088 171.41696 
L 1190.607258 175.659525 
L 1190.98776 176.894685 
L 1191.114594 177.015717 
L 1191.241428 176.982423 
L 1191.495096 176.453 
L 1191.875598 174.584469 
L 1192.509768 169.512633 
L 1193.270772 163.602436 
L 1193.651275 162.30421 
L 1193.778109 162.262502 
L 1193.904943 162.442196 
L 1194.158611 163.505336 
L 1194.539113 166.912256 
L 1195.046449 174.585009 
L 1195.934287 193.081473 
L 1196.695291 207.445882 
L 1197.075794 211.935737 
L 1197.329462 213.537565 
L 1197.58313 213.927136 
L 1197.709964 213.659758 
L 1197.963632 212.219821 
L 1198.344134 207.959402 
L 1198.85147 199.12094 
L 1201.007649 156.550822 
L 1201.514985 152.086355 
L 1201.895487 150.683668 
L 1202.149155 150.580802 
L 1202.402823 151.046239 
L 1202.783325 152.584552 
L 1203.417495 156.490969 
L 1205.44684 171.090456 
L 1206.207844 178.544453 
L 1207.729853 194.477287 
L 1208.110355 196.698658 
L 1208.364023 197.475612 
L 1208.617691 197.661351 
L 1208.871359 197.273773 
L 1209.251861 195.747279 
L 1209.886031 191.546502 
L 1210.773869 185.561125 
L 1211.281206 183.533662 
L 1211.661708 182.793113 
L 1212.169044 182.398029 
L 1212.549546 182.047255 
L 1212.803214 181.559835 
L 1213.183716 180.201533 
L 1213.564218 177.921378 
L 1214.071554 173.450718 
L 1215.974065 154.262897 
L 1216.227733 153.291377 
L 1216.481401 153.033079 
L 1216.608235 153.190455 
L 1216.861903 154.101615 
L 1217.242405 156.9746 
L 1217.749741 163.443246 
L 1218.510746 177.196318 
L 1219.525418 195.74587 
L 1220.032754 201.504516 
L 1220.286422 202.966774 
L 1220.54009 203.394842 
L 1220.666924 203.219507 
L 1220.920592 202.117637 
L 1221.301094 198.768471 
L 1221.808431 191.926009 
L 1223.330439 169.604398 
L 1223.837775 165.424861 
L 1224.218277 163.703669 
L 1224.598779 162.991428 
L 1224.852447 162.945947 
L 1225.106116 163.149547 
L 1225.486618 163.773547 
L 1226.120788 165.350958 
L 1226.628124 167.141345 
L 1227.13546 169.79974 
L 1227.642796 173.815316 
L 1228.276966 181.117647 
L 1230.052643 204.432478 
L 1230.306311 205.772629 
L 1230.559979 206.119464 
L 1230.686813 205.89154 
L 1230.940481 204.602754 
L 1231.320983 200.601304 
L 1231.828319 191.806709 
L 1232.716158 170.716401 
L 1233.603996 150.818932 
L 1234.111332 143.348978 
L 1234.491834 140.281679 
L 1234.745502 139.484108 
L 1234.872336 139.450104 
L 1234.99917 139.650851 
L 1235.252838 140.72564 
L 1235.633341 143.888497 
L 1236.140677 150.637725 
L 1236.774847 162.520539 
L 1237.662685 184.248927 
L 1239.05786 219.998947 
L 1239.565196 227.861164 
L 1239.818864 229.776498 
L 1239.945698 230.153464 
L 1240.072532 230.123186 
L 1240.199366 229.675356 
L 1240.453034 227.508493 
L 1240.833536 221.129119 
L 1241.340872 207.394902 
L 1242.22871 174.330206 
L 1243.243383 137.665496 
L 1243.750719 125.423456 
L 1244.131221 120.20647 
L 1244.384889 118.799917 
L 1244.511723 118.732467 
L 1244.638557 119.088325 
L 1244.892225 121.051266 
L 1245.272727 126.978092 
L 1245.272727 126.978092 
" clip-path="url(#p9427bb85b1)" style="fill: none; stroke: #000000; stroke-width: 1.5; stroke-linecap: square"/>
   </g>
   <g id="line2d_37">
    <path d="M 357.561309 320.4 
L 357.561309 43.2 
" clip-path="url(#p9427bb85b1)" style="fill: none; stroke-dasharray: 5.55,2.4; stroke-dashoffset: 0; stroke: #ff0000; stroke-width: 1.5"/>
   </g>
   <g id="line2d_38">
    <path d="M 484.395345 320.4 
L 484.395345 43.2 
" clip-path="url(#p9427bb85b1)" style="fill: none; stroke-dasharray: 5.55,2.4; stroke-dashoffset: 0; stroke: #ff0000; stroke-width: 1.5"/>
   </g>
   <g id="line2d_39">
    <path d="M 611.229381 320.4 
L 611.229381 43.2 
" clip-path="url(#p9427bb85b1)" style="fill: none; stroke-dasharray: 5.55,2.4; stroke-dashoffset: 0; stroke: #ff0000; stroke-width: 1.5"/>
   </g>
   <g id="line2d_40">
    <path d="M 738.063417 320.4 
L 738.063417 43.2 
" clip-path="url(#p9427bb85b1)" style="fill: none; stroke-dasharray: 5.55,2.4; stroke-dashoffset: 0; stroke: #ff0000; stroke-width: 1.5"/>
   </g>
   <g id="line2d_41">
    <path d="M 864.897453 320.4 
L 864.897453 43.2 
" clip-path="url(#p9427bb85b1)" style="fill: none; stroke-dasharray: 5.55,2.4; stroke-dashoffset: 0; stroke: #ff0000; stroke-width: 1.5"/>
   </g>
   <g id="line2d_42">
    <path d="M 991.731489 320.4 
L 991.731489 43.2 
" clip-path="url(#p9427bb85b1)" style="fill: none; stroke-dasharray: 5.55,2.4; stroke-dashoffset: 0; stroke: #ff0000; stroke-width: 1.5"/>
   </g>
   <g id="line2d_43">
    <path d="M 1118.565525 320.4 
L 1118.565525 43.2 
" clip-path="url(#p9427bb85b1)" style="fill: none; stroke-dasharray: 5.55,2.4; stroke-dashoffset: 0; stroke: #ff0000; stroke-width: 1.5"/>
   </g>
   <g id="patch_3">
    <path d="M 180 320.4 
L 180 43.2 
" style="fill: none; stroke: #000000; stroke-width: 0.8; stroke-linejoin: miter; stroke-linecap: square"/>
   </g>
   <g id="patch_4">
    <path d="M 180 320.4 
L 1296 320.4 
" style="fill: none; stroke: #000000; stroke-width: 0.8; stroke-linejoin: miter; stroke-linecap: square"/>
   </g>
   <g id="text_17">
    <!-- Piecewise NARMAX Model - Position -->
    <g transform="translate(512.40375 37.0395) scale(0.288 -0.288)">
     <defs>
      <path id="TimesNewRomanPSMT-50" d="M 1313 1984 
L 1313 750 
Q 1313 350 1400 253 
Q 1519 116 1759 116 
L 1922 116 
L 1922 0 
L 106 0 
L 106 116 
L 266 116 
Q 534 116 650 291 
Q 713 388 713 750 
L 713 3488 
Q 713 3888 628 3984 
Q 506 4122 266 4122 
L 106 4122 
L 106 4238 
L 1659 4238 
Q 2228 4238 2556 4120 
Q 2884 4003 3109 3725 
Q 3334 3447 3334 3066 
Q 3334 2547 2992 2222 
Q 2650 1897 2025 1897 
Q 1872 1897 1694 1919 
Q 1516 1941 1313 1984 
z
M 1313 2163 
Q 1478 2131 1606 2115 
Q 1734 2100 1825 2100 
Q 2150 2100 2386 2351 
Q 2622 2603 2622 3003 
Q 2622 3278 2509 3514 
Q 2397 3750 2190 3867 
Q 1984 3984 1722 3984 
Q 1563 3984 1313 3925 
L 1313 2163 
z
" transform="scale(0.015625)"/>
      <path id="TimesNewRomanPSMT-63" d="M 2631 1088 
Q 2516 522 2178 217 
Q 1841 -88 1431 -88 
Q 944 -88 581 321 
Q 219 731 219 1428 
Q 219 2103 620 2525 
Q 1022 2947 1584 2947 
Q 2006 2947 2278 2723 
Q 2550 2500 2550 2259 
Q 2550 2141 2473 2067 
Q 2397 1994 2259 1994 
Q 2075 1994 1981 2113 
Q 1928 2178 1911 2362 
Q 1894 2547 1784 2644 
Q 1675 2738 1481 2738 
Q 1169 2738 978 2506 
Q 725 2200 725 1697 
Q 725 1184 976 792 
Q 1228 400 1656 400 
Q 1963 400 2206 609 
Q 2378 753 2541 1131 
L 2631 1088 
z
" transform="scale(0.015625)"/>
      <path id="TimesNewRomanPSMT-77" d="M 41 2863 
L 1241 2863 
L 1241 2747 
Q 1075 2734 1023 2687 
Q 972 2641 972 2553 
Q 972 2456 1025 2319 
L 1638 672 
L 2253 2013 
L 2091 2434 
Q 2016 2622 1894 2694 
Q 1825 2738 1638 2747 
L 1638 2863 
L 3000 2863 
L 3000 2747 
Q 2775 2738 2681 2666 
Q 2619 2616 2619 2506 
Q 2619 2444 2644 2378 
L 3294 734 
L 3897 2319 
Q 3959 2488 3959 2588 
Q 3959 2647 3898 2694 
Q 3838 2741 3659 2747 
L 3659 2863 
L 4563 2863 
L 4563 2747 
Q 4291 2706 4163 2378 
L 3206 -88 
L 3078 -88 
L 2363 1741 
L 1528 -88 
L 1413 -88 
L 494 2319 
Q 403 2547 315 2626 
Q 228 2706 41 2747 
L 41 2863 
z
" transform="scale(0.015625)"/>
      <path id="TimesNewRomanPSMT-73" d="M 2050 2947 
L 2050 1972 
L 1947 1972 
Q 1828 2431 1642 2597 
Q 1456 2763 1169 2763 
Q 950 2763 815 2647 
Q 681 2531 681 2391 
Q 681 2216 781 2091 
Q 878 1963 1175 1819 
L 1631 1597 
Q 2266 1288 2266 781 
Q 2266 391 1970 151 
Q 1675 -88 1309 -88 
Q 1047 -88 709 6 
Q 606 38 541 38 
Q 469 38 428 -44 
L 325 -44 
L 325 978 
L 428 978 
Q 516 541 762 319 
Q 1009 97 1316 97 
Q 1531 97 1667 223 
Q 1803 350 1803 528 
Q 1803 744 1651 891 
Q 1500 1038 1047 1263 
Q 594 1488 453 1669 
Q 313 1847 313 2119 
Q 313 2472 555 2709 
Q 797 2947 1181 2947 
Q 1350 2947 1591 2875 
Q 1750 2828 1803 2828 
Q 1853 2828 1881 2850 
Q 1909 2872 1947 2947 
L 2050 2947 
z
" transform="scale(0.015625)"/>
      <path id="TimesNewRomanPSMT-20" transform="scale(0.015625)"/>
      <path id="TimesNewRomanPSMT-4e" d="M -84 4238 
L 1066 4238 
L 3656 1059 
L 3656 3503 
Q 3656 3894 3569 3991 
Q 3453 4122 3203 4122 
L 3056 4122 
L 3056 4238 
L 4531 4238 
L 4531 4122 
L 4381 4122 
Q 4113 4122 4000 3959 
Q 3931 3859 3931 3503 
L 3931 -69 
L 3819 -69 
L 1025 3344 
L 1025 734 
Q 1025 344 1109 247 
Q 1228 116 1475 116 
L 1625 116 
L 1625 0 
L 150 0 
L 150 116 
L 297 116 
Q 569 116 681 278 
Q 750 378 750 734 
L 750 3681 
Q 566 3897 470 3965 
Q 375 4034 191 4094 
Q 100 4122 -84 4122 
L -84 4238 
z
" transform="scale(0.015625)"/>
      <path id="TimesNewRomanPSMT-41" d="M 2928 1419 
L 1288 1419 
L 1000 750 
Q 894 503 894 381 
Q 894 284 986 211 
Q 1078 138 1384 116 
L 1384 0 
L 50 0 
L 50 116 
Q 316 163 394 238 
Q 553 388 747 847 
L 2238 4334 
L 2347 4334 
L 3822 809 
Q 4000 384 4145 257 
Q 4291 131 4550 116 
L 4550 0 
L 2878 0 
L 2878 116 
Q 3131 128 3220 200 
Q 3309 272 3309 375 
Q 3309 513 3184 809 
L 2928 1419 
z
M 2841 1650 
L 2122 3363 
L 1384 1650 
L 2841 1650 
z
" transform="scale(0.015625)"/>
      <path id="TimesNewRomanPSMT-52" d="M 4325 0 
L 3194 0 
L 1759 1981 
Q 1600 1975 1500 1975 
Q 1459 1975 1412 1976 
Q 1366 1978 1316 1981 
L 1316 750 
Q 1316 350 1403 253 
Q 1522 116 1759 116 
L 1925 116 
L 1925 0 
L 109 0 
L 109 116 
L 269 116 
Q 538 116 653 291 
Q 719 388 719 750 
L 719 3488 
Q 719 3888 631 3984 
Q 509 4122 269 4122 
L 109 4122 
L 109 4238 
L 1653 4238 
Q 2328 4238 2648 4139 
Q 2969 4041 3192 3777 
Q 3416 3513 3416 3147 
Q 3416 2756 3161 2468 
Q 2906 2181 2372 2063 
L 3247 847 
Q 3547 428 3762 290 
Q 3978 153 4325 116 
L 4325 0 
z
M 1316 2178 
Q 1375 2178 1419 2176 
Q 1463 2175 1491 2175 
Q 2097 2175 2405 2437 
Q 2713 2700 2713 3106 
Q 2713 3503 2464 3751 
Q 2216 4000 1806 4000 
Q 1625 4000 1316 3941 
L 1316 2178 
z
" transform="scale(0.015625)"/>
      <path id="TimesNewRomanPSMT-4d" d="M 2619 0 
L 981 3566 
L 981 734 
Q 981 344 1066 247 
Q 1181 116 1431 116 
L 1581 116 
L 1581 0 
L 106 0 
L 106 116 
L 256 116 
Q 525 116 638 278 
Q 706 378 706 734 
L 706 3503 
Q 706 3784 644 3909 
Q 600 4000 483 4061 
Q 366 4122 106 4122 
L 106 4238 
L 1306 4238 
L 2844 922 
L 4356 4238 
L 5556 4238 
L 5556 4122 
L 5409 4122 
Q 5138 4122 5025 3959 
Q 4956 3859 4956 3503 
L 4956 734 
Q 4956 344 5044 247 
Q 5159 116 5409 116 
L 5556 116 
L 5556 0 
L 3756 0 
L 3756 116 
L 3906 116 
Q 4178 116 4288 278 
Q 4356 378 4356 734 
L 4356 3566 
L 2722 0 
L 2619 0 
z
" transform="scale(0.015625)"/>
      <path id="TimesNewRomanPSMT-58" d="M 2613 2347 
L 3522 991 
Q 3900 428 4083 279 
Q 4266 131 4547 116 
L 4547 0 
L 2728 0 
L 2728 116 
Q 2909 119 2997 153 
Q 3063 181 3105 239 
Q 3147 297 3147 356 
Q 3147 428 3119 500 
Q 3097 553 2947 775 
L 2228 1863 
L 1341 725 
Q 1200 544 1172 483 
Q 1144 422 1144 356 
Q 1144 256 1228 190 
Q 1313 125 1550 116 
L 1550 0 
L 47 0 
L 47 116 
Q 206 131 322 181 
Q 516 263 691 400 
Q 866 538 1091 822 
L 2091 2084 
L 1256 3306 
Q 916 3803 678 3958 
Q 441 4113 131 4122 
L 131 4238 
L 2091 4238 
L 2091 4122 
Q 1841 4113 1748 4041 
Q 1656 3969 1656 3881 
Q 1656 3766 1806 3544 
L 2456 2572 
L 3209 3525 
Q 3341 3694 3370 3756 
Q 3400 3819 3400 3884 
Q 3400 3950 3363 4000 
Q 3316 4066 3244 4092 
Q 3172 4119 2947 4122 
L 2947 4238 
L 4450 4238 
L 4450 4122 
Q 4272 4113 4159 4066 
Q 3991 3994 3850 3872 
Q 3709 3750 3453 3422 
L 2613 2347 
z
" transform="scale(0.015625)"/>
      <path id="TimesNewRomanPSMT-6f" d="M 1600 2947 
Q 2250 2947 2644 2453 
Q 2978 2031 2978 1484 
Q 2978 1100 2793 706 
Q 2609 313 2286 112 
Q 1963 -88 1566 -88 
Q 919 -88 538 428 
Q 216 863 216 1403 
Q 216 1797 411 2186 
Q 606 2575 925 2761 
Q 1244 2947 1600 2947 
z
M 1503 2744 
Q 1338 2744 1170 2645 
Q 1003 2547 900 2300 
Q 797 2053 797 1666 
Q 797 1041 1045 587 
Q 1294 134 1700 134 
Q 2003 134 2200 384 
Q 2397 634 2397 1244 
Q 2397 2006 2069 2444 
Q 1847 2744 1503 2744 
z
" transform="scale(0.015625)"/>
      <path id="TimesNewRomanPSMT-64" d="M 2222 322 
Q 2013 103 1813 7 
Q 1613 -88 1381 -88 
Q 913 -88 563 304 
Q 213 697 213 1313 
Q 213 1928 600 2439 
Q 988 2950 1597 2950 
Q 1975 2950 2222 2709 
L 2222 3238 
Q 2222 3728 2198 3840 
Q 2175 3953 2125 3993 
Q 2075 4034 2000 4034 
Q 1919 4034 1784 3984 
L 1744 4094 
L 2597 4444 
L 2738 4444 
L 2738 1134 
Q 2738 631 2761 520 
Q 2784 409 2836 365 
Q 2888 322 2956 322 
Q 3041 322 3181 375 
L 3216 266 
L 2366 -88 
L 2222 -88 
L 2222 322 
z
M 2222 541 
L 2222 2016 
Q 2203 2228 2109 2403 
Q 2016 2578 1861 2667 
Q 1706 2756 1559 2756 
Q 1284 2756 1069 2509 
Q 784 2184 784 1559 
Q 784 928 1059 592 
Q 1334 256 1672 256 
Q 1956 256 2222 541 
z
" transform="scale(0.015625)"/>
      <path id="TimesNewRomanPSMT-6c" d="M 1184 4444 
L 1184 647 
Q 1184 378 1223 290 
Q 1263 203 1344 158 
Q 1425 113 1647 113 
L 1647 0 
L 244 0 
L 244 113 
Q 441 113 512 153 
Q 584 194 625 287 
Q 666 381 666 647 
L 666 3247 
Q 666 3731 644 3842 
Q 622 3953 573 3993 
Q 525 4034 450 4034 
Q 369 4034 244 3984 
L 191 4094 
L 1044 4444 
L 1184 4444 
z
" transform="scale(0.015625)"/>
      <path id="TimesNewRomanPSMT-2d" d="M 259 1672 
L 1875 1672 
L 1875 1200 
L 259 1200 
L 259 1672 
z
" transform="scale(0.015625)"/>
      <path id="TimesNewRomanPSMT-74" d="M 1031 3803 
L 1031 2863 
L 1700 2863 
L 1700 2644 
L 1031 2644 
L 1031 788 
Q 1031 509 1111 412 
Q 1191 316 1316 316 
Q 1419 316 1516 380 
Q 1613 444 1666 569 
L 1788 569 
Q 1678 263 1478 108 
Q 1278 -47 1066 -47 
Q 922 -47 784 33 
Q 647 113 581 261 
Q 516 409 516 719 
L 516 2644 
L 63 2644 
L 63 2747 
Q 234 2816 414 2980 
Q 594 3144 734 3369 
Q 806 3488 934 3803 
L 1031 3803 
z
" transform="scale(0.015625)"/>
      <path id="TimesNewRomanPSMT-6e" d="M 1034 2341 
Q 1538 2947 1994 2947 
Q 2228 2947 2397 2830 
Q 2566 2713 2666 2444 
Q 2734 2256 2734 1869 
L 2734 647 
Q 2734 375 2778 278 
Q 2813 200 2889 156 
Q 2966 113 3172 113 
L 3172 0 
L 1756 0 
L 1756 113 
L 1816 113 
Q 2016 113 2095 173 
Q 2175 234 2206 353 
Q 2219 400 2219 647 
L 2219 1819 
Q 2219 2209 2117 2386 
Q 2016 2563 1775 2563 
Q 1403 2563 1034 2156 
L 1034 647 
Q 1034 356 1069 288 
Q 1113 197 1189 155 
Q 1266 113 1500 113 
L 1500 0 
L 84 0 
L 84 113 
L 147 113 
Q 366 113 442 223 
Q 519 334 519 647 
L 519 1709 
Q 519 2225 495 2337 
Q 472 2450 423 2490 
Q 375 2531 294 2531 
Q 206 2531 84 2484 
L 38 2597 
L 900 2947 
L 1034 2947 
L 1034 2341 
z
" transform="scale(0.015625)"/>
     </defs>
     <use xlink:href="#TimesNewRomanPSMT-50"/>
     <use xlink:href="#TimesNewRomanPSMT-69" transform="translate(55.615234 0)"/>
     <use xlink:href="#TimesNewRomanPSMT-65" transform="translate(83.398438 0)"/>
     <use xlink:href="#TimesNewRomanPSMT-63" transform="translate(127.783203 0)"/>
     <use xlink:href="#TimesNewRomanPSMT-65" transform="translate(172.167969 0)"/>
     <use xlink:href="#TimesNewRomanPSMT-77" transform="translate(216.552734 0)"/>
     <use xlink:href="#TimesNewRomanPSMT-69" transform="translate(288.769531 0)"/>
     <use xlink:href="#TimesNewRomanPSMT-73" transform="translate(316.552734 0)"/>
     <use xlink:href="#TimesNewRomanPSMT-65" transform="translate(355.46875 0)"/>
     <use xlink:href="#TimesNewRomanPSMT-20" transform="translate(399.853516 0)"/>
     <use xlink:href="#TimesNewRomanPSMT-4e" transform="translate(424.853516 0)"/>
     <use xlink:href="#TimesNewRomanPSMT-41" transform="translate(497.070312 0)"/>
     <use xlink:href="#TimesNewRomanPSMT-52" transform="translate(569.287109 0)"/>
     <use xlink:href="#TimesNewRomanPSMT-4d" transform="translate(635.986328 0)"/>
     <use xlink:href="#TimesNewRomanPSMT-41" transform="translate(724.902344 0)"/>
     <use xlink:href="#TimesNewRomanPSMT-58" transform="translate(797.119141 0)"/>
     <use xlink:href="#TimesNewRomanPSMT-20" transform="translate(869.335938 0)"/>
     <use xlink:href="#TimesNewRomanPSMT-4d" transform="translate(894.335938 0)"/>
     <use xlink:href="#TimesNewRomanPSMT-6f" transform="translate(983.251953 0)"/>
     <use xlink:href="#TimesNewRomanPSMT-64" transform="translate(1033.251953 0)"/>
     <use xlink:href="#TimesNewRomanPSMT-65" transform="translate(1083.251953 0)"/>
     <use xlink:href="#TimesNewRomanPSMT-6c" transform="translate(1127.636719 0)"/>
     <use xlink:href="#TimesNewRomanPSMT-20" transform="translate(1155.419922 0)"/>
     <use xlink:href="#TimesNewRomanPSMT-2d" transform="translate(1180.419922 0)"/>
     <use xlink:href="#TimesNewRomanPSMT-20" transform="translate(1213.720703 0)"/>
     <use xlink:href="#TimesNewRomanPSMT-50" transform="translate(1238.720703 0)"/>
     <use xlink:href="#TimesNewRomanPSMT-6f" transform="translate(1294.335938 0)"/>
     <use xlink:href="#TimesNewRomanPSMT-73" transform="translate(1344.335938 0)"/>
     <use xlink:href="#TimesNewRomanPSMT-69" transform="translate(1383.251953 0)"/>
     <use xlink:href="#TimesNewRomanPSMT-74" transform="translate(1411.035156 0)"/>
     <use xlink:href="#TimesNewRomanPSMT-69" transform="translate(1438.818359 0)"/>
     <use xlink:href="#TimesNewRomanPSMT-6f" transform="translate(1466.601562 0)"/>
     <use xlink:href="#TimesNewRomanPSMT-6e" transform="translate(1516.601562 0)"/>
    </g>
   </g>
  </g>
 </g>
 <defs>
  <clipPath id="p9427bb85b1">
   <rect x="180" y="43.2" width="1116" height="277.2"/>
  </clipPath>
 </defs>
</svg>
