<?xml version="1.0" encoding="utf-8" standalone="no"?>
<!DOCTYPE svg PUBLIC "-//W3C//DTD SVG 1.1//EN"
  "http://www.w3.org/Graphics/SVG/1.1/DTD/svg11.dtd">
<svg xmlns:xlink="http://www.w3.org/1999/xlink" width="1440pt" height="360pt" viewBox="0 0 1440 360" xmlns="http://www.w3.org/2000/svg" version="1.1">
 <metadata>
  <rdf:RDF xmlns:dc="http://purl.org/dc/elements/1.1/" xmlns:cc="http://creativecommons.org/ns#" xmlns:rdf="http://www.w3.org/1999/02/22-rdf-syntax-ns#">
   <cc:Work>
    <dc:type rdf:resource="http://purl.org/dc/dcmitype/StillImage"/>
    <dc:date>2025-03-18T10:11:57.594402</dc:date>
    <dc:format>image/svg+xml</dc:format>
    <dc:creator>
     <cc:Agent>
      <dc:title>Matplotlib v3.10.0, https://matplotlib.org/</dc:title>
     </cc:Agent>
    </dc:creator>
   </cc:Work>
  </rdf:RDF>
 </metadata>
 <defs>
  <style type="text/css">*{stroke-linejoin: round; stroke-linecap: butt}</style>
 </defs>
 <g id="figure_1">
  <g id="patch_1">
   <path d="M 0 360 
L 1440 360 
L 1440 0 
L 0 0 
z
" style="fill: #ffffff"/>
  </g>
  <g id="axes_1">
   <g id="patch_2">
    <path d="M 180 320.4 
L 1296 320.4 
L 1296 43.2 
L 180 43.2 
z
" style="fill: #ffffff"/>
   </g>
   <g id="matplotlib.axis_1">
    <g id="xtick_1">
     <g id="line2d_1">
      <path d="M 230.727273 320.4 
L 230.727273 43.2 
" clip-path="url(#pc9797b7619)" style="fill: none; stroke: #b0b0b0; stroke-width: 0.8; stroke-linecap: square"/>
     </g>
     <g id="line2d_2">
      <defs>
       <path id="m5c921e63bf" d="M 0 0 
L 0 3.5 
" style="stroke: #000000; stroke-width: 0.8"/>
      </defs>
      <g>
       <use xlink:href="#m5c921e63bf" x="230.727273" y="320.4" style="stroke: #000000; stroke-width: 0.8"/>
      </g>
     </g>
     <g id="text_1">
      <!-- 0 -->
      <g transform="translate(224.727273 344.065) scale(0.24 -0.24)">
       <defs>
        <path id="TimesNewRomanPSMT-30" d="M 231 2094 
Q 231 2819 450 3342 
Q 669 3866 1031 4122 
Q 1313 4325 1613 4325 
Q 2100 4325 2488 3828 
Q 2972 3213 2972 2159 
Q 2972 1422 2759 906 
Q 2547 391 2217 158 
Q 1888 -75 1581 -75 
Q 975 -75 572 641 
Q 231 1244 231 2094 
z
M 844 2016 
Q 844 1141 1059 588 
Q 1238 122 1591 122 
Q 1759 122 1940 273 
Q 2122 425 2216 781 
Q 2359 1319 2359 2297 
Q 2359 3022 2209 3506 
Q 2097 3866 1919 4016 
Q 1791 4119 1609 4119 
Q 1397 4119 1231 3928 
Q 1006 3669 925 3112 
Q 844 2556 844 2016 
z
" transform="scale(0.015625)"/>
       </defs>
       <use xlink:href="#TimesNewRomanPSMT-30"/>
      </g>
     </g>
    </g>
    <g id="xtick_2">
     <g id="line2d_3">
      <path d="M 357.561309 320.4 
L 357.561309 43.2 
" clip-path="url(#pc9797b7619)" style="fill: none; stroke: #b0b0b0; stroke-width: 0.8; stroke-linecap: square"/>
     </g>
     <g id="line2d_4">
      <g>
       <use xlink:href="#m5c921e63bf" x="357.561309" y="320.4" style="stroke: #000000; stroke-width: 0.8"/>
      </g>
     </g>
     <g id="text_2">
      <!-- 1000 -->
      <g transform="translate(333.561309 344.065) scale(0.24 -0.24)">
       <defs>
        <path id="TimesNewRomanPSMT-31" d="M 750 3822 
L 1781 4325 
L 1884 4325 
L 1884 747 
Q 1884 391 1914 303 
Q 1944 216 2037 169 
Q 2131 122 2419 116 
L 2419 0 
L 825 0 
L 825 116 
Q 1125 122 1212 167 
Q 1300 213 1334 289 
Q 1369 366 1369 747 
L 1369 3034 
Q 1369 3497 1338 3628 
Q 1316 3728 1258 3775 
Q 1200 3822 1119 3822 
Q 1003 3822 797 3725 
L 750 3822 
z
" transform="scale(0.015625)"/>
       </defs>
       <use xlink:href="#TimesNewRomanPSMT-31"/>
       <use xlink:href="#TimesNewRomanPSMT-30" transform="translate(50 0)"/>
       <use xlink:href="#TimesNewRomanPSMT-30" transform="translate(100 0)"/>
       <use xlink:href="#TimesNewRomanPSMT-30" transform="translate(150 0)"/>
      </g>
     </g>
    </g>
    <g id="xtick_3">
     <g id="line2d_5">
      <path d="M 484.395345 320.4 
L 484.395345 43.2 
" clip-path="url(#pc9797b7619)" style="fill: none; stroke: #b0b0b0; stroke-width: 0.8; stroke-linecap: square"/>
     </g>
     <g id="line2d_6">
      <g>
       <use xlink:href="#m5c921e63bf" x="484.395345" y="320.4" style="stroke: #000000; stroke-width: 0.8"/>
      </g>
     </g>
     <g id="text_3">
      <!-- 2000 -->
      <g transform="translate(460.395345 344.065) scale(0.24 -0.24)">
       <defs>
        <path id="TimesNewRomanPSMT-32" d="M 2934 816 
L 2638 0 
L 138 0 
L 138 116 
Q 1241 1122 1691 1759 
Q 2141 2397 2141 2925 
Q 2141 3328 1894 3587 
Q 1647 3847 1303 3847 
Q 991 3847 742 3664 
Q 494 3481 375 3128 
L 259 3128 
Q 338 3706 661 4015 
Q 984 4325 1469 4325 
Q 1984 4325 2329 3994 
Q 2675 3663 2675 3213 
Q 2675 2891 2525 2569 
Q 2294 2063 1775 1497 
Q 997 647 803 472 
L 1909 472 
Q 2247 472 2383 497 
Q 2519 522 2628 598 
Q 2738 675 2819 816 
L 2934 816 
z
" transform="scale(0.015625)"/>
       </defs>
       <use xlink:href="#TimesNewRomanPSMT-32"/>
       <use xlink:href="#TimesNewRomanPSMT-30" transform="translate(50 0)"/>
       <use xlink:href="#TimesNewRomanPSMT-30" transform="translate(100 0)"/>
       <use xlink:href="#TimesNewRomanPSMT-30" transform="translate(150 0)"/>
      </g>
     </g>
    </g>
    <g id="xtick_4">
     <g id="line2d_7">
      <path d="M 611.229381 320.4 
L 611.229381 43.2 
" clip-path="url(#pc9797b7619)" style="fill: none; stroke: #b0b0b0; stroke-width: 0.8; stroke-linecap: square"/>
     </g>
     <g id="line2d_8">
      <g>
       <use xlink:href="#m5c921e63bf" x="611.229381" y="320.4" style="stroke: #000000; stroke-width: 0.8"/>
      </g>
     </g>
     <g id="text_4">
      <!-- 3000 -->
      <g transform="translate(587.229381 344.065) scale(0.24 -0.24)">
       <defs>
        <path id="TimesNewRomanPSMT-33" d="M 325 3431 
Q 506 3859 782 4092 
Q 1059 4325 1472 4325 
Q 1981 4325 2253 3994 
Q 2459 3747 2459 3466 
Q 2459 3003 1878 2509 
Q 2269 2356 2469 2072 
Q 2669 1788 2669 1403 
Q 2669 853 2319 450 
Q 1863 -75 997 -75 
Q 569 -75 414 31 
Q 259 138 259 259 
Q 259 350 332 419 
Q 406 488 509 488 
Q 588 488 669 463 
Q 722 447 909 348 
Q 1097 250 1169 231 
Q 1284 197 1416 197 
Q 1734 197 1970 444 
Q 2206 691 2206 1028 
Q 2206 1275 2097 1509 
Q 2016 1684 1919 1775 
Q 1784 1900 1550 2001 
Q 1316 2103 1072 2103 
L 972 2103 
L 972 2197 
Q 1219 2228 1467 2375 
Q 1716 2522 1828 2728 
Q 1941 2934 1941 3181 
Q 1941 3503 1739 3701 
Q 1538 3900 1238 3900 
Q 753 3900 428 3381 
L 325 3431 
z
" transform="scale(0.015625)"/>
       </defs>
       <use xlink:href="#TimesNewRomanPSMT-33"/>
       <use xlink:href="#TimesNewRomanPSMT-30" transform="translate(50 0)"/>
       <use xlink:href="#TimesNewRomanPSMT-30" transform="translate(100 0)"/>
       <use xlink:href="#TimesNewRomanPSMT-30" transform="translate(150 0)"/>
      </g>
     </g>
    </g>
    <g id="xtick_5">
     <g id="line2d_9">
      <path d="M 738.063417 320.4 
L 738.063417 43.2 
" clip-path="url(#pc9797b7619)" style="fill: none; stroke: #b0b0b0; stroke-width: 0.8; stroke-linecap: square"/>
     </g>
     <g id="line2d_10">
      <g>
       <use xlink:href="#m5c921e63bf" x="738.063417" y="320.4" style="stroke: #000000; stroke-width: 0.8"/>
      </g>
     </g>
     <g id="text_5">
      <!-- 4000 -->
      <g transform="translate(714.063417 344.065) scale(0.24 -0.24)">
       <defs>
        <path id="TimesNewRomanPSMT-34" d="M 2978 1563 
L 2978 1119 
L 2409 1119 
L 2409 0 
L 1894 0 
L 1894 1119 
L 100 1119 
L 100 1519 
L 2066 4325 
L 2409 4325 
L 2409 1563 
L 2978 1563 
z
M 1894 1563 
L 1894 3666 
L 406 1563 
L 1894 1563 
z
" transform="scale(0.015625)"/>
       </defs>
       <use xlink:href="#TimesNewRomanPSMT-34"/>
       <use xlink:href="#TimesNewRomanPSMT-30" transform="translate(50 0)"/>
       <use xlink:href="#TimesNewRomanPSMT-30" transform="translate(100 0)"/>
       <use xlink:href="#TimesNewRomanPSMT-30" transform="translate(150 0)"/>
      </g>
     </g>
    </g>
    <g id="xtick_6">
     <g id="line2d_11">
      <path d="M 864.897453 320.4 
L 864.897453 43.2 
" clip-path="url(#pc9797b7619)" style="fill: none; stroke: #b0b0b0; stroke-width: 0.8; stroke-linecap: square"/>
     </g>
     <g id="line2d_12">
      <g>
       <use xlink:href="#m5c921e63bf" x="864.897453" y="320.4" style="stroke: #000000; stroke-width: 0.8"/>
      </g>
     </g>
     <g id="text_6">
      <!-- 5000 -->
      <g transform="translate(840.897453 344.065) scale(0.24 -0.24)">
       <defs>
        <path id="TimesNewRomanPSMT-35" d="M 2778 4238 
L 2534 3706 
L 1259 3706 
L 981 3138 
Q 1809 3016 2294 2522 
Q 2709 2097 2709 1522 
Q 2709 1188 2573 903 
Q 2438 619 2231 419 
Q 2025 219 1772 97 
Q 1413 -75 1034 -75 
Q 653 -75 479 54 
Q 306 184 306 341 
Q 306 428 378 495 
Q 450 563 559 563 
Q 641 563 702 538 
Q 763 513 909 409 
Q 1144 247 1384 247 
Q 1750 247 2026 523 
Q 2303 800 2303 1197 
Q 2303 1581 2056 1914 
Q 1809 2247 1375 2428 
Q 1034 2569 447 2591 
L 1259 4238 
L 2778 4238 
z
" transform="scale(0.015625)"/>
       </defs>
       <use xlink:href="#TimesNewRomanPSMT-35"/>
       <use xlink:href="#TimesNewRomanPSMT-30" transform="translate(50 0)"/>
       <use xlink:href="#TimesNewRomanPSMT-30" transform="translate(100 0)"/>
       <use xlink:href="#TimesNewRomanPSMT-30" transform="translate(150 0)"/>
      </g>
     </g>
    </g>
    <g id="xtick_7">
     <g id="line2d_13">
      <path d="M 991.731489 320.4 
L 991.731489 43.2 
" clip-path="url(#pc9797b7619)" style="fill: none; stroke: #b0b0b0; stroke-width: 0.8; stroke-linecap: square"/>
     </g>
     <g id="line2d_14">
      <g>
       <use xlink:href="#m5c921e63bf" x="991.731489" y="320.4" style="stroke: #000000; stroke-width: 0.8"/>
      </g>
     </g>
     <g id="text_7">
      <!-- 6000 -->
      <g transform="translate(967.731489 344.065) scale(0.24 -0.24)">
       <defs>
        <path id="TimesNewRomanPSMT-36" d="M 2869 4325 
L 2869 4209 
Q 2456 4169 2195 4045 
Q 1934 3922 1679 3669 
Q 1425 3416 1258 3105 
Q 1091 2794 978 2366 
Q 1428 2675 1881 2675 
Q 2316 2675 2634 2325 
Q 2953 1975 2953 1425 
Q 2953 894 2631 456 
Q 2244 -75 1606 -75 
Q 1172 -75 869 213 
Q 275 772 275 1663 
Q 275 2231 503 2743 
Q 731 3256 1154 3653 
Q 1578 4050 1965 4187 
Q 2353 4325 2688 4325 
L 2869 4325 
z
M 925 2138 
Q 869 1716 869 1456 
Q 869 1156 980 804 
Q 1091 453 1309 247 
Q 1469 100 1697 100 
Q 1969 100 2183 356 
Q 2397 613 2397 1088 
Q 2397 1622 2184 2012 
Q 1972 2403 1581 2403 
Q 1463 2403 1327 2353 
Q 1191 2303 925 2138 
z
" transform="scale(0.015625)"/>
       </defs>
       <use xlink:href="#TimesNewRomanPSMT-36"/>
       <use xlink:href="#TimesNewRomanPSMT-30" transform="translate(50 0)"/>
       <use xlink:href="#TimesNewRomanPSMT-30" transform="translate(100 0)"/>
       <use xlink:href="#TimesNewRomanPSMT-30" transform="translate(150 0)"/>
      </g>
     </g>
    </g>
    <g id="xtick_8">
     <g id="line2d_15">
      <path d="M 1118.565525 320.4 
L 1118.565525 43.2 
" clip-path="url(#pc9797b7619)" style="fill: none; stroke: #b0b0b0; stroke-width: 0.8; stroke-linecap: square"/>
     </g>
     <g id="line2d_16">
      <g>
       <use xlink:href="#m5c921e63bf" x="1118.565525" y="320.4" style="stroke: #000000; stroke-width: 0.8"/>
      </g>
     </g>
     <g id="text_8">
      <!-- 7000 -->
      <g transform="translate(1094.565525 344.065) scale(0.24 -0.24)">
       <defs>
        <path id="TimesNewRomanPSMT-37" d="M 644 4238 
L 2916 4238 
L 2916 4119 
L 1503 -88 
L 1153 -88 
L 2419 3728 
L 1253 3728 
Q 900 3728 750 3644 
Q 488 3500 328 3200 
L 238 3234 
L 644 4238 
z
" transform="scale(0.015625)"/>
       </defs>
       <use xlink:href="#TimesNewRomanPSMT-37"/>
       <use xlink:href="#TimesNewRomanPSMT-30" transform="translate(50 0)"/>
       <use xlink:href="#TimesNewRomanPSMT-30" transform="translate(100 0)"/>
       <use xlink:href="#TimesNewRomanPSMT-30" transform="translate(150 0)"/>
      </g>
     </g>
    </g>
    <g id="xtick_9">
     <g id="line2d_17">
      <path d="M 1245.399561 320.4 
L 1245.399561 43.2 
" clip-path="url(#pc9797b7619)" style="fill: none; stroke: #b0b0b0; stroke-width: 0.8; stroke-linecap: square"/>
     </g>
     <g id="line2d_18">
      <g>
       <use xlink:href="#m5c921e63bf" x="1245.399561" y="320.4" style="stroke: #000000; stroke-width: 0.8"/>
      </g>
     </g>
     <g id="text_9">
      <!-- 8000 -->
      <g transform="translate(1221.399561 344.065) scale(0.24 -0.24)">
       <defs>
        <path id="TimesNewRomanPSMT-38" d="M 1228 2134 
Q 725 2547 579 2797 
Q 434 3047 434 3316 
Q 434 3728 753 4026 
Q 1072 4325 1600 4325 
Q 2113 4325 2425 4047 
Q 2738 3769 2738 3413 
Q 2738 3175 2569 2928 
Q 2400 2681 1866 2347 
Q 2416 1922 2594 1678 
Q 2831 1359 2831 1006 
Q 2831 559 2490 242 
Q 2150 -75 1597 -75 
Q 994 -75 656 303 
Q 388 606 388 966 
Q 388 1247 577 1523 
Q 766 1800 1228 2134 
z
M 1719 2469 
Q 2094 2806 2194 3001 
Q 2294 3197 2294 3444 
Q 2294 3772 2109 3958 
Q 1925 4144 1606 4144 
Q 1288 4144 1088 3959 
Q 888 3775 888 3528 
Q 888 3366 970 3203 
Q 1053 3041 1206 2894 
L 1719 2469 
z
M 1375 2016 
Q 1116 1797 991 1539 
Q 866 1281 866 981 
Q 866 578 1086 336 
Q 1306 94 1647 94 
Q 1984 94 2187 284 
Q 2391 475 2391 747 
Q 2391 972 2272 1150 
Q 2050 1481 1375 2016 
z
" transform="scale(0.015625)"/>
       </defs>
       <use xlink:href="#TimesNewRomanPSMT-38"/>
       <use xlink:href="#TimesNewRomanPSMT-30" transform="translate(50 0)"/>
       <use xlink:href="#TimesNewRomanPSMT-30" transform="translate(100 0)"/>
       <use xlink:href="#TimesNewRomanPSMT-30" transform="translate(150 0)"/>
      </g>
     </g>
    </g>
    <g id="text_10">
     <!-- Time -->
     <g transform="translate(713.09625 369.86375) scale(0.24 -0.24)">
      <defs>
       <path id="TimesNewRomanPSMT-54" d="M 3703 4238 
L 3750 3244 
L 3631 3244 
Q 3597 3506 3538 3619 
Q 3441 3800 3280 3886 
Q 3119 3972 2856 3972 
L 2259 3972 
L 2259 734 
Q 2259 344 2344 247 
Q 2463 116 2709 116 
L 2856 116 
L 2856 0 
L 1059 0 
L 1059 116 
L 1209 116 
Q 1478 116 1591 278 
Q 1659 378 1659 734 
L 1659 3972 
L 1150 3972 
Q 853 3972 728 3928 
Q 566 3869 450 3700 
Q 334 3531 313 3244 
L 194 3244 
L 244 4238 
L 3703 4238 
z
" transform="scale(0.015625)"/>
       <path id="TimesNewRomanPSMT-69" d="M 928 4444 
Q 1059 4444 1151 4351 
Q 1244 4259 1244 4128 
Q 1244 3997 1151 3903 
Q 1059 3809 928 3809 
Q 797 3809 703 3903 
Q 609 3997 609 4128 
Q 609 4259 701 4351 
Q 794 4444 928 4444 
z
M 1188 2947 
L 1188 647 
Q 1188 378 1227 289 
Q 1266 200 1342 156 
Q 1419 113 1622 113 
L 1622 0 
L 231 0 
L 231 113 
Q 441 113 512 153 
Q 584 194 626 287 
Q 669 381 669 647 
L 669 1750 
Q 669 2216 641 2353 
Q 619 2453 572 2492 
Q 525 2531 444 2531 
Q 356 2531 231 2484 
L 188 2597 
L 1050 2947 
L 1188 2947 
z
" transform="scale(0.015625)"/>
       <path id="TimesNewRomanPSMT-6d" d="M 1050 2338 
Q 1363 2650 1419 2697 
Q 1559 2816 1721 2881 
Q 1884 2947 2044 2947 
Q 2313 2947 2506 2790 
Q 2700 2634 2766 2338 
Q 3088 2713 3309 2830 
Q 3531 2947 3766 2947 
Q 3994 2947 4170 2830 
Q 4347 2713 4450 2447 
Q 4519 2266 4519 1878 
L 4519 647 
Q 4519 378 4559 278 
Q 4591 209 4675 161 
Q 4759 113 4950 113 
L 4950 0 
L 3538 0 
L 3538 113 
L 3597 113 
Q 3781 113 3884 184 
Q 3956 234 3988 344 
Q 4000 397 4000 647 
L 4000 1878 
Q 4000 2228 3916 2372 
Q 3794 2572 3525 2572 
Q 3359 2572 3192 2489 
Q 3025 2406 2788 2181 
L 2781 2147 
L 2788 2013 
L 2788 647 
Q 2788 353 2820 281 
Q 2853 209 2943 161 
Q 3034 113 3253 113 
L 3253 0 
L 1806 0 
L 1806 113 
Q 2044 113 2133 169 
Q 2222 225 2256 338 
Q 2272 391 2272 647 
L 2272 1878 
Q 2272 2228 2169 2381 
Q 2031 2581 1784 2581 
Q 1616 2581 1450 2491 
Q 1191 2353 1050 2181 
L 1050 647 
Q 1050 366 1089 281 
Q 1128 197 1204 155 
Q 1281 113 1516 113 
L 1516 0 
L 100 0 
L 100 113 
Q 297 113 375 155 
Q 453 197 493 289 
Q 534 381 534 647 
L 534 1741 
Q 534 2213 506 2350 
Q 484 2453 437 2492 
Q 391 2531 309 2531 
Q 222 2531 100 2484 
L 53 2597 
L 916 2947 
L 1050 2947 
L 1050 2338 
z
" transform="scale(0.015625)"/>
       <path id="TimesNewRomanPSMT-65" d="M 681 1784 
Q 678 1147 991 784 
Q 1303 422 1725 422 
Q 2006 422 2214 576 
Q 2422 731 2563 1106 
L 2659 1044 
Q 2594 616 2278 264 
Q 1963 -88 1488 -88 
Q 972 -88 605 314 
Q 238 716 238 1394 
Q 238 2128 614 2539 
Q 991 2950 1559 2950 
Q 2041 2950 2350 2633 
Q 2659 2316 2659 1784 
L 681 1784 
z
M 681 1966 
L 2006 1966 
Q 1991 2241 1941 2353 
Q 1863 2528 1708 2628 
Q 1553 2728 1384 2728 
Q 1125 2728 920 2526 
Q 716 2325 681 1966 
z
" transform="scale(0.015625)"/>
      </defs>
      <use xlink:href="#TimesNewRomanPSMT-54"/>
      <use xlink:href="#TimesNewRomanPSMT-69" transform="translate(57.583984 0)"/>
      <use xlink:href="#TimesNewRomanPSMT-6d" transform="translate(85.367188 0)"/>
      <use xlink:href="#TimesNewRomanPSMT-65" transform="translate(163.150391 0)"/>
     </g>
    </g>
   </g>
   <g id="matplotlib.axis_2">
    <g id="ytick_1">
     <g id="line2d_19">
      <path d="M 180 288.58232 
L 1296 288.58232 
" clip-path="url(#pc9797b7619)" style="fill: none; stroke: #b0b0b0; stroke-width: 0.8; stroke-linecap: square"/>
     </g>
     <g id="line2d_20">
      <defs>
       <path id="m6fe1a6e408" d="M 0 0 
L -3.5 0 
" style="stroke: #000000; stroke-width: 0.8"/>
      </defs>
      <g>
       <use xlink:href="#m6fe1a6e408" x="180" y="288.58232" style="stroke: #000000; stroke-width: 0.8"/>
      </g>
     </g>
     <g id="text_11">
      <!-- −2 -->
      <g transform="translate(147.46625 296.91482) scale(0.24 -0.24)">
       <defs>
        <path id="TimesNewRomanPSMT-2212" d="M 3484 2000 
L 116 2000 
L 116 2256 
L 3484 2256 
L 3484 2000 
z
" transform="scale(0.015625)"/>
       </defs>
       <use xlink:href="#TimesNewRomanPSMT-2212"/>
       <use xlink:href="#TimesNewRomanPSMT-32" transform="translate(56.396484 0)"/>
      </g>
     </g>
    </g>
    <g id="ytick_2">
     <g id="line2d_21">
      <path d="M 180 231.174943 
L 1296 231.174943 
" clip-path="url(#pc9797b7619)" style="fill: none; stroke: #b0b0b0; stroke-width: 0.8; stroke-linecap: square"/>
     </g>
     <g id="line2d_22">
      <g>
       <use xlink:href="#m6fe1a6e408" x="180" y="231.174943" style="stroke: #000000; stroke-width: 0.8"/>
      </g>
     </g>
     <g id="text_12">
      <!-- −1 -->
      <g transform="translate(147.46625 239.507443) scale(0.24 -0.24)">
       <use xlink:href="#TimesNewRomanPSMT-2212"/>
       <use xlink:href="#TimesNewRomanPSMT-31" transform="translate(56.396484 0)"/>
      </g>
     </g>
    </g>
    <g id="ytick_3">
     <g id="line2d_23">
      <path d="M 180 173.767566 
L 1296 173.767566 
" clip-path="url(#pc9797b7619)" style="fill: none; stroke: #b0b0b0; stroke-width: 0.8; stroke-linecap: square"/>
     </g>
     <g id="line2d_24">
      <g>
       <use xlink:href="#m6fe1a6e408" x="180" y="173.767566" style="stroke: #000000; stroke-width: 0.8"/>
      </g>
     </g>
     <g id="text_13">
      <!-- 0 -->
      <g transform="translate(161 182.100066) scale(0.24 -0.24)">
       <use xlink:href="#TimesNewRomanPSMT-30"/>
      </g>
     </g>
    </g>
    <g id="ytick_4">
     <g id="line2d_25">
      <path d="M 180 116.360189 
L 1296 116.360189 
" clip-path="url(#pc9797b7619)" style="fill: none; stroke: #b0b0b0; stroke-width: 0.8; stroke-linecap: square"/>
     </g>
     <g id="line2d_26">
      <g>
       <use xlink:href="#m6fe1a6e408" x="180" y="116.360189" style="stroke: #000000; stroke-width: 0.8"/>
      </g>
     </g>
     <g id="text_14">
      <!-- 1 -->
      <g transform="translate(161 124.692689) scale(0.24 -0.24)">
       <use xlink:href="#TimesNewRomanPSMT-31"/>
      </g>
     </g>
    </g>
    <g id="ytick_5">
     <g id="line2d_27">
      <path d="M 180 58.952812 
L 1296 58.952812 
" clip-path="url(#pc9797b7619)" style="fill: none; stroke: #b0b0b0; stroke-width: 0.8; stroke-linecap: square"/>
     </g>
     <g id="line2d_28">
      <g>
       <use xlink:href="#m6fe1a6e408" x="180" y="58.952812" style="stroke: #000000; stroke-width: 0.8"/>
      </g>
     </g>
     <g id="text_15">
      <!-- 2 -->
      <g transform="translate(161 67.285312) scale(0.24 -0.24)">
       <use xlink:href="#TimesNewRomanPSMT-32"/>
      </g>
     </g>
    </g>
    <g id="text_16">
     <!-- $\dot{X}_{\mathrm{rel}}$ -->
     <g transform="translate(138.3325 201.48) rotate(-90) scale(0.24 -0.24)">
      <defs>
       <path id="DejaVuSans-307" d="M -1894 4863 
L -1319 4863 
L -1319 4134 
L -1894 4134 
L -1894 4863 
z
M -1600 3584 
L -1600 3584 
z
" transform="scale(0.015625)"/>
       <path id="DejaVuSans-Oblique-58" d="M 878 4666 
L 1516 4666 
L 2316 2981 
L 3763 4666 
L 4500 4666 
L 2578 2438 
L 3738 0 
L 3103 0 
L 2163 1966 
L 459 0 
L -275 0 
L 1906 2509 
L 878 4666 
z
" transform="scale(0.015625)"/>
       <path id="DejaVuSans-72" d="M 2631 2963 
Q 2534 3019 2420 3045 
Q 2306 3072 2169 3072 
Q 1681 3072 1420 2755 
Q 1159 2438 1159 1844 
L 1159 0 
L 581 0 
L 581 3500 
L 1159 3500 
L 1159 2956 
Q 1341 3275 1631 3429 
Q 1922 3584 2338 3584 
Q 2397 3584 2469 3576 
Q 2541 3569 2628 3553 
L 2631 2963 
z
" transform="scale(0.015625)"/>
       <path id="DejaVuSans-65" d="M 3597 1894 
L 3597 1613 
L 953 1613 
Q 991 1019 1311 708 
Q 1631 397 2203 397 
Q 2534 397 2845 478 
Q 3156 559 3463 722 
L 3463 178 
Q 3153 47 2828 -22 
Q 2503 -91 2169 -91 
Q 1331 -91 842 396 
Q 353 884 353 1716 
Q 353 2575 817 3079 
Q 1281 3584 2069 3584 
Q 2775 3584 3186 3129 
Q 3597 2675 3597 1894 
z
M 3022 2063 
Q 3016 2534 2758 2815 
Q 2500 3097 2075 3097 
Q 1594 3097 1305 2825 
Q 1016 2553 972 2059 
L 3022 2063 
z
" transform="scale(0.015625)"/>
       <path id="DejaVuSans-6c" d="M 603 4863 
L 1178 4863 
L 1178 0 
L 603 0 
L 603 4863 
z
" transform="scale(0.015625)"/>
      </defs>
      <use xlink:href="#DejaVuSans-307" transform="translate(67.720215 30.015625)"/>
      <use xlink:href="#DejaVuSans-Oblique-58" transform="translate(0 0.609375)"/>
      <use xlink:href="#DejaVuSans-72" transform="translate(69.462891 -15.796875) scale(0.7)"/>
      <use xlink:href="#DejaVuSans-65" transform="translate(98.242188 -15.796875) scale(0.7)"/>
      <use xlink:href="#DejaVuSans-6c" transform="translate(141.308594 -15.796875) scale(0.7)"/>
     </g>
    </g>
   </g>
   <g id="line2d_29">
    <path d="M 230.727273 193.59837 
L 230.854107 193.662092 
L 230.980941 193.555889 
L 231.234609 192.841741 
L 231.615111 190.58965 
L 232.122447 185.738152 
L 233.263953 171.291439 
L 234.024958 163.336146 
L 234.532294 160.268087 
L 234.912796 159.332996 
L 235.166464 159.33988 
L 235.420132 159.808204 
L 235.800634 161.260667 
L 236.30797 164.268282 
L 238.717817 180.414948 
L 239.225153 181.816425 
L 239.605655 182.200556 
L 239.859323 182.158582 
L 240.112991 181.900965 
L 240.493494 181.166022 
L 241.127664 179.250283 
L 242.142336 175.244519 
L 243.53751 168.854309 
L 244.679017 163.650366 
L 245.186353 162.285552 
L 245.440021 162.061739 
L 245.693689 162.224501 
L 245.947357 162.815625 
L 246.327859 164.536246 
L 246.835195 168.236587 
L 248.484038 182.281548 
L 248.86454 183.763432 
L 249.118208 184.185828 
L 249.371876 184.189361 
L 249.625544 183.832482 
L 250.006046 182.788187 
L 251.020718 178.84719 
L 251.908557 175.847318 
L 253.176897 172.516568 
L 254.698906 168.988877 
L 255.45991 167.709067 
L 256.09408 166.978607 
L 256.601416 166.692536 
L 256.981918 166.74196 
L 257.36242 167.104872 
L 257.742922 167.853636 
L 258.250259 169.516448 
L 258.884429 172.560329 
L 260.406437 180.417525 
L 260.786939 181.367866 
L 261.040607 181.591126 
L 261.294275 181.458868 
L 261.547943 180.968071 
L 261.928446 179.600159 
L 262.435782 176.825156 
L 263.95779 167.610688 
L 264.338292 166.512488 
L 264.59196 166.246858 
L 264.845628 166.370379 
L 265.099297 166.871516 
L 265.479799 168.254391 
L 266.113969 171.742896 
L 267.382309 179.004362 
L 267.889645 180.674864 
L 268.270147 181.227327 
L 268.523815 181.251868 
L 268.777484 181.012094 
L 269.157986 180.204925 
L 269.665322 178.476207 
L 271.567832 171.131509 
L 272.202003 169.739263 
L 272.836173 168.821909 
L 273.597177 168.092015 
L 274.231347 167.77631 
L 274.611849 167.779087 
L 274.992351 167.981109 
L 275.372853 168.420205 
L 275.88019 169.40232 
L 276.51436 171.202415 
L 278.41687 177.20063 
L 278.924206 178.03732 
L 279.304709 178.346814 
L 279.685211 178.41685 
L 280.192547 178.234619 
L 280.953551 177.642805 
L 281.968223 176.545654 
L 282.729228 175.367431 
L 283.490232 173.738415 
L 284.37807 171.214266 
L 285.773244 167.112274 
L 286.153746 166.63332 
L 286.407415 166.622503 
L 286.661083 166.895981 
L 287.041585 167.865283 
L 287.548921 170.127089 
L 288.436759 175.661667 
L 289.197763 180.024936 
L 289.7051 181.801506 
L 290.085602 182.331059 
L 290.33927 182.290504 
L 290.592938 181.953151 
L 290.97344 180.958258 
L 291.480776 178.935761 
L 294.017457 167.590999 
L 294.524793 166.56227 
L 294.905295 166.225584 
L 295.158963 166.212309 
L 295.539465 166.500315 
L 295.919967 167.129472 
L 296.427303 168.404178 
L 298.83715 175.324886 
L 299.47132 176.192153 
L 300.359159 176.947429 
L 302.261669 178.299045 
L 302.642171 178.237754 
L 303.022673 177.89326 
L 303.403175 177.232743 
L 303.910512 175.899994 
L 305.939856 169.840444 
L 306.320358 169.505056 
L 306.574026 169.54523 
L 306.827694 169.810853 
L 307.208196 170.627197 
L 307.715533 172.376906 
L 309.110707 177.643735 
L 309.491209 178.164511 
L 309.744877 178.152955 
L 309.998545 177.855306 
L 310.379047 176.931875 
L 311.013218 174.544616 
L 312.02789 170.670618 
L 312.535226 169.502175 
L 312.915728 169.063426 
L 313.29623 168.95685 
L 313.676732 169.104385 
L 314.310902 169.656841 
L 315.071907 170.29749 
L 315.579243 170.454019 
L 316.086579 170.344696 
L 317.101251 169.997565 
L 317.481753 170.213782 
L 317.862256 170.814379 
L 318.242758 171.862883 
L 318.750094 173.937969 
L 319.637932 178.765307 
L 320.652604 183.933224 
L 321.15994 185.542358 
L 321.540443 186.137248 
L 321.794111 186.216445 
L 322.047779 186.033631 
L 322.428281 185.260252 
L 322.808783 183.881436 
L 323.316119 181.100139 
L 323.950289 176.198763 
L 325.979634 158.470167 
L 326.360136 157.148537 
L 326.613804 156.923638 
L 326.867472 157.240511 
L 327.12114 158.084036 
L 327.501642 160.243495 
L 328.135812 165.631466 
L 329.784655 180.888973 
L 330.291991 183.649778 
L 330.672493 184.777626 
L 330.926161 185.061091 
L 331.179829 184.971391 
L 331.433497 184.519331 
L 331.813999 183.207371 
L 332.321336 180.453584 
L 333.336008 173.114523 
L 334.097012 168.168233 
L 334.604348 166.114873 
L 334.98485 165.46545 
L 335.238518 165.483271 
L 335.492187 165.851714 
L 335.872689 167.000091 
L 336.380025 169.402992 
L 338.409369 180.257178 
L 338.916705 181.505213 
L 339.297208 181.824147 
L 339.550876 181.739703 
L 339.804544 181.428399 
L 340.185046 180.577297 
L 340.692382 178.865214 
L 341.58022 174.931739 
L 343.609565 165.675203 
L 344.116901 164.50977 
L 344.370569 164.326294 
L 344.624237 164.45097 
L 344.877905 164.897035 
L 345.258407 166.153051 
L 345.765743 168.751132 
L 347.54142 179.080443 
L 347.921922 180.176023 
L 348.302424 180.659796 
L 348.556092 180.65734 
L 348.80976 180.421154 
L 349.190262 179.699642 
L 349.824433 177.850075 
L 350.965939 174.415708 
L 351.473275 173.553175 
L 351.853777 173.293163 
L 352.234279 173.334472 
L 352.741615 173.709108 
L 353.50262 174.329455 
L 353.883122 174.34728 
L 354.13679 174.156709 
L 354.517292 173.489282 
L 354.897794 172.315939 
L 355.40513 170.012228 
L 356.800305 163.011557 
L 357.053973 162.515104 
L 357.180807 162.443253 
L 357.307641 162.501032 
L 357.434475 162.695343 
L 357.434475 162.695343 
" clip-path="url(#pc9797b7619)" style="fill: none; stroke: #000000; stroke-width: 1.5; stroke-linecap: square"/>
   </g>
   <g id="line2d_30">
    <path d="M 357.561309 122.344908 
L 358.068645 138.427585 
L 358.702815 166.904514 
L 360.478492 253.736042 
L 360.858994 263.145111 
L 361.112662 266.078628 
L 361.239496 266.463257 
L 361.36633 266.118813 
L 361.619998 263.219741 
L 362.0005 253.56956 
L 362.507836 232.08772 
L 363.395674 180.254634 
L 364.410347 122.762034 
L 365.044517 99.076417 
L 365.425019 91.269959 
L 365.678687 88.902906 
L 365.805521 88.567432 
L 365.932355 88.787632 
L 366.186023 90.85151 
L 366.566525 97.737761 
L 367.073862 112.982819 
L 367.834866 144.743692 
L 369.483708 216.316103 
L 369.991044 230.27579 
L 370.371546 236.39084 
L 370.625215 238.201497 
L 370.752049 238.418772 
L 370.878883 238.183179 
L 371.132551 236.400025 
L 371.513053 230.719527 
L 372.020389 218.642629 
L 373.161895 183.149717 
L 373.922899 162.524542 
L 374.430236 153.343844 
L 374.810738 149.406639 
L 375.064406 148.177368 
L 375.19124 147.952796 
L 375.318074 147.968654 
L 375.571742 148.640926 
L 375.952244 150.913621 
L 377.854755 165.027413 
L 378.235257 165.978163 
L 378.488925 166.242107 
L 378.742593 166.287127 
L 379.249929 166.033897 
L 379.757265 165.820112 
L 380.137767 165.951396 
L 380.518269 166.423468 
L 381.025605 167.554042 
L 381.78661 169.97349 
L 383.435452 175.425946 
L 383.815954 176.066911 
L 384.069622 176.243062 
L 384.32329 176.208892 
L 384.703793 175.807132 
L 385.972133 173.949468 
L 386.225801 174.134433 
L 386.479469 174.717727 
L 386.859971 176.499132 
L 387.240473 179.511064 
L 387.747809 185.413965 
L 389.142984 203.657422 
L 389.396652 204.835785 
L 389.523486 204.930016 
L 389.65032 204.663819 
L 389.903988 202.994778 
L 390.28449 197.660498 
L 390.791826 186.125531 
L 392.187001 151.441882 
L 392.567503 147.066652 
L 392.821171 145.921377 
L 392.948005 145.847603 
L 393.074839 146.076791 
L 393.328507 147.316891 
L 393.835843 151.845581 
L 394.596847 158.97296 
L 394.977349 160.990215 
L 395.231018 161.591352 
L 395.484686 161.685576 
L 395.738354 161.42963 
L 396.372524 160.594632 
L 396.626192 160.702858 
L 396.87986 161.28781 
L 397.260362 163.20388 
L 397.767698 167.657368 
L 398.528702 177.286231 
L 400.811715 208.400549 
L 401.192217 210.732831 
L 401.445885 211.153154 
L 401.572719 210.962129 
L 401.826387 209.690329 
L 402.080055 207.141034 
L 402.460558 200.796916 
L 402.967894 187.812546 
L 403.855732 156.770464 
L 404.74357 127.266332 
L 405.250906 116.902317 
L 405.504574 114.303774 
L 405.758243 113.592501 
L 405.885077 113.957976 
L 406.138745 116.119946 
L 406.519247 122.786065 
L 407.026583 137.226939 
L 407.914421 171.743376 
L 408.929093 208.958587 
L 409.43643 220.892654 
L 409.816932 226.027159 
L 410.0706 227.676284 
L 410.324268 228.026279 
L 410.451102 227.757977 
L 410.70477 226.435866 
L 411.085272 222.800189 
L 411.719442 213.657409 
L 412.987783 190.63221 
L 416.539136 126.247598 
L 417.046472 120.015045 
L 417.426974 117.395832 
L 417.680642 116.895552 
L 417.807476 117.061364 
L 418.061144 118.273711 
L 418.441646 122.343785 
L 418.948982 131.77825 
L 419.583152 148.693371 
L 421.992999 218.580175 
L 422.627169 228.499467 
L 423.007671 231.937894 
L 423.388174 233.533205 
L 423.515008 233.663291 
L 423.641842 233.594109 
L 423.89551 232.85258 
L 424.149178 231.291944 
L 424.52968 227.346847 
L 425.037016 218.921127 
L 425.671186 203.289678 
L 426.559024 174.16553 
L 427.954199 127.972593 
L 428.588369 114.367272 
L 428.968871 110.086729 
L 429.222539 109.122884 
L 429.349373 109.239794 
L 429.603041 110.695981 
L 429.856709 113.775657 
L 430.237211 121.293474 
L 430.744548 135.938969 
L 432.900726 207.01489 
L 433.281228 212.570011 
L 433.534896 214.483869 
L 433.788564 215.061812 
L 433.915399 214.895949 
L 434.169067 213.773252 
L 434.549569 210.512404 
L 435.183739 202.624078 
L 438.735092 155.118099 
L 439.369262 148.836091 
L 439.876598 145.787147 
L 440.130266 145.074392 
L 440.383934 144.933908 
L 440.637602 145.362786 
L 440.89127 146.341007 
L 441.271773 148.773423 
L 441.779109 153.654817 
L 442.413279 162.133546 
L 443.301117 177.750456 
L 445.076794 210.416326 
L 445.58413 215.970504 
L 445.964632 217.958515 
L 446.091466 218.129935 
L 446.2183 218.033828 
L 446.471968 216.997824 
L 446.725636 214.785769 
L 447.106138 209.229062 
L 447.613474 197.962835 
L 448.501313 171.500901 
L 449.515985 142.486058 
L 450.150155 130.670348 
L 450.530657 126.763739 
L 450.784325 125.536148 
L 450.911159 125.328791 
L 451.037993 125.38553 
L 451.291661 126.262762 
L 451.672164 129.338003 
L 452.1795 136.175052 
L 452.940504 150.137631 
L 454.462512 178.250727 
L 457.760197 227.557135 
L 458.013865 228.599277 
L 458.140699 228.588599 
L 458.267533 228.194836 
L 458.521202 226.201955 
L 458.901704 220.120626 
L 459.40904 206.564862 
L 460.170044 177.595771 
L 461.565218 121.802206 
L 462.072555 109.007771 
L 462.453057 104.016767 
L 462.706725 103.120482 
L 462.833559 103.417851 
L 463.087227 105.489552 
L 463.467729 112.118381 
L 463.975065 126.648336 
L 464.736069 156.392413 
L 466.00441 205.364985 
L 466.511746 218.210736 
L 466.892248 224.264479 
L 467.27275 227.217081 
L 467.399584 227.534257 
L 467.526418 227.529345 
L 467.653252 227.210228 
L 467.90692 225.660335 
L 468.287422 221.175827 
L 468.794758 211.539612 
L 469.555763 191.015437 
L 470.950937 151.883133 
L 471.458273 144.349734 
L 471.711941 142.814195 
L 471.838775 142.632248 
L 471.965609 142.836895 
L 472.219277 144.358244 
L 472.59978 149.102278 
L 473.23395 161.331474 
L 474.121788 178.719984 
L 474.629124 184.673498 
L 474.882792 186.120281 
L 475.13646 186.554705 
L 475.263294 186.415698 
L 475.516962 185.493583 
L 475.897464 182.751895 
L 476.531635 175.705794 
L 478.687813 149.113412 
L 479.068315 146.779773 
L 479.321983 146.023853 
L 479.448817 145.916205 
L 479.575652 146.000551 
L 479.82932 146.775774 
L 480.082988 148.394801 
L 480.46349 152.433418 
L 480.970826 160.603255 
L 481.858664 179.626932 
L 482.746502 197.341477 
L 483.253839 204.126042 
L 483.634341 207.259994 
L 484.014843 208.807319 
L 484.268511 209.041837 
L 484.268511 209.041837 
" clip-path="url(#pc9797b7619)" style="fill: none; stroke: #000000; stroke-width: 1.5; stroke-linecap: square"/>
   </g>
   <g id="line2d_31">
    <path d="M 484.395345 159.226277 
L 484.775847 157.195779 
L 485.029515 156.65902 
L 485.156349 156.650408 
L 485.410017 157.153297 
L 485.663685 158.329574 
L 486.044187 161.222332 
L 486.678358 168.180016 
L 487.819864 180.96291 
L 488.200366 183.472131 
L 488.454034 184.378672 
L 488.707702 184.641115 
L 488.834536 184.534882 
L 489.088204 183.876497 
L 489.468706 181.923255 
L 490.102876 177.027362 
L 490.990715 170.117278 
L 491.498051 167.729224 
L 491.751719 167.168366 
L 492.005387 167.056271 
L 492.259055 167.385768 
L 492.639557 168.644984 
L 493.146893 171.474789 
L 494.668902 181.256065 
L 495.049404 182.312287 
L 495.303072 182.483923 
L 495.55674 182.224073 
L 495.810408 181.557884 
L 496.19091 179.904325 
L 496.82508 175.965881 
L 498.220255 166.930246 
L 498.727591 164.981911 
L 499.108093 164.362237 
L 499.361761 164.407194 
L 499.615429 164.83176 
L 499.995931 166.153413 
L 500.503267 168.981011 
L 502.15211 179.469778 
L 502.532612 180.605695 
L 502.78628 180.928839 
L 503.039948 180.913381 
L 503.293616 180.59179 
L 503.674118 179.652779 
L 505.576629 173.880764 
L 507.098637 171.085776 
L 507.732808 168.863038 
L 508.74748 165.081753 
L 509.001148 164.631574 
L 509.254816 164.575236 
L 509.508484 164.9898 
L 509.762152 165.926271 
L 510.142654 168.339025 
L 510.64999 173.234432 
L 512.171999 189.729979 
L 512.552501 191.231007 
L 512.679335 191.308802 
L 512.806169 191.162781 
L 513.059837 190.19646 
L 513.440339 187.147169 
L 513.947675 180.713882 
L 515.34285 161.336702 
L 515.723352 158.546511 
L 515.97702 157.605116 
L 516.230688 157.391037 
L 516.484356 157.854918 
L 516.864858 159.647455 
L 517.372194 163.560643 
L 519.528373 182.764208 
L 520.035709 184.941905 
L 520.416211 185.593955 
L 520.669879 185.550039 
L 520.923547 185.135169 
L 521.304049 183.869805 
L 521.811386 181.170981 
L 522.57239 175.699099 
L 523.84073 166.372086 
L 524.348066 163.912933 
L 524.728568 162.911076 
L 524.982236 162.693311 
L 525.235904 162.841385 
L 525.489573 163.340582 
L 525.870075 164.671688 
L 526.504245 167.973152 
L 528.026253 176.306556 
L 530.4361 186.849802 
L 530.689768 187.289998 
L 530.943436 187.312495 
L 531.197104 186.845247 
L 531.450772 185.84172 
L 531.831274 183.309267 
L 532.338611 178.228752 
L 533.987453 159.501904 
L 534.367955 157.659388 
L 534.621623 157.312707 
L 534.748457 157.404328 
L 535.002125 158.087864 
L 535.382627 160.19884 
L 536.016798 165.561925 
L 537.03147 174.318437 
L 537.538806 177.256435 
L 538.046142 178.969526 
L 538.426644 179.534673 
L 538.680312 179.621614 
L 538.93398 179.50886 
L 539.314482 179.014455 
L 539.821819 177.842891 
L 540.582823 175.342824 
L 541.343827 172.96629 
L 541.724329 172.344564 
L 541.977997 172.273263 
L 542.231665 172.51551 
L 542.612167 173.472663 
L 543.119504 175.673474 
L 544.387844 181.795591 
L 544.768346 182.58094 
L 545.022014 182.654856 
L 545.275682 182.355484 
L 545.656184 181.237785 
L 546.16352 178.684512 
L 546.924525 173.415682 
L 548.192865 164.696943 
L 548.700201 162.438877 
L 549.080703 161.447168 
L 549.334371 161.139299 
L 549.588039 161.112563 
L 549.841707 161.359971 
L 550.22221 162.224551 
L 550.729546 164.250669 
L 551.363716 168.087291 
L 552.251554 175.24941 
L 553.139392 182.083008 
L 553.646729 184.374282 
L 553.900397 184.858063 
L 554.154065 184.873532 
L 554.407733 184.440663 
L 554.788235 183.068181 
L 555.422405 179.572791 
L 556.310243 174.76263 
L 556.817579 173.163464 
L 557.198082 172.67547 
L 557.45175 172.662207 
L 557.705418 172.861257 
L 558.08592 173.472362 
L 558.72009 174.998003 
L 559.861596 177.755158 
L 560.242098 178.220401 
L 560.495767 178.291424 
L 560.749435 178.126468 
L 561.003103 177.691856 
L 561.383605 176.478842 
L 561.890941 173.77093 
L 562.525111 168.89914 
L 563.666617 159.625678 
L 564.04712 157.777816 
L 564.300788 157.169614 
L 564.427622 157.072375 
L 564.554456 157.117324 
L 564.808124 157.633453 
L 565.188626 159.422777 
L 565.695962 163.402812 
L 566.5838 172.908232 
L 567.852141 186.288221 
L 568.486311 190.696955 
L 568.866813 192.160819 
L 569.120481 192.583372 
L 569.374149 192.55078 
L 569.627817 192.067092 
L 570.008319 190.534208 
L 570.515655 187.154683 
L 571.27666 180.042171 
L 572.798668 165.036678 
L 573.432838 160.815583 
L 573.940174 158.726787 
L 574.320676 157.926291 
L 574.574345 157.756826 
L 574.828013 157.882264 
L 575.081681 158.310597 
L 575.462183 159.546613 
L 575.969519 162.358589 
L 576.603689 167.700865 
L 578.633034 187.543442 
L 579.013536 188.89342 
L 579.267204 189.032315 
L 579.520872 188.549579 
L 579.901374 186.723492 
L 580.40871 182.598519 
L 582.311221 164.748442 
L 582.691723 163.2826 
L 582.945391 162.921671 
L 583.072225 162.925867 
L 583.325893 163.290918 
L 583.706395 164.66088 
L 584.213731 167.734901 
L 586.243076 182.281517 
L 586.623578 183.364873 
L 586.877246 183.594511 
L 587.130914 183.419586 
L 587.384582 182.847087 
L 587.765084 181.293262 
L 588.27242 178.149636 
L 590.174931 164.810016 
L 590.555433 163.610108 
L 590.809101 163.273373 
L 591.062769 163.322719 
L 591.316437 163.75642 
L 591.696939 165.088278 
L 592.204276 167.931159 
L 594.23362 180.973431 
L 594.614122 182.0574 
L 594.994624 182.54463 
L 595.248292 182.567463 
L 595.50196 182.374189 
L 595.882463 181.721043 
L 596.389799 180.230512 
L 597.023969 177.398062 
L 597.784973 172.697471 
L 599.053313 164.521635 
L 599.433816 163.09832 
L 599.687484 162.631634 
L 599.941152 162.594964 
L 600.19482 163.000381 
L 600.575322 164.407508 
L 601.082658 167.566368 
L 601.970496 175.213173 
L 602.985169 183.696196 
L 603.492505 186.356072 
L 603.873007 187.208838 
L 603.999841 187.244269 
L 604.253509 186.9241 
L 604.507177 186.081121 
L 604.887679 183.887883 
L 605.395015 179.541182 
L 606.917024 165.031976 
L 607.297526 163.128541 
L 607.551194 162.492594 
L 607.804862 162.359345 
L 608.05853 162.689258 
L 608.439032 163.903279 
L 609.073202 167.099253 
L 610.214709 172.997998 
L 610.975713 175.836497 
L 611.102547 176.240073 
L 611.102547 176.240073 
" clip-path="url(#pc9797b7619)" style="fill: none; stroke: #000000; stroke-width: 1.5; stroke-linecap: square"/>
   </g>
   <g id="line2d_32">
    <path d="M 611.229381 165.495163 
L 611.863551 192.468571 
L 612.117219 213.289315 
L 612.878223 305.784862 
L 613.005057 305.396115 
L 613.258726 296.084275 
L 613.512394 286.566101 
L 613.639228 286.725485 
L 613.766062 286.623125 
L 614.146564 273.667453 
L 615.541738 216.812688 
L 616.810079 180.503292 
L 617.571083 147.327175 
L 618.585755 101.922408 
L 619.093091 88.307381 
L 619.346759 85.174593 
L 619.473593 84.604257 
L 619.600427 84.705519 
L 619.854095 86.899448 
L 620.107763 91.641441 
L 620.488266 103.052323 
L 621.122436 130.913542 
L 623.278614 235.577771 
L 623.785951 248.674852 
L 624.166453 254.202626 
L 624.420121 255.906059 
L 624.546955 256.191855 
L 624.673789 256.115204 
L 624.927457 254.924896 
L 625.307959 250.726417 
L 625.815295 241.054488 
L 626.449465 223.027763 
L 627.210469 193.626019 
L 629.493482 96.594972 
L 629.873984 88.718426 
L 630.127652 86.019915 
L 630.254486 85.492358 
L 630.38132 85.528326 
L 630.508154 86.133945 
L 630.761823 89.056547 
L 631.142325 97.587228 
L 631.649661 115.785315 
L 632.537499 159.312724 
L 633.679005 213.409272 
L 634.313176 232.606013 
L 634.693678 239.016432 
L 634.947346 241.134067 
L 635.201014 241.60978 
L 635.327848 241.268286 
L 635.581516 239.516326 
L 635.962018 234.516025 
L 636.469354 224.251582 
L 637.230358 203.224456 
L 638.371865 163.974359 
L 639.513371 126.67122 
L 640.020707 115.798737 
L 640.401209 111.347057 
L 640.654877 110.356091 
L 640.781711 110.472439 
L 641.035379 111.92744 
L 641.415882 117.083669 
L 641.923218 129.054278 
L 642.557388 150.751367 
L 644.840401 237.846167 
L 645.220903 242.802307 
L 645.347737 243.302681 
L 645.474571 243.200126 
L 645.728239 241.162881 
L 645.981907 236.71116 
L 646.362409 225.813932 
L 646.996579 198.82074 
L 648.391754 133.411615 
L 648.89909 119.991417 
L 649.152758 116.765185 
L 649.406426 115.9553 
L 649.53326 116.435094 
L 649.786928 119.057889 
L 650.16743 126.641514 
L 650.8016 145.879844 
L 651.943107 181.463151 
L 652.450443 190.428637 
L 652.830945 193.187825 
L 652.957779 193.377521 
L 653.084613 193.231426 
L 653.338281 192.037123 
L 653.718783 188.473006 
L 655.113957 172.497037 
L 655.367625 171.335061 
L 655.621294 171.080415 
L 655.748128 171.297923 
L 656.001796 172.393585 
L 656.382298 175.482166 
L 657.016468 183.056151 
L 657.904306 193.4901 
L 658.411642 197.00075 
L 658.66531 197.789947 
L 658.792144 197.92438 
L 658.918979 197.881357 
L 659.172647 197.254618 
L 659.426315 195.897792 
L 659.806817 192.479918 
L 660.314153 185.36084 
L 660.948323 172.725778 
L 662.724 134.103563 
L 663.104502 130.745885 
L 663.35817 130.270551 
L 663.485004 130.586649 
L 663.738672 132.322902 
L 664.119174 137.550527 
L 664.62651 148.674529 
L 665.514348 174.693278 
L 666.402187 199.118734 
L 666.909523 207.95828 
L 667.290025 211.0754 
L 667.416859 211.412373 
L 667.543693 211.405946 
L 667.797361 210.413642 
L 668.177863 206.757225 
L 668.685199 198.85252 
L 669.95354 173.453643 
L 670.841378 157.850095 
L 671.348714 151.781567 
L 671.729216 149.341502 
L 671.982884 148.942759 
L 672.109718 149.145252 
L 672.363386 150.382837 
L 672.743888 154.296224 
L 673.251225 162.829624 
L 674.773233 192.435303 
L 675.153735 195.793578 
L 675.407403 196.506809 
L 675.534237 196.398737 
L 675.787905 195.287731 
L 676.168407 191.604459 
L 676.675744 183.84726 
L 678.324586 155.675429 
L 678.705088 152.1401 
L 678.958756 150.870278 
L 679.212424 150.554568 
L 679.339258 150.769015 
L 679.592926 151.95275 
L 679.973428 155.563078 
L 680.480765 163.28901 
L 681.875939 187.294725 
L 682.256441 190.012323 
L 682.383275 190.283364 
L 682.510109 190.223253 
L 682.763777 189.119163 
L 683.144279 185.199059 
L 683.651616 176.867745 
L 684.666288 159.599335 
L 685.04679 156.627072 
L 685.173624 156.34637 
L 685.300458 156.45354 
L 685.554126 157.864031 
L 685.934628 162.908251 
L 686.441964 174.202405 
L 687.837139 209.627984 
L 688.217641 213.81134 
L 688.344475 214.276849 
L 688.471309 214.246219 
L 688.598143 213.711506 
L 688.851811 211.136075 
L 689.232313 203.733987 
L 689.739649 188.63085 
L 691.261658 139.230496 
L 691.64216 132.841108 
L 691.895828 130.657381 
L 692.149496 130.136455 
L 692.27633 130.475216 
L 692.529998 132.265168 
L 692.9105 137.373532 
L 693.54467 150.349848 
L 694.813011 178.0643 
L 695.320347 184.911404 
L 695.700849 187.700633 
L 695.954517 188.536269 
L 696.208185 188.716987 
L 696.461853 188.443369 
L 697.222857 187.168576 
L 697.476525 187.24397 
L 697.730194 187.751515 
L 698.110696 189.264813 
L 698.998534 193.55297 
L 699.252202 193.968312 
L 699.379036 193.908736 
L 699.632704 193.169878 
L 699.886372 191.547404 
L 700.266874 187.491327 
L 700.901044 177.53264 
L 701.788883 163.339405 
L 702.169385 159.661112 
L 702.423053 158.466565 
L 702.549887 158.267379 
L 702.676721 158.328546 
L 702.930389 159.180437 
L 703.310891 161.938327 
L 704.452397 171.970154 
L 704.706066 172.743412 
L 704.8329 172.792959 
L 704.959734 172.610866 
L 705.213402 171.568487 
L 705.593904 168.523595 
L 707.115912 153.507935 
L 707.36958 153.007997 
L 707.496414 153.128697 
L 707.750082 154.139785 
L 708.130585 157.560329 
L 708.637921 165.311262 
L 709.398925 181.604053 
L 710.413597 203.560879 
L 710.920933 210.048645 
L 711.174601 211.290467 
L 711.301435 211.332479 
L 711.428269 210.970835 
L 711.681938 209.017279 
L 712.06244 203.10163 
L 712.569776 190.56446 
L 714.091784 148.144416 
L 714.472286 143.072357 
L 714.725954 141.687019 
L 714.852788 141.587684 
L 714.979622 141.865625 
L 715.233291 143.460409 
L 715.613793 147.974035 
L 717.516303 175.570573 
L 718.023639 178.35441 
L 718.530975 179.764754 
L 719.038312 181.256637 
L 719.418814 183.229512 
L 719.92615 187.492198 
L 721.321324 201.059645 
L 721.574992 201.440182 
L 721.701826 201.157815 
L 721.955494 199.549231 
L 722.335997 194.408553 
L 722.843333 182.801494 
L 723.858005 151.016061 
L 724.492175 134.259416 
L 724.872677 128.355419 
L 725.126345 126.642061 
L 725.253179 126.489482 
L 725.380013 126.806549 
L 725.633681 128.808758 
L 726.014184 134.911491 
L 726.52152 147.403997 
L 728.297196 195.671137 
L 729.0582 209.26191 
L 729.819205 219.385162 
L 730.326541 223.521954 
L 730.580209 224.217175 
L 730.707043 224.105978 
L 730.960711 222.804697 
L 731.214379 219.88117 
L 731.594881 212.143009 
L 732.102217 195.579992 
L 732.863222 160.986794 
L 733.877894 115.672076 
L 734.38523 102.351373 
L 734.638898 99.261639 
L 734.765732 98.674669 
L 734.892566 98.730733 
L 735.0194 99.423737 
L 735.273068 102.663904 
L 735.65357 111.790764 
L 736.160906 130.449152 
L 737.175579 179.546627 
L 737.936583 215.113409 
L 737.936583 215.113409 
" clip-path="url(#pc9797b7619)" style="fill: none; stroke: #000000; stroke-width: 1.5; stroke-linecap: square"/>
   </g>
   <g id="line2d_33">
    <path d="M 738.063417 215.440729 
L 738.190251 215.63534 
L 738.317085 215.470581 
L 738.570753 214.077878 
L 738.951255 209.481843 
L 739.458591 199.422923 
L 740.473264 172.557591 
L 741.234268 154.659521 
L 741.741604 146.929617 
L 742.122106 143.913434 
L 742.375774 143.251527 
L 742.502608 143.310656 
L 742.756276 144.165452 
L 743.136778 147.102414 
L 743.644115 153.474831 
L 744.658787 170.404043 
L 745.546625 183.927857 
L 746.053961 189.193801 
L 746.434463 191.62992 
L 746.814966 192.747113 
L 747.068634 192.800459 
L 747.322302 192.353494 
L 747.702804 190.876425 
L 748.21014 187.765267 
L 749.224812 179.624292 
L 752.395663 153.352284 
L 752.776165 152.225883 
L 752.902999 152.176494 
L 753.029833 152.312755 
L 753.283501 153.183934 
L 753.664003 156.063289 
L 754.17134 162.665911 
L 756.07385 191.750261 
L 756.454352 193.543774 
L 756.70802 193.752131 
L 756.961688 193.302924 
L 757.342191 191.73647 
L 759.371535 181.353634 
L 760.259373 177.384559 
L 761.147212 172.119863 
L 762.66922 162.907719 
L 763.557058 158.95197 
L 764.064394 157.470951 
L 764.444897 157.00976 
L 764.698565 157.131109 
L 764.952233 157.666053 
L 765.332735 159.33709 
L 765.840071 163.237754 
L 766.474241 170.337696 
L 767.869415 186.617931 
L 768.249918 189.006548 
L 768.503586 189.767231 
L 768.63042 189.881299 
L 768.757254 189.815694 
L 769.010922 189.153109 
L 769.391424 186.919199 
L 769.89876 182.089701 
L 771.420769 165.582054 
L 771.801271 163.585568 
L 772.054939 163.086573 
L 772.181773 163.096519 
L 772.435441 163.625227 
L 772.815943 165.583314 
L 773.323279 169.846047 
L 774.845287 183.980322 
L 775.352624 186.39236 
L 775.606292 186.94524 
L 775.85996 187.057679 
L 776.113628 186.744517 
L 776.49413 185.545589 
L 777.001466 182.853875 
L 779.157645 169.59807 
L 779.918649 166.861557 
L 781.440657 162.383454 
L 781.947993 161.382558 
L 782.328496 161.093663 
L 782.582164 161.19768 
L 782.835832 161.573651 
L 783.216334 162.676283 
L 783.72367 165.109074 
L 784.484674 170.259486 
L 785.879849 179.934828 
L 786.514019 182.715864 
L 787.021355 183.954794 
L 787.401857 184.386068 
L 787.782359 184.486642 
L 788.162861 184.333429 
L 788.670197 183.796534 
L 789.177534 182.850442 
L 789.68487 181.400952 
L 790.31904 178.787451 
L 791.080044 174.523555 
L 792.22155 166.451093 
L 793.109389 160.764081 
L 793.489891 159.45468 
L 793.743559 159.197483 
L 793.870393 159.281233 
L 794.124061 159.901687 
L 794.504563 161.982072 
L 795.011899 166.697002 
L 796.026572 179.536623 
L 796.787576 187.576853 
L 797.168078 189.922471 
L 797.421746 190.733615 
L 797.675414 190.939507 
L 797.929082 190.571954 
L 798.18275 189.687036 
L 798.563252 187.550937 
L 799.197422 182.508772 
L 801.480435 162.859122 
L 801.987771 160.285227 
L 802.368273 159.114948 
L 802.621941 158.722276 
L 802.875609 158.643409 
L 803.129278 158.872111 
L 803.50978 159.755938 
L 804.017116 161.791439 
L 804.904954 166.739016 
L 806.173294 173.682307 
L 807.187967 177.976854 
L 809.217311 185.423648 
L 809.597813 186.265437 
L 809.851481 186.529814 
L 810.10515 186.495617 
L 810.358818 186.125316 
L 810.73932 184.907527 
L 811.246656 182.140773 
L 812.134494 175.432278 
L 813.022332 169.179701 
L 813.529668 166.983278 
L 813.783337 166.443023 
L 814.037005 166.326389 
L 814.290673 166.65193 
L 814.544341 167.41552 
L 814.924843 169.304139 
L 815.685847 174.719736 
L 816.320017 178.886256 
L 816.700519 180.328519 
L 816.954187 180.665978 
L 817.081021 180.633738 
L 817.33469 180.171251 
L 817.715192 178.572792 
L 818.349362 174.274021 
L 819.364034 167.321486 
L 819.87137 165.337052 
L 820.251872 164.647013 
L 820.50554 164.506394 
L 820.759209 164.561078 
L 821.139711 164.886046 
L 822.408051 166.18412 
L 822.788553 166.238636 
L 823.169055 166.071284 
L 824.310562 165.247649 
L 824.56423 165.399008 
L 824.817898 165.840704 
L 825.1984 167.191028 
L 825.578902 169.481026 
L 826.086238 173.976241 
L 826.974076 184.463402 
L 827.988749 195.820611 
L 828.496085 199.443693 
L 828.876587 200.875427 
L 829.130255 201.172083 
L 829.257089 201.119513 
L 829.510757 200.611325 
L 829.891259 198.839668 
L 830.271761 195.852424 
L 830.779097 189.968222 
L 831.413268 179.707934 
L 833.442612 142.934452 
L 833.823114 140.146463 
L 834.076782 139.585265 
L 834.203616 139.701387 
L 834.457284 140.707063 
L 834.837787 144.000311 
L 835.345123 151.06002 
L 837.628135 188.044046 
L 838.135471 192.010463 
L 838.515974 193.384732 
L 838.769642 193.510767 
L 839.02331 193.006368 
L 839.276978 191.891633 
L 839.65748 189.16965 
L 840.29165 182.471803 
L 841.686824 166.398148 
L 842.194161 163.096191 
L 842.447829 162.292453 
L 842.701497 162.077851 
L 842.955165 162.433639 
L 843.208833 163.313645 
L 843.589335 165.460258 
L 844.350339 171.592777 
L 845.491846 180.94787 
L 846.126016 184.441913 
L 846.506518 185.63653 
L 846.760186 186.011347 
L 847.013854 186.039749 
L 847.267522 185.728021 
L 847.648024 184.668807 
L 848.15536 182.336378 
L 848.916365 177.499993 
L 850.057871 168.491733 
L 851.199377 159.655085 
L 851.579879 157.871451 
L 851.833547 157.280079 
L 851.960381 157.19087 
L 852.087215 157.24734 
L 852.340884 157.808645 
L 852.721386 159.752082 
L 853.228722 164.09861 
L 855.131232 182.736181 
L 855.511734 184.341103 
L 855.765402 184.873111 
L 856.019071 185.012541 
L 856.272739 184.806811 
L 856.653241 183.971828 
L 857.287411 181.665594 
L 858.428917 177.211583 
L 858.936253 176.049203 
L 859.316756 175.659708 
L 859.697258 175.617693 
L 860.71193 175.872244 
L 860.965598 175.646739 
L 861.219266 175.163493 
L 861.599768 173.824618 
L 861.98027 171.622978 
L 862.487606 167.297357 
L 864.263283 149.802655 
L 864.516951 149.30196 
L 864.643785 149.432183 
L 864.770619 149.835113 
L 864.770619 149.835113 
" clip-path="url(#pc9797b7619)" style="fill: none; stroke: #000000; stroke-width: 1.5; stroke-linecap: square"/>
   </g>
   <g id="line2d_34">
    <path d="M 864.897453 182.017006 
L 865.151121 179.063913 
L 865.531623 171.352036 
L 866.165793 151.802355 
L 867.434134 110.613711 
L 867.814636 104.155381 
L 868.068304 102.490567 
L 868.195138 102.542234 
L 868.321972 103.2139 
L 868.57564 106.457417 
L 868.956142 116.1363 
L 869.463478 137.305055 
L 870.351317 188.560116 
L 871.239155 235.92963 
L 871.746491 252.237893 
L 872.126993 258.003537 
L 872.380661 258.991335 
L 872.507495 258.739003 
L 872.761163 256.981137 
L 873.141665 251.992882 
L 874.029504 235.653775 
L 875.297844 209.519035 
L 875.932014 191.888811 
L 876.693018 163.303372 
L 878.849197 71.321855 
L 879.229699 65.1735 
L 879.356533 64.492688 
L 879.483367 64.546628 
L 879.610201 65.354796 
L 879.863869 69.273722 
L 880.244371 80.849815 
L 880.751708 105.931297 
L 881.512712 157.847956 
L 882.781052 244.721549 
L 883.288388 266.627288 
L 883.66889 275.50261 
L 883.922559 277.593649 
L 884.049393 277.497767 
L 884.303061 275.098554 
L 884.683563 266.377635 
L 885.190899 246.789544 
L 886.078737 199.77318 
L 887.093409 147.75612 
L 887.72758 126.238875 
L 888.108082 118.776785 
L 888.488584 115.302115 
L 888.615418 114.958964 
L 888.742252 114.989217 
L 888.99592 116.078347 
L 889.376422 119.930412 
L 889.883758 128.255511 
L 890.771596 148.008184 
L 892.293605 182.263254 
L 892.927775 192.318954 
L 893.435111 197.746434 
L 893.815613 200.140348 
L 894.069281 200.901626 
L 894.196115 201.03106 
L 894.322949 200.996158 
L 894.576618 200.454888 
L 894.95712 198.606222 
L 895.59129 193.803473 
L 896.352294 188.30014 
L 896.732796 186.695224 
L 896.986464 186.159572 
L 897.240132 186.00773 
L 897.4938 186.152322 
L 898.508473 187.201254 
L 898.762141 186.943782 
L 899.015809 186.263087 
L 899.396311 184.282201 
L 899.776813 180.991121 
L 900.284149 174.455818 
L 901.045153 160.772049 
L 902.18666 139.256717 
L 902.693996 133.518851 
L 902.947664 132.19277 
L 903.074498 131.958057 
L 903.201332 132.016132 
L 903.455 133.010199 
L 903.835502 136.603604 
L 904.342838 144.714693 
L 905.357511 166.531766 
L 906.118515 181.144901 
L 906.752685 189.236847 
L 907.260021 192.826961 
L 907.640523 194.059566 
L 907.894191 194.292801 
L 908.147859 194.122092 
L 908.401527 193.605334 
L 908.908864 191.801199 
L 910.05037 187.248358 
L 910.430872 186.693397 
L 910.68454 186.747305 
L 910.938208 187.123056 
L 911.31871 188.162424 
L 912.460217 191.825404 
L 912.713885 192.167309 
L 912.967553 192.170291 
L 913.221221 191.76148 
L 913.474889 190.862915 
L 913.855391 188.420521 
L 914.235893 184.459714 
L 914.743229 176.711408 
L 916.392072 147.558801 
L 916.64574 146.061145 
L 916.772574 145.863526 
L 916.899408 146.042541 
L 917.153076 147.505013 
L 917.533578 152.130823 
L 919.055586 174.923281 
L 919.182421 175.246477 
L 919.309255 175.151996 
L 919.562923 173.69131 
L 919.943425 168.516183 
L 920.577595 154.470339 
L 921.338599 138.018743 
L 921.719101 133.86743 
L 921.845935 133.380999 
L 921.972769 133.378828 
L 922.099603 133.868971 
L 922.353271 136.310108 
L 922.733774 143.34971 
L 923.24111 157.612322 
L 925.14362 217.180578 
L 925.650956 226.418137 
L 926.031458 230.49577 
L 926.285127 231.768582 
L 926.411961 231.957872 
L 926.538795 231.84475 
L 926.792463 230.703369 
L 927.046131 228.339408 
L 927.426633 222.542864 
L 927.933969 210.928535 
L 928.694973 187.368488 
L 929.83648 151.606226 
L 930.343816 141.622507 
L 930.724318 137.855099 
L 930.977986 137.11587 
L 931.10482 137.233938 
L 931.358488 138.322131 
L 931.73899 141.612131 
L 933.260999 157.717016 
L 933.641501 159.174307 
L 933.768335 159.302962 
L 933.895169 159.252001 
L 934.148837 158.627926 
L 934.529339 156.526784 
L 935.290343 149.99147 
L 935.797679 146.4381 
L 936.051347 145.732249 
L 936.178181 145.760169 
L 936.305015 146.077801 
L 936.558683 147.663556 
L 936.939186 152.58775 
L 937.446522 163.79833 
L 938.207526 187.800525 
L 939.349032 224.768359 
L 939.856368 235.819226 
L 940.236871 240.55257 
L 940.490539 241.818999 
L 940.617373 241.866943 
L 940.744207 241.522562 
L 940.997875 239.666527 
L 941.378377 234.065742 
L 941.885713 221.861431 
L 942.646717 195.96828 
L 944.422394 131.069205 
L 945.056564 116.212505 
L 945.5639 108.752331 
L 945.944402 105.520973 
L 946.19807 104.406333 
L 946.451738 104.100641 
L 946.578572 104.253113 
L 946.83224 105.187927 
L 947.212743 108.248991 
L 947.593245 113.445264 
L 948.100581 123.852842 
L 948.734751 142.188393 
L 949.622589 175.462867 
L 951.398266 244.756989 
L 951.905602 256.83387 
L 952.286104 261.561889 
L 952.539772 262.479343 
L 952.666606 262.269917 
L 952.920274 260.565805 
L 953.300776 255.066325 
L 953.808112 243.252519 
L 954.569117 219.345621 
L 957.232631 130.675894 
L 958.12047 110.526181 
L 958.881474 98.076617 
L 959.515644 91.313513 
L 959.896146 89.265116 
L 960.149814 88.989587 
L 960.276648 89.239663 
L 960.530316 90.62933 
L 960.783984 93.361815 
L 961.164486 100.364501 
L 961.671823 115.764131 
L 962.305993 144.728306 
L 963.320665 205.239803 
L 964.208503 254.875462 
L 964.842674 278.59984 
L 965.223176 286.284076 
L 965.476844 288.461697 
L 965.603678 288.66363 
L 965.730512 288.282253 
L 965.98418 285.816561 
L 966.364682 278.127885 
L 966.872018 261.467786 
L 967.633022 226.684928 
L 970.169703 100.170327 
L 970.677039 86.223162 
L 971.057541 80.546678 
L 971.311209 79.149183 
L 971.438043 79.161516 
L 971.564877 79.63844 
L 971.818546 81.943 
L 972.199048 88.567005 
L 972.706384 102.599165 
L 973.467388 132.193055 
L 975.750401 229.673567 
L 976.384571 246.055249 
L 976.891907 254.096586 
L 977.272409 256.90825 
L 977.399243 257.178429 
L 977.526077 257.094513 
L 977.779745 255.808893 
L 978.033413 252.944716 
L 978.413915 245.491978 
L 978.921252 229.445891 
L 979.555422 200.187536 
L 980.696928 132.363529 
L 981.584766 84.228609 
L 982.092102 65.638689 
L 982.472605 57.769927 
L 982.726273 55.8 
L 982.853107 55.853584 
L 982.979941 56.617445 
L 983.233609 60.31343 
L 983.614111 71.328317 
L 984.121447 95.915113 
L 984.755617 140.101988 
L 986.531294 276.730638 
L 987.03863 298.429844 
L 987.419132 306.405174 
L 987.6728 307.8 
L 987.799634 307.377166 
L 988.053302 304.434344 
L 988.433804 295.298873 
L 988.94114 275.947659 
L 989.702145 236.908915 
L 991.604655 135.639155 
L 991.604655 135.639155 
" clip-path="url(#pc9797b7619)" style="fill: none; stroke: #000000; stroke-width: 1.5; stroke-linecap: square"/>
   </g>
   <g id="line2d_35">
    <path d="M 991.731489 143.54086 
L 992.111991 139.352418 
L 992.365659 138.249048 
L 992.492493 138.231826 
L 992.619327 138.574548 
L 992.872995 140.319732 
L 993.253498 145.404303 
L 993.760834 155.856199 
L 995.282842 190.972963 
L 995.663344 195.385657 
L 995.917012 196.655514 
L 996.043846 196.774526 
L 996.17068 196.555824 
L 996.424348 195.155346 
L 996.804851 190.95753 
L 997.439021 180.385839 
L 998.326859 165.53324 
L 998.834195 160.500784 
L 999.087863 159.362542 
L 999.214697 159.155462 
L 999.341531 159.1882 
L 999.595199 159.95243 
L 999.975702 162.704762 
L 1000.483038 168.758987 
L 1002.005046 189.439576 
L 1002.385548 191.669207 
L 1002.639216 192.028828 
L 1002.76605 191.863718 
L 1003.019718 190.86866 
L 1003.40022 187.881433 
L 1003.907557 181.796271 
L 1005.810067 156.785116 
L 1006.190569 154.482795 
L 1006.444237 153.865555 
L 1006.571071 153.854393 
L 1006.697905 154.046694 
L 1006.951573 155.042292 
L 1007.332076 157.992995 
L 1007.839412 164.157179 
L 1009.488254 186.362522 
L 1009.868756 188.67785 
L 1010.122424 189.294873 
L 1010.249258 189.328838 
L 1010.502927 188.882967 
L 1010.883429 187.114843 
L 1011.517599 182.395794 
L 1012.405437 175.881885 
L 1013.039607 172.974053 
L 1014.307948 168.497281 
L 1014.815284 165.320252 
L 1016.210458 155.092012 
L 1016.464126 154.581112 
L 1016.59096 154.658078 
L 1016.844628 155.570735 
L 1017.098296 157.576597 
L 1017.478798 162.693096 
L 1017.986135 173.008984 
L 1019.508143 207.504084 
L 1019.888645 210.573297 
L 1020.015479 210.704096 
L 1020.142313 210.362277 
L 1020.395981 208.253476 
L 1020.776483 201.705561 
L 1021.28382 187.96418 
L 1022.678994 146.796344 
L 1023.059496 140.976084 
L 1023.313164 139.078347 
L 1023.439998 138.722113 
L 1023.566832 138.747099 
L 1023.8205 139.872364 
L 1024.201002 143.90732 
L 1024.708339 152.517832 
L 1026.864517 193.44413 
L 1027.371853 197.812968 
L 1027.625521 198.803263 
L 1027.752355 198.993084 
L 1027.879189 198.98063 
L 1028.132858 198.361844 
L 1028.386526 196.986848 
L 1028.767028 193.643771 
L 1029.401198 185.364433 
L 1031.557376 153.372978 
L 1031.937879 150.875503 
L 1032.191547 150.168331 
L 1032.318381 150.111625 
L 1032.445215 150.251832 
L 1032.698883 151.105338 
L 1033.079385 153.691511 
L 1033.586721 159.005676 
L 1035.489232 181.070423 
L 1037.772244 201.202683 
L 1038.025912 202.043469 
L 1038.152746 202.146865 
L 1038.27958 202.010688 
L 1038.533248 200.952592 
L 1038.786917 198.770595 
L 1039.167419 193.341222 
L 1039.674755 182.516764 
L 1041.323597 142.789803 
L 1041.704099 139.002426 
L 1041.957767 138.396725 
L 1042.084601 138.670462 
L 1042.33827 140.305418 
L 1042.718772 145.104895 
L 1043.352942 157.007176 
L 1044.367614 175.945277 
L 1044.87495 182.099153 
L 1045.382286 185.559165 
L 1045.762789 186.609322 
L 1046.016457 186.699816 
L 1046.270125 186.376728 
L 1046.650627 185.227354 
L 1047.157963 182.655236 
L 1047.918967 177.274275 
L 1048.679971 172.128302 
L 1049.060473 170.739064 
L 1049.314142 170.539439 
L 1049.440976 170.687802 
L 1049.694644 171.499725 
L 1050.075146 173.952134 
L 1050.709316 180.438539 
L 1051.597154 189.663667 
L 1051.977656 191.8423 
L 1052.231324 192.369986 
L 1052.358158 192.335498 
L 1052.611826 191.665419 
L 1052.992329 189.227202 
L 1053.499665 183.708605 
L 1054.387503 170.389287 
L 1055.402175 155.581242 
L 1055.909511 150.507871 
L 1056.290014 148.191022 
L 1056.543682 147.401408 
L 1056.79735 147.212594 
L 1057.051018 147.606258 
L 1057.304686 148.557425 
L 1057.685188 150.972011 
L 1058.192524 155.924168 
L 1058.826694 164.665513 
L 1060.856039 195.757186 
L 1061.109707 197.151852 
L 1061.363375 197.561497 
L 1061.490209 197.398787 
L 1061.743877 196.379147 
L 1062.124379 193.349613 
L 1062.758549 185.834951 
L 1063.646388 175.605904 
L 1064.153724 172.207967 
L 1064.534226 171.168234 
L 1064.787894 171.138881 
L 1065.041562 171.562225 
L 1065.422064 172.865015 
L 1066.056234 176.119234 
L 1067.070907 181.482848 
L 1067.451409 182.706708 
L 1067.705077 183.06585 
L 1067.831911 183.078497 
L 1068.085579 182.721751 
L 1068.339247 181.801585 
L 1068.719749 179.25368 
L 1069.227085 173.590399 
L 1069.861255 163.408249 
L 1071.002762 144.047274 
L 1071.383264 140.260991 
L 1071.636932 139.077671 
L 1071.763766 138.930389 
L 1071.8906 139.088099 
L 1072.144268 140.314837 
L 1072.52477 144.311439 
L 1073.032106 152.963051 
L 1073.919945 173.110979 
L 1075.061451 198.353007 
L 1075.695621 208.121634 
L 1076.076123 211.647655 
L 1076.329791 212.880527 
L 1076.583459 213.179673 
L 1076.710293 212.97648 
L 1076.963961 211.87382 
L 1077.344464 208.548386 
L 1077.8518 201.327763 
L 1078.612804 186.15389 
L 1080.134812 154.239992 
L 1080.768982 145.625236 
L 1081.276319 141.669262 
L 1081.656821 140.401463 
L 1081.783655 140.293031 
L 1081.910489 140.339538 
L 1082.164157 140.895725 
L 1082.417825 142.074105 
L 1082.798327 145.039505 
L 1083.305663 151.313737 
L 1083.939833 162.766405 
L 1085.969178 203.745791 
L 1086.34968 206.323068 
L 1086.476514 206.546597 
L 1086.603348 206.443045 
L 1086.857016 205.260958 
L 1087.237518 201.184499 
L 1087.744854 192.225533 
L 1089.647365 154.161546 
L 1090.027867 151.128411 
L 1090.281535 150.431783 
L 1090.408369 150.479301 
L 1090.662037 151.336919 
L 1091.042539 154.374401 
L 1091.549876 161.060722 
L 1093.57922 192.077621 
L 1093.959722 194.313572 
L 1094.21339 194.753067 
L 1094.340224 194.650088 
L 1094.593892 193.804331 
L 1094.974395 191.007923 
L 1095.481731 184.826847 
L 1096.496403 168.117474 
L 1097.257407 157.164136 
L 1097.764743 152.808833 
L 1098.018411 151.776046 
L 1098.272079 151.559595 
L 1098.525748 152.165549 
L 1098.779416 153.571433 
L 1099.159918 157.054639 
L 1099.794088 165.649045 
L 1101.189262 185.923784 
L 1101.696598 190.239722 
L 1102.077101 191.934048 
L 1102.330769 192.369024 
L 1102.457603 192.395187 
L 1102.711271 192.097519 
L 1102.964939 191.373937 
L 1103.345441 189.572973 
L 1103.852777 185.931863 
L 1104.486947 179.414854 
L 1105.374785 167.241649 
L 1106.389458 153.927598 
L 1106.76996 151.054688 
L 1107.023628 150.170318 
L 1107.150462 150.068767 
L 1107.277296 150.201164 
L 1107.530964 151.169192 
L 1107.911466 154.305323 
L 1108.418802 161.159364 
L 1109.306641 177.430632 
L 1110.321313 195.153556 
L 1110.828649 200.586644 
L 1111.082317 201.941816 
L 1111.335985 202.257128 
L 1111.462819 202.007052 
L 1111.716487 200.68013 
L 1112.096989 196.683614 
L 1112.604326 188.129117 
L 1114.380002 153.084831 
L 1114.760504 149.888838 
L 1115.014172 149.139045 
L 1115.141006 149.166762 
L 1115.394674 149.965134 
L 1115.775176 152.731133 
L 1116.409347 159.887136 
L 1117.550853 172.834997 
L 1118.311857 178.77331 
L 1118.438691 179.593081 
L 1118.438691 179.593081 
" clip-path="url(#pc9797b7619)" style="fill: none; stroke: #000000; stroke-width: 1.5; stroke-linecap: square"/>
   </g>
   <g id="line2d_36">
    <path d="M 1118.565525 163.904979 
L 1120.341202 245.555491 
L 1120.848538 258.322891 
L 1121.22904 262.938444 
L 1121.482708 263.558444 
L 1121.609542 263.127889 
L 1121.86321 260.814371 
L 1122.243712 253.787709 
L 1122.751048 238.213098 
L 1123.385219 210.266545 
L 1124.653559 140.014208 
L 1125.668231 89.164568 
L 1126.302401 68.054127 
L 1126.682904 61.410384 
L 1126.936572 59.935553 
L 1127.063406 60.138348 
L 1127.317074 62.468451 
L 1127.570742 67.36553 
L 1127.951244 79.336546 
L 1128.45858 102.869497 
L 1129.346418 157.150017 
L 1130.487925 225.61608 
L 1131.122095 252.076715 
L 1131.629431 264.936735 
L 1132.009933 269.624368 
L 1132.263601 270.478042 
L 1132.390435 270.252195 
L 1132.644103 268.548212 
L 1133.024605 263.022209 
L 1133.531941 250.497913 
L 1134.166112 227.215363 
L 1134.927116 189.667241 
L 1136.829626 88.674209 
L 1137.336963 73.709783 
L 1137.717465 68.764573 
L 1137.844299 68.424369 
L 1137.971133 68.755282 
L 1138.224801 71.435504 
L 1138.605303 80.35768 
L 1139.112639 100.37273 
L 1139.873643 142.105235 
L 1141.141984 213.255286 
L 1141.776154 237.216147 
L 1142.28349 247.908029 
L 1142.537158 250.362456 
L 1142.790826 250.995499 
L 1142.91766 250.670895 
L 1143.171328 248.838056 
L 1143.55183 243.44038 
L 1144.059166 232.079692 
L 1144.693337 212.375391 
L 1145.581175 176.879381 
L 1146.976349 119.639698 
L 1147.483685 105.978769 
L 1147.864188 100.127178 
L 1148.117856 98.54671 
L 1148.24469 98.471724 
L 1148.371524 98.874926 
L 1148.625192 101.101527 
L 1149.005694 107.879848 
L 1149.51303 122.830591 
L 1150.1472 149.437547 
L 1152.176545 245.063286 
L 1152.557047 253.178177 
L 1152.810715 255.223964 
L 1152.937549 255.174406 
L 1153.064383 254.398974 
L 1153.318051 250.683856 
L 1153.698553 239.960368 
L 1154.205889 217.557093 
L 1156.1084 119.964575 
L 1156.488902 111.415974 
L 1156.74257 109.063831 
L 1156.869404 108.883458 
L 1156.996238 109.34411 
L 1157.249906 112.075304 
L 1157.630408 120.111693 
L 1158.264579 140.574664 
L 1159.406085 178.508044 
L 1159.913421 188.146427 
L 1160.293923 191.238872 
L 1160.420757 191.519091 
L 1160.547591 191.458817 
L 1160.801259 190.435059 
L 1161.181761 187.171467 
L 1162.450102 173.881411 
L 1162.70377 172.750891 
L 1162.957438 172.502021 
L 1163.084272 172.719877 
L 1163.33794 173.825273 
L 1163.718442 176.986856 
L 1164.352612 184.93299 
L 1165.367285 197.734049 
L 1165.874621 201.506489 
L 1166.128289 202.426444 
L 1166.381957 202.636135 
L 1166.508791 202.460784 
L 1166.762459 201.521561 
L 1167.142961 198.556317 
L 1167.523463 193.60562 
L 1168.030799 183.845724 
L 1168.791804 163.53101 
L 1169.93331 131.903089 
L 1170.440646 123.828292 
L 1170.694314 122.152614 
L 1170.821148 121.959318 
L 1170.947982 122.202083 
L 1171.20165 123.981091 
L 1171.582152 129.709535 
L 1172.089488 142.183482 
L 1172.977327 171.860992 
L 1173.865165 200.400369 
L 1174.372501 211.088162 
L 1174.753003 215.154554 
L 1175.006671 215.901891 
L 1175.133505 215.712363 
L 1175.387173 214.297892 
L 1175.767676 209.954712 
L 1176.401846 198.609288 
L 1178.811692 149.936192 
L 1179.192194 146.704961 
L 1179.445863 146.037279 
L 1179.572697 146.192965 
L 1179.826365 147.518918 
L 1180.206867 152.005366 
L 1180.714203 161.961507 
L 1182.236211 195.771361 
L 1182.616713 199.271922 
L 1182.870382 199.848294 
L 1182.997216 199.613218 
L 1183.250884 198.153935 
L 1183.631386 193.780304 
L 1184.265556 182.390206 
L 1185.787564 153.068082 
L 1186.2949 147.875923 
L 1186.548569 146.773894 
L 1186.675403 146.639656 
L 1186.802237 146.794478 
L 1187.055905 147.989317 
L 1187.436407 151.96055 
L 1187.943743 160.743256 
L 1189.338917 187.804084 
L 1189.719419 190.523792 
L 1189.846254 190.69384 
L 1189.973088 190.487692 
L 1190.226756 188.978691 
L 1190.607258 184.27146 
L 1191.241428 172.261908 
L 1192.002432 158.470841 
L 1192.382934 154.992494 
L 1192.509768 154.60681 
L 1192.636602 154.650034 
L 1192.763436 155.136721 
L 1193.017104 157.460023 
L 1193.397607 164.176887 
L 1193.904943 177.951763 
L 1195.173283 215.319919 
L 1195.553785 220.836621 
L 1195.807453 221.932034 
L 1195.934287 221.642844 
L 1196.187955 219.36647 
L 1196.568457 211.890377 
L 1197.075794 195.692359 
L 1198.724636 135.663386 
L 1199.105138 128.576712 
L 1199.358806 126.048669 
L 1199.612474 125.254558 
L 1199.739308 125.478657 
L 1199.992976 127.079619 
L 1200.373479 132.007359 
L 1200.880815 142.086813 
L 1202.529657 178.412756 
L 1203.036993 184.388382 
L 1203.417495 186.719158 
L 1203.797997 187.727765 
L 1204.559002 188.831463 
L 1204.939504 190.306094 
L 1205.44684 193.737045 
L 1206.334678 200.159506 
L 1206.588346 200.813875 
L 1206.71518 200.79182 
L 1206.842014 200.510825 
L 1207.095682 199.131034 
L 1207.476185 195.026122 
L 1207.983521 186.420907 
L 1209.251861 162.79628 
L 1209.632363 159.220203 
L 1209.886031 158.321838 
L 1210.012865 158.320514 
L 1210.266533 159.146 
L 1210.647035 162.050925 
L 1211.661708 171.68562 
L 1211.915376 172.675096 
L 1212.04221 172.791281 
L 1212.169044 172.640454 
L 1212.422712 171.538906 
L 1212.803214 168.075697 
L 1213.564218 157.459777 
L 1214.198388 149.717278 
L 1214.578891 147.463623 
L 1214.705725 147.246042 
L 1214.832559 147.315827 
L 1215.086227 148.33804 
L 1215.339895 150.534022 
L 1215.720397 155.9073 
L 1216.227733 166.364034 
L 1217.369239 196.676537 
L 1218.00341 210.982451 
L 1218.383912 216.105933 
L 1218.63758 217.498371 
L 1218.764414 217.514479 
L 1218.891248 217.057962 
L 1219.144916 214.712773 
L 1219.525418 207.761836 
L 1220.032754 193.28858 
L 1221.427928 148.870011 
L 1221.808431 142.318734 
L 1222.062099 140.108596 
L 1222.315767 139.608829 
L 1222.442601 139.958017 
L 1222.696269 141.712243 
L 1223.076771 146.412464 
L 1224.725613 170.667226 
L 1225.23295 174.4122 
L 1226.628124 182.291592 
L 1227.13546 187.941062 
L 1228.657469 208.230074 
L 1228.911137 208.983359 
L 1229.037971 208.780069 
L 1229.291639 207.099319 
L 1229.545307 203.650708 
L 1229.925809 195.248811 
L 1230.559979 174.400394 
L 1231.828319 129.497463 
L 1232.208822 121.699281 
L 1232.46249 118.985839 
L 1232.589324 118.424672 
L 1232.716158 118.397352 
L 1232.842992 118.896816 
L 1233.09666 121.409819 
L 1233.477162 128.536152 
L 1234.111332 146.600113 
L 1235.760175 196.572581 
L 1236.901681 222.139021 
L 1237.535851 233.126256 
L 1237.916353 236.944747 
L 1238.170021 237.607601 
L 1238.296855 237.242406 
L 1238.550523 234.935965 
L 1238.804191 230.355868 
L 1239.184694 219.064874 
L 1239.69203 196.461074 
L 1241.721374 93.479887 
L 1242.101876 86.912721 
L 1242.22871 86.182909 
L 1242.355544 86.185347 
L 1242.482378 86.909938 
L 1242.736047 90.448835 
L 1243.116549 100.548561 
L 1243.623885 121.349096 
L 1244.511723 169.857525 
L 1245.272727 212.953177 
L 1245.272727 212.953177 
" clip-path="url(#pc9797b7619)" style="fill: none; stroke: #000000; stroke-width: 1.5; stroke-linecap: square"/>
   </g>
   <g id="line2d_37">
    <path d="M 357.561309 320.4 
L 357.561309 43.2 
" clip-path="url(#pc9797b7619)" style="fill: none; stroke-dasharray: 5.55,2.4; stroke-dashoffset: 0; stroke: #ff0000; stroke-width: 1.5"/>
   </g>
   <g id="line2d_38">
    <path d="M 484.395345 320.4 
L 484.395345 43.2 
" clip-path="url(#pc9797b7619)" style="fill: none; stroke-dasharray: 5.55,2.4; stroke-dashoffset: 0; stroke: #ff0000; stroke-width: 1.5"/>
   </g>
   <g id="line2d_39">
    <path d="M 611.229381 320.4 
L 611.229381 43.2 
" clip-path="url(#pc9797b7619)" style="fill: none; stroke-dasharray: 5.55,2.4; stroke-dashoffset: 0; stroke: #ff0000; stroke-width: 1.5"/>
   </g>
   <g id="line2d_40">
    <path d="M 738.063417 320.4 
L 738.063417 43.2 
" clip-path="url(#pc9797b7619)" style="fill: none; stroke-dasharray: 5.55,2.4; stroke-dashoffset: 0; stroke: #ff0000; stroke-width: 1.5"/>
   </g>
   <g id="line2d_41">
    <path d="M 864.897453 320.4 
L 864.897453 43.2 
" clip-path="url(#pc9797b7619)" style="fill: none; stroke-dasharray: 5.55,2.4; stroke-dashoffset: 0; stroke: #ff0000; stroke-width: 1.5"/>
   </g>
   <g id="line2d_42">
    <path d="M 991.731489 320.4 
L 991.731489 43.2 
" clip-path="url(#pc9797b7619)" style="fill: none; stroke-dasharray: 5.55,2.4; stroke-dashoffset: 0; stroke: #ff0000; stroke-width: 1.5"/>
   </g>
   <g id="line2d_43">
    <path d="M 1118.565525 320.4 
L 1118.565525 43.2 
" clip-path="url(#pc9797b7619)" style="fill: none; stroke-dasharray: 5.55,2.4; stroke-dashoffset: 0; stroke: #ff0000; stroke-width: 1.5"/>
   </g>
   <g id="patch_3">
    <path d="M 180 320.4 
L 180 43.2 
" style="fill: none; stroke: #000000; stroke-width: 0.8; stroke-linejoin: miter; stroke-linecap: square"/>
   </g>
   <g id="patch_4">
    <path d="M 180 320.4 
L 1296 320.4 
" style="fill: none; stroke: #000000; stroke-width: 0.8; stroke-linejoin: miter; stroke-linecap: square"/>
   </g>
   <g id="text_17">
    <!-- Piecewise NARMAX Model - Velocity -->
    <g transform="translate(511.88625 36.9855) scale(0.288 -0.288)">
     <defs>
      <path id="TimesNewRomanPSMT-50" d="M 1313 1984 
L 1313 750 
Q 1313 350 1400 253 
Q 1519 116 1759 116 
L 1922 116 
L 1922 0 
L 106 0 
L 106 116 
L 266 116 
Q 534 116 650 291 
Q 713 388 713 750 
L 713 3488 
Q 713 3888 628 3984 
Q 506 4122 266 4122 
L 106 4122 
L 106 4238 
L 1659 4238 
Q 2228 4238 2556 4120 
Q 2884 4003 3109 3725 
Q 3334 3447 3334 3066 
Q 3334 2547 2992 2222 
Q 2650 1897 2025 1897 
Q 1872 1897 1694 1919 
Q 1516 1941 1313 1984 
z
M 1313 2163 
Q 1478 2131 1606 2115 
Q 1734 2100 1825 2100 
Q 2150 2100 2386 2351 
Q 2622 2603 2622 3003 
Q 2622 3278 2509 3514 
Q 2397 3750 2190 3867 
Q 1984 3984 1722 3984 
Q 1563 3984 1313 3925 
L 1313 2163 
z
" transform="scale(0.015625)"/>
      <path id="TimesNewRomanPSMT-63" d="M 2631 1088 
Q 2516 522 2178 217 
Q 1841 -88 1431 -88 
Q 944 -88 581 321 
Q 219 731 219 1428 
Q 219 2103 620 2525 
Q 1022 2947 1584 2947 
Q 2006 2947 2278 2723 
Q 2550 2500 2550 2259 
Q 2550 2141 2473 2067 
Q 2397 1994 2259 1994 
Q 2075 1994 1981 2113 
Q 1928 2178 1911 2362 
Q 1894 2547 1784 2644 
Q 1675 2738 1481 2738 
Q 1169 2738 978 2506 
Q 725 2200 725 1697 
Q 725 1184 976 792 
Q 1228 400 1656 400 
Q 1963 400 2206 609 
Q 2378 753 2541 1131 
L 2631 1088 
z
" transform="scale(0.015625)"/>
      <path id="TimesNewRomanPSMT-77" d="M 41 2863 
L 1241 2863 
L 1241 2747 
Q 1075 2734 1023 2687 
Q 972 2641 972 2553 
Q 972 2456 1025 2319 
L 1638 672 
L 2253 2013 
L 2091 2434 
Q 2016 2622 1894 2694 
Q 1825 2738 1638 2747 
L 1638 2863 
L 3000 2863 
L 3000 2747 
Q 2775 2738 2681 2666 
Q 2619 2616 2619 2506 
Q 2619 2444 2644 2378 
L 3294 734 
L 3897 2319 
Q 3959 2488 3959 2588 
Q 3959 2647 3898 2694 
Q 3838 2741 3659 2747 
L 3659 2863 
L 4563 2863 
L 4563 2747 
Q 4291 2706 4163 2378 
L 3206 -88 
L 3078 -88 
L 2363 1741 
L 1528 -88 
L 1413 -88 
L 494 2319 
Q 403 2547 315 2626 
Q 228 2706 41 2747 
L 41 2863 
z
" transform="scale(0.015625)"/>
      <path id="TimesNewRomanPSMT-73" d="M 2050 2947 
L 2050 1972 
L 1947 1972 
Q 1828 2431 1642 2597 
Q 1456 2763 1169 2763 
Q 950 2763 815 2647 
Q 681 2531 681 2391 
Q 681 2216 781 2091 
Q 878 1963 1175 1819 
L 1631 1597 
Q 2266 1288 2266 781 
Q 2266 391 1970 151 
Q 1675 -88 1309 -88 
Q 1047 -88 709 6 
Q 606 38 541 38 
Q 469 38 428 -44 
L 325 -44 
L 325 978 
L 428 978 
Q 516 541 762 319 
Q 1009 97 1316 97 
Q 1531 97 1667 223 
Q 1803 350 1803 528 
Q 1803 744 1651 891 
Q 1500 1038 1047 1263 
Q 594 1488 453 1669 
Q 313 1847 313 2119 
Q 313 2472 555 2709 
Q 797 2947 1181 2947 
Q 1350 2947 1591 2875 
Q 1750 2828 1803 2828 
Q 1853 2828 1881 2850 
Q 1909 2872 1947 2947 
L 2050 2947 
z
" transform="scale(0.015625)"/>
      <path id="TimesNewRomanPSMT-20" transform="scale(0.015625)"/>
      <path id="TimesNewRomanPSMT-4e" d="M -84 4238 
L 1066 4238 
L 3656 1059 
L 3656 3503 
Q 3656 3894 3569 3991 
Q 3453 4122 3203 4122 
L 3056 4122 
L 3056 4238 
L 4531 4238 
L 4531 4122 
L 4381 4122 
Q 4113 4122 4000 3959 
Q 3931 3859 3931 3503 
L 3931 -69 
L 3819 -69 
L 1025 3344 
L 1025 734 
Q 1025 344 1109 247 
Q 1228 116 1475 116 
L 1625 116 
L 1625 0 
L 150 0 
L 150 116 
L 297 116 
Q 569 116 681 278 
Q 750 378 750 734 
L 750 3681 
Q 566 3897 470 3965 
Q 375 4034 191 4094 
Q 100 4122 -84 4122 
L -84 4238 
z
" transform="scale(0.015625)"/>
      <path id="TimesNewRomanPSMT-41" d="M 2928 1419 
L 1288 1419 
L 1000 750 
Q 894 503 894 381 
Q 894 284 986 211 
Q 1078 138 1384 116 
L 1384 0 
L 50 0 
L 50 116 
Q 316 163 394 238 
Q 553 388 747 847 
L 2238 4334 
L 2347 4334 
L 3822 809 
Q 4000 384 4145 257 
Q 4291 131 4550 116 
L 4550 0 
L 2878 0 
L 2878 116 
Q 3131 128 3220 200 
Q 3309 272 3309 375 
Q 3309 513 3184 809 
L 2928 1419 
z
M 2841 1650 
L 2122 3363 
L 1384 1650 
L 2841 1650 
z
" transform="scale(0.015625)"/>
      <path id="TimesNewRomanPSMT-52" d="M 4325 0 
L 3194 0 
L 1759 1981 
Q 1600 1975 1500 1975 
Q 1459 1975 1412 1976 
Q 1366 1978 1316 1981 
L 1316 750 
Q 1316 350 1403 253 
Q 1522 116 1759 116 
L 1925 116 
L 1925 0 
L 109 0 
L 109 116 
L 269 116 
Q 538 116 653 291 
Q 719 388 719 750 
L 719 3488 
Q 719 3888 631 3984 
Q 509 4122 269 4122 
L 109 4122 
L 109 4238 
L 1653 4238 
Q 2328 4238 2648 4139 
Q 2969 4041 3192 3777 
Q 3416 3513 3416 3147 
Q 3416 2756 3161 2468 
Q 2906 2181 2372 2063 
L 3247 847 
Q 3547 428 3762 290 
Q 3978 153 4325 116 
L 4325 0 
z
M 1316 2178 
Q 1375 2178 1419 2176 
Q 1463 2175 1491 2175 
Q 2097 2175 2405 2437 
Q 2713 2700 2713 3106 
Q 2713 3503 2464 3751 
Q 2216 4000 1806 4000 
Q 1625 4000 1316 3941 
L 1316 2178 
z
" transform="scale(0.015625)"/>
      <path id="TimesNewRomanPSMT-4d" d="M 2619 0 
L 981 3566 
L 981 734 
Q 981 344 1066 247 
Q 1181 116 1431 116 
L 1581 116 
L 1581 0 
L 106 0 
L 106 116 
L 256 116 
Q 525 116 638 278 
Q 706 378 706 734 
L 706 3503 
Q 706 3784 644 3909 
Q 600 4000 483 4061 
Q 366 4122 106 4122 
L 106 4238 
L 1306 4238 
L 2844 922 
L 4356 4238 
L 5556 4238 
L 5556 4122 
L 5409 4122 
Q 5138 4122 5025 3959 
Q 4956 3859 4956 3503 
L 4956 734 
Q 4956 344 5044 247 
Q 5159 116 5409 116 
L 5556 116 
L 5556 0 
L 3756 0 
L 3756 116 
L 3906 116 
Q 4178 116 4288 278 
Q 4356 378 4356 734 
L 4356 3566 
L 2722 0 
L 2619 0 
z
" transform="scale(0.015625)"/>
      <path id="TimesNewRomanPSMT-58" d="M 2613 2347 
L 3522 991 
Q 3900 428 4083 279 
Q 4266 131 4547 116 
L 4547 0 
L 2728 0 
L 2728 116 
Q 2909 119 2997 153 
Q 3063 181 3105 239 
Q 3147 297 3147 356 
Q 3147 428 3119 500 
Q 3097 553 2947 775 
L 2228 1863 
L 1341 725 
Q 1200 544 1172 483 
Q 1144 422 1144 356 
Q 1144 256 1228 190 
Q 1313 125 1550 116 
L 1550 0 
L 47 0 
L 47 116 
Q 206 131 322 181 
Q 516 263 691 400 
Q 866 538 1091 822 
L 2091 2084 
L 1256 3306 
Q 916 3803 678 3958 
Q 441 4113 131 4122 
L 131 4238 
L 2091 4238 
L 2091 4122 
Q 1841 4113 1748 4041 
Q 1656 3969 1656 3881 
Q 1656 3766 1806 3544 
L 2456 2572 
L 3209 3525 
Q 3341 3694 3370 3756 
Q 3400 3819 3400 3884 
Q 3400 3950 3363 4000 
Q 3316 4066 3244 4092 
Q 3172 4119 2947 4122 
L 2947 4238 
L 4450 4238 
L 4450 4122 
Q 4272 4113 4159 4066 
Q 3991 3994 3850 3872 
Q 3709 3750 3453 3422 
L 2613 2347 
z
" transform="scale(0.015625)"/>
      <path id="TimesNewRomanPSMT-6f" d="M 1600 2947 
Q 2250 2947 2644 2453 
Q 2978 2031 2978 1484 
Q 2978 1100 2793 706 
Q 2609 313 2286 112 
Q 1963 -88 1566 -88 
Q 919 -88 538 428 
Q 216 863 216 1403 
Q 216 1797 411 2186 
Q 606 2575 925 2761 
Q 1244 2947 1600 2947 
z
M 1503 2744 
Q 1338 2744 1170 2645 
Q 1003 2547 900 2300 
Q 797 2053 797 1666 
Q 797 1041 1045 587 
Q 1294 134 1700 134 
Q 2003 134 2200 384 
Q 2397 634 2397 1244 
Q 2397 2006 2069 2444 
Q 1847 2744 1503 2744 
z
" transform="scale(0.015625)"/>
      <path id="TimesNewRomanPSMT-64" d="M 2222 322 
Q 2013 103 1813 7 
Q 1613 -88 1381 -88 
Q 913 -88 563 304 
Q 213 697 213 1313 
Q 213 1928 600 2439 
Q 988 2950 1597 2950 
Q 1975 2950 2222 2709 
L 2222 3238 
Q 2222 3728 2198 3840 
Q 2175 3953 2125 3993 
Q 2075 4034 2000 4034 
Q 1919 4034 1784 3984 
L 1744 4094 
L 2597 4444 
L 2738 4444 
L 2738 1134 
Q 2738 631 2761 520 
Q 2784 409 2836 365 
Q 2888 322 2956 322 
Q 3041 322 3181 375 
L 3216 266 
L 2366 -88 
L 2222 -88 
L 2222 322 
z
M 2222 541 
L 2222 2016 
Q 2203 2228 2109 2403 
Q 2016 2578 1861 2667 
Q 1706 2756 1559 2756 
Q 1284 2756 1069 2509 
Q 784 2184 784 1559 
Q 784 928 1059 592 
Q 1334 256 1672 256 
Q 1956 256 2222 541 
z
" transform="scale(0.015625)"/>
      <path id="TimesNewRomanPSMT-6c" d="M 1184 4444 
L 1184 647 
Q 1184 378 1223 290 
Q 1263 203 1344 158 
Q 1425 113 1647 113 
L 1647 0 
L 244 0 
L 244 113 
Q 441 113 512 153 
Q 584 194 625 287 
Q 666 381 666 647 
L 666 3247 
Q 666 3731 644 3842 
Q 622 3953 573 3993 
Q 525 4034 450 4034 
Q 369 4034 244 3984 
L 191 4094 
L 1044 4444 
L 1184 4444 
z
" transform="scale(0.015625)"/>
      <path id="TimesNewRomanPSMT-2d" d="M 259 1672 
L 1875 1672 
L 1875 1200 
L 259 1200 
L 259 1672 
z
" transform="scale(0.015625)"/>
      <path id="TimesNewRomanPSMT-56" d="M 4544 4238 
L 4544 4122 
Q 4319 4081 4203 3978 
Q 4038 3825 3909 3509 
L 2431 -97 
L 2316 -97 
L 728 3556 
Q 606 3838 556 3900 
Q 478 3997 364 4051 
Q 250 4106 56 4122 
L 56 4238 
L 1788 4238 
L 1788 4122 
Q 1494 4094 1406 4022 
Q 1319 3950 1319 3838 
Q 1319 3681 1463 3350 
L 2541 866 
L 3541 3319 
Q 3688 3681 3688 3822 
Q 3688 3913 3597 3995 
Q 3506 4078 3291 4113 
Q 3275 4116 3238 4122 
L 3238 4238 
L 4544 4238 
z
" transform="scale(0.015625)"/>
      <path id="TimesNewRomanPSMT-74" d="M 1031 3803 
L 1031 2863 
L 1700 2863 
L 1700 2644 
L 1031 2644 
L 1031 788 
Q 1031 509 1111 412 
Q 1191 316 1316 316 
Q 1419 316 1516 380 
Q 1613 444 1666 569 
L 1788 569 
Q 1678 263 1478 108 
Q 1278 -47 1066 -47 
Q 922 -47 784 33 
Q 647 113 581 261 
Q 516 409 516 719 
L 516 2644 
L 63 2644 
L 63 2747 
Q 234 2816 414 2980 
Q 594 3144 734 3369 
Q 806 3488 934 3803 
L 1031 3803 
z
" transform="scale(0.015625)"/>
      <path id="TimesNewRomanPSMT-79" d="M 38 2863 
L 1372 2863 
L 1372 2747 
L 1306 2747 
Q 1166 2747 1095 2686 
Q 1025 2625 1025 2534 
Q 1025 2413 1128 2197 
L 1825 753 
L 2466 2334 
Q 2519 2463 2519 2588 
Q 2519 2644 2497 2672 
Q 2472 2706 2419 2726 
Q 2366 2747 2231 2747 
L 2231 2863 
L 3163 2863 
L 3163 2747 
Q 3047 2734 2984 2696 
Q 2922 2659 2847 2556 
Q 2819 2513 2741 2316 
L 1575 -541 
Q 1406 -956 1132 -1168 
Q 859 -1381 606 -1381 
Q 422 -1381 303 -1275 
Q 184 -1169 184 -1031 
Q 184 -900 270 -820 
Q 356 -741 506 -741 
Q 609 -741 788 -809 
Q 913 -856 944 -856 
Q 1038 -856 1148 -759 
Q 1259 -663 1372 -384 
L 1575 113 
L 547 2272 
Q 500 2369 397 2513 
Q 319 2622 269 2659 
Q 197 2709 38 2747 
L 38 2863 
z
" transform="scale(0.015625)"/>
     </defs>
     <use xlink:href="#TimesNewRomanPSMT-50"/>
     <use xlink:href="#TimesNewRomanPSMT-69" transform="translate(55.615234 0)"/>
     <use xlink:href="#TimesNewRomanPSMT-65" transform="translate(83.398438 0)"/>
     <use xlink:href="#TimesNewRomanPSMT-63" transform="translate(127.783203 0)"/>
     <use xlink:href="#TimesNewRomanPSMT-65" transform="translate(172.167969 0)"/>
     <use xlink:href="#TimesNewRomanPSMT-77" transform="translate(216.552734 0)"/>
     <use xlink:href="#TimesNewRomanPSMT-69" transform="translate(288.769531 0)"/>
     <use xlink:href="#TimesNewRomanPSMT-73" transform="translate(316.552734 0)"/>
     <use xlink:href="#TimesNewRomanPSMT-65" transform="translate(355.46875 0)"/>
     <use xlink:href="#TimesNewRomanPSMT-20" transform="translate(399.853516 0)"/>
     <use xlink:href="#TimesNewRomanPSMT-4e" transform="translate(424.853516 0)"/>
     <use xlink:href="#TimesNewRomanPSMT-41" transform="translate(497.070312 0)"/>
     <use xlink:href="#TimesNewRomanPSMT-52" transform="translate(569.287109 0)"/>
     <use xlink:href="#TimesNewRomanPSMT-4d" transform="translate(635.986328 0)"/>
     <use xlink:href="#TimesNewRomanPSMT-41" transform="translate(724.902344 0)"/>
     <use xlink:href="#TimesNewRomanPSMT-58" transform="translate(797.119141 0)"/>
     <use xlink:href="#TimesNewRomanPSMT-20" transform="translate(869.335938 0)"/>
     <use xlink:href="#TimesNewRomanPSMT-4d" transform="translate(894.335938 0)"/>
     <use xlink:href="#TimesNewRomanPSMT-6f" transform="translate(983.251953 0)"/>
     <use xlink:href="#TimesNewRomanPSMT-64" transform="translate(1033.251953 0)"/>
     <use xlink:href="#TimesNewRomanPSMT-65" transform="translate(1083.251953 0)"/>
     <use xlink:href="#TimesNewRomanPSMT-6c" transform="translate(1127.636719 0)"/>
     <use xlink:href="#TimesNewRomanPSMT-20" transform="translate(1155.419922 0)"/>
     <use xlink:href="#TimesNewRomanPSMT-2d" transform="translate(1180.419922 0)"/>
     <use xlink:href="#TimesNewRomanPSMT-20" transform="translate(1213.720703 0)"/>
     <use xlink:href="#TimesNewRomanPSMT-56" transform="translate(1236.970703 0)"/>
     <use xlink:href="#TimesNewRomanPSMT-65" transform="translate(1298.0625 0)"/>
     <use xlink:href="#TimesNewRomanPSMT-6c" transform="translate(1342.447266 0)"/>
     <use xlink:href="#TimesNewRomanPSMT-6f" transform="translate(1370.230469 0)"/>
     <use xlink:href="#TimesNewRomanPSMT-63" transform="translate(1420.230469 0)"/>
     <use xlink:href="#TimesNewRomanPSMT-69" transform="translate(1464.615234 0)"/>
     <use xlink:href="#TimesNewRomanPSMT-74" transform="translate(1492.398438 0)"/>
     <use xlink:href="#TimesNewRomanPSMT-79" transform="translate(1520.181641 0)"/>
    </g>
   </g>
  </g>
 </g>
 <defs>
  <clipPath id="pc9797b7619">
   <rect x="180" y="43.2" width="1116" height="277.2"/>
  </clipPath>
 </defs>
</svg>
